<mxfile host="65bd71144e">
    <diagram name="PÃ¡gina-1" id="3sC1oU7f6KbLwWuPkJvo">
        <mxGraphModel dx="2076" dy="364" grid="1" gridSize="10" guides="1" tooltips="1" connect="1" arrows="1" fold="1" page="1" pageScale="1" pageWidth="827" pageHeight="1169" math="0" shadow="0">
            <root>
                <mxCell id="0"/>
                <mxCell id="1" parent="0"/>
                <mxCell id="8" value="" style="group" parent="1" vertex="1" connectable="0">
                    <mxGeometry x="-20" y="126" width="870.71" height="224" as="geometry"/>
                </mxCell>
                <mxCell id="IKBpOrt1VyznLJv5Aj4V-1" value="" style="shape=image;verticalLabelPosition=bottom;labelBackgroundColor=default;verticalAlign=top;aspect=fixed;imageAspect=0;image=data:image/png,iVBORw0KGgoAAAANSUhEUgAAA14AAADGCAYAAADCBVFBAAABhWlDQ1BJQ0MgcHJvZmlsZQAAKJF9kT1Iw1AUhU9TpSIVBzuICGaoTnawijiWKhbBQmkrtOpg8tI/aNKQpLg4Cq4FB38Wqw4uzro6uAqC4A+Iu+Ck6CIl3pcUWsR44fE+zrvn8N59gNCsMtXsiQGqZhnpRFzM5VfFwCt8GEMQUUxJzNSTmcUsPOvrnrqp7iI8y7vvzxpQCiYDfCJxjOmGRbxBPLtp6Zz3iUOsLCnE58STBl2Q+JHrsstvnEsOCzwzZGTT88QhYrHUxXIXs7KhEs8QhxVVo3wh57LCeYuzWq2z9j35C4MFbSXDdVqjSGAJSaQgQkYdFVRhIUK7RoqJNJ3HPfwjjj9FLplcFTByLKAGFZLjB/+D37M1i9NRNykYB3pfbPtjHAjsAq2GbX8f23brBPA/A1dax19rAnOfpDc6WvgIGNwGLq47mrwHXO4Aw0+6ZEiO5KclFIvA+xl9Ux4YugX619y5tc9x+gBkaVbLN8DBITBRoux1j3f3dc/t3572/H4AJXty7mtV66YAAAAGYktHRAAAAAAAAPlDu38AAAAJcEhZcwAALiMAAC4jAXilP3YAAAAHdElNRQfpAR8MNgU46RINAAAAGXRFWHRDb21tZW50AENyZWF0ZWQgd2l0aCBHSU1QV4EOFwAAIABJREFUeNrsfWmyJkmOG5HV3aOj6bq6k84h6McLdwIgI1sz00vJLHxsuqoy3/uWWDwIEgv+5//63wSrClV8/lmsAqqq+s8gf8dCwf+gCPz8XrH486uF5zXRP/bzWoUieV+XhUKdl/v5BbJf4+c35UXu6/78C39etPD8Ep8fveu8D6rAn0+I58Wf36ji+U7PWzy/f76XfjaQP69VVXz+BcV6vtLP+/98y5/X7y9exX5v+z7PW8iXe16P9tXt/Dx/QJwjyPu9ifvV73eq6uNQ8bnwfFD2ibi/e7/s8x2r/7P//fkE6F86Z1X+rO55vt8VVb/YLwb0Z15/vnhf7xxH6Gd9zrH+OZ/PgHtQfv4c8qoFf78611edn+1zpt/z5736u+q9Annzc6Xhfgf0Nam/w75Hzn+A/ZnP//ySuwL5viU3YMl3Be91Deh5P39f/Z73mJ578+c7wq9Uf78+CvY7eg0g7kn9/XM/A/FayGut5BycI8qfYyLHDoVnT8D43bLfp7zPzzV4r4H87PLv956zY4GX73eu7d6Y7vudP/v1c67H9fj88C/ZB+195PX0O54ziWdvvLfx81rMe5bzNfzY6fmknfFxjpbX8ePOe81BNiw8BwB2VfV72V4C/uznkPPE7bo897Keu9yX+r4sOwfsva2q6pc8C2t5Xzlpv0o+m56Tcc/wfsb72ufekWOa987dn6BHuZ9R97v8iuMizyzfR+cz09477svzzMXzDPr1nNVf+sj41re+9a1v2fqF5+HwU3CcjR9el19wgFsoajnPs4mD/TsCEJgbO9mPsqfq/EF/p/CnFCks8gFq9AqeZFEfoDjvI0VJFASUpyaLdRHe+SLELQh4Hyz9cwaE2AXILdTvg6qRUhcCvGUTL2B9XvpipucYUKu+Puin+GAAjecl+s/7Y97vZg/eW8Twnrv7QD8P0/uavP+OvSrs4pFRpG6gi11Q/RSEfYLyexCQ0ouzKDzgtwJhyme+L5zVEfwz2mVtgL//G1EKHqDKSrTo56K/sV5/+ffxIc7FYRUrLsi3r1Z6e0COr34gPe+Kxs99UResnGukr8dzPcDfj7jHX68ju1WxfE/WKLDP+SH7/OWv+f3fPyd3RwNi3q8c1yAMTPF2iZ69SPeF+z7oJspzrxJPkQuMc9rbjBwbMr7L2We6KVPj9sIF32Rcu3427v+ScuXavno+G+2eubcGWPrVKdeFNb/Qexv1GoxTqS2YefL7fXk+J7RrNHY0uybut5cCn74FeeuAZ//tV7jHqQ/Az3NGjhsUKEG+un4/yvvBL36wnxXeQLKrr/wXyt4EXO4D5G/S9zc5J+fReY7m/7nXxLO3Pg/J/5N7EuLRqPcl+v0OhL/NSG2Efetb3/rWtxx48SnO+BQcB/hQipduvD0PZi2KOHqw78WwTLh4K4nT2ft5LDaIoNWdd3402nII8NSTpztQAiYoOM/62z0UiEF6sXwBFcZbX0BzHjlSiVB74vRJoHUZIcWi1Nw4VdTzmYC6gA0PKOEphIq3k8nyw9ITylMcsKdxPiiTQjVGZ6eIf4AZC/acJ7xYIpDP7v5udlngtkex/XwUX12swbrXZKAoq0EoICkqJgW8Wdcq0K6lPjIcx8raUycdFRODCea2xTgXXsHlMDgHmY56FkBYDpB0rEqpKG3iRp9AaMHMUf9hgqXy9j+1BKXNUPxYa/Gr03mtTJ89DLnpxPdldROH8ub0GaKOjWqM3OqAzlPYUr73LJ7p3aHnJft3EA0lgyfQ8T99411urjylCxw3hkAzHnp6RQEsviGVNYIWPOzXGfsg8u7scadH/6smBr0zWG06IN5Z99K+ThUcwptE1QwF3oZgOXS4rIreidZvrucG3bi6h0oAUH9Zjg7VgKeoZer0tqdCvgwMPyHfUp9JZz+PB6TtI9TJbzwwnudQT+uwN0u+9a1vfetbD3tFgYht5my6oDeBu1A6tMAEOfcZ0N1csmxeoM/17sxSPkfv+pTC7+fhIQBiUHiaVnPAC6UGOBMWRuOR0S1sWiIvLWz0mG8RSHsoE7VMABFd4HyaC91Oajc+dBrqg+75XgesKZWypHCCljz3f7wCt5qKiCKKPS28XWYY3aZr366OcQFaFPl32pAlDrVn/1Lc1Cj4zrEvLAWLjwV74qOVBALYaVd71K9GXqys6OfUEXLjQGA4b/fYCr9ZwsY/sTYRlgGWFa86WmB02hNAUoB7Ux77prD78jQoDmAyDhXX4n8FUyUUQQEU/ba0e8UxBwznXBqzXrQ19zi9Mud0qiaa1Y5IjWHpBCP4O9/XyGdKaPNrnIn0x3Upn3nhd/l+3vN2B4MsxyzPParcacj1w7jAyHUChFoq/oUOeYkPE5rKuXXa8Li+GXMuyLEBo43jxxfCyx5wfaGqGhPkgmidrFUfZ2FKKKW4Suez/YA1imhc2xzXPO+ehO163X4XfuUix/yI5pNQ3GfDrJqhEp/rm3h961vf+tYb8Dp9QWOS6IMITqFDP7xgJcTzMNenoXTfmC1R6sOX98EFATPIDpw9M2SCk29JK6/lMSbUEy3+g8vOS5HkpY4kKMCZzlEKaWpHvUHmLW5BmwqYxkomIAxqHUYFV8Z9MTZZNXAlhCJ43kenZnIuKH1lo84sFTPIrTf7fBYIfoPVvrACqc8LF4DBLNK02xpAO5ELxoSH0gGXz0haCQ0FsFmGU4qpB8ryBStJu0D+gAaNbPqQIxk5fuM4y7FnWf01uYtax09unXfrL4D3gtHodcgJmVf2NEHob3AXpQkiALDFpgKNuBxYn1fYtXT1kUm9yg+knxtHW8VxntbrH0rBZaCA/feIZgvsfC7VgPpEBjp9Z3/mq/9L3V0Cs6SNDVwMocM9dyQRoC/vCHoTJUELJjUSzwXEuFcxKIK8N+J9FF065oIsIKpUKi17ArRd88px5phgmn67JKXZn0nyzAOc7mxNrNDMPlNHYIJN3yGjQ6rXLLk3HM5+Ssp0N8Dr7aYyb2FrriGAmU73+DqW+9a3vvWtb1VV/YJqMthFghW60lkbUyuvF734iCefFqSqlblGF0xdDgab6E4Wrh5LHnZHTHwmbFDCBe8ETymFlI7lNcpAxfekNbNJezS7BqCkLbvQZyA6CT6TvNLBgRhIaEe6a/fHgCAoXxRqza0/2R1Yim7LMHF0u7fGPXL6kgU4+kWtUxxTwAZ+UTTYdUIpEEKzxm3yVK86MoM5Aj5wL5KcAMR9EFq8LqYec4xtqrGU3t2akDEsoiXd7XepdbmN7+75wgW7XsNztsjlc+1ghOC8d4nfllBEoOM7/ZjUqUkdK9O8qKGNFZVb7bsYdbCkUaLThDeBWO5IgOgJ0dTK2gpuBGDSK1rH/4oP022iTUx8g8BoQvQUmVdP9qPD4+Sf5SQaWoj764/jA20XsJQ9rNCEySc8jNNnHzpTpDbNOAwDeQ5wYT2MTYJqa+H71AFj0hTAetHTjDXGvamDIgH5iC9u7SHW1FgxLwuOZ8DV3zH2Vsapo+zreGtgSNtTjZbiGtgG0HbqVKd7sRu8rRQuN6rNgzzXdK/+qIbf+ta3vvUCvKzTLw+i1knBCmlp91qBO3jkBxwIVc2reRhXHMcxUCkQIe6FFMBXk8VsbSImQDlxST0BLwWuwC4c8PNgZzpYiasiregT2hZiCgEYCDR9FCsE30o94gUDrX+hmyhQJ3O16EFgzVDn6ncXM6cLfIo72nTHqVarGGDRG3BF6LQuf0kRuTnREUHHkoLITE4W3foFT+FIsUlk/JCJPN87E/dg8mU4wtWVTbVFFCqoT5MnVKL8+3Zj1HKDleioaN991dHRT2UL6TlGATSQxavb9Kka/bujfsM+PIV5kgB30NbOpg1STc9zGjhUA5nyCWjl+VTaJSf/U4pPnUnnvW5QXu9xRGNC7yvG/RxNH9eI9n1CMYPgNTrova4LfdUEcnQI3oaYigNTgZQs1jZZkKm6OqYyrtX0u9H3sEn008CxCSzX6WcMMpufwAVwrEhMp1RBgN4ly+MecjMjDuqyflc/n+pkOpkTtqdF46+dU8vcbbGAw6GNrTmlRtBu+/wpZVpYFAun8Zt5fetb3/rWG/Aix+AC0bmjdN7AWadGG7L/Dj/uWdcww6pomj6XgNEO1UTBmv9Z9Ki+H/Fw5axJ7cGondpyobvV6CKi124r4FbSDF0BAmTcico1v4LVzvdLMbCuPOTSCYyh41LXrVvInoey0KR81qOFYL8AZfIEwomDFBApT2hukwIFIwi3R84CkGOeqseEXYxhcVqU6aFSZL3AlILW6H5cCFuIiRoMPN+Ck1xcHmGUrfuudKdGraWwgCEk8jfzBRsOTSAJsareutERH9EvhuGUMOZY0KEMF95SxbiKo4Dk0oKHQmxysR3Qt0AMBWkOqnw2HnrfQMxlnn3ANoulyqZPiEvpqojJ1OIsV4TdWw7mlvnA69QAZrhTas2+MBfPfa+lOpRiXXP6auRWuhbtnGdsIC2NOKH7kJszzTF1fH1Q6INxuTolwU4URSd4aLN3qsWXMXAFrZK0qZPf93IbYtstdPQs4Ms+KtbnkZ9A7vdz9FWSWKL3k79a3efSpCtMgXObTbU2l9a4ENOoEbtR38jrW9/61rdegdcpCuQhQtV5ycPk6lyEkgUFCmIF3x3gQ/E7AKwtqtWx6sfimJeiAkUdhHfrHwtrRsefdApNNJLdnVA1COzitDDB5Jl+WdefNZhiEHvzCzyr9Wq3tjtGIzy2+dJxDx/4bjSyBdo1JTsUm3mkvZxO6a7OAp358ui27rGtoH1delwKHXCpaxze3ZwTC4rro3TpS1wtM44gKVI2M2DTksxkS93lwpMc0tWefLyt6OGlrY4q6Gb+CHijF2j684OJFGXb1e3o9YfQbzz36vjU2d0+jYxwymS6WA4tpGMBpSbe+AbVvWU337Qsz6TCprAvUw6h89pnAszOflq7UYx+/BwuDhi9pVApxt1c8QGU3z/ePRIQw/jUM4Xg0lOJZb/I7xM2h52npfRaCEMAc6ofjRxUNE7kWN5pOt1IR+8BxucYc8lpVHizGifMWQxy9Dsc7edwueG4zjBodXK9mj7zcYEl3NQj9ipoR68WQ4mS6TvTNbEWAV1DNi4I6u65UOfHx9jpBZ+6s2vEj/wOuYclPG++G8SAhAG4hQPByHdU3ZiT/r+R17e+9a1vvQKvKtE7lco7vBt4OlvhmNfZOwqKOuDxTiQsBwteuNgEa04AoHbRCkLK87KGaAGQIOKmP46wqaHfEm3XcUmLLi/AUUhSko4Qk5xZ1ImWjO0yNgBPCeXThk1oG2vh50NEZ1Y806k7ygul+aAwCg5EMQcxEVPaJDzzB5GlZgXA5Jy1/oMeFi3t3M5Q09Gmg/iapo2WucWRWI112pAFi1HZsrivmlOdCtJcOiwm5LuW5kmnCsC5BAHv3WWaW1zSuvpU0AvQcezwXjAfyvAtnN2O0/V9kaGEl898tEtaKa66pXCmu4U4ZdqYJbN3/gfVK2iJpHc3IFxjpm50yTmbta/TS0uMYjB5rnZ/uqshzCxGv2CYiy5paJi1sQKV6FU0/hfmAw2JLsBqdk9wDUHmxBWVnqaUGENpCRCbpU/U+dhu3m1bWj5zTySB+bu2fUXI9pKMXGp8gTW7jxuuFAC+ixs1OF7zGWtEKXiESY7eDhMF7hn5XNOzcUZEzAG1aUt3A/3Wt771rW+9AS8YRYDC2z5dS6gO64R5HixwzB6OkcKlswXnBOLiJCQrhksfJcDYuPfwTDEO1pva8Ypo/rqcVXAoeR8m7nLXxS6lWBqSEGpul1IMS6OpZl5X8D/M3Vcdqa5FtzxCxTiAZgfu4aOMou8EoQLJ8K/pcGfou7N+GBbGqVkx4xCdeux69zLhPNTfEO4/UW7BT8mUItRI2UeQg6a5lmweh5yTgAFs1PxDmg18qfmABeSXGGdocRbha1TxYHxivqItp3T1Z3afxU3foj/OdCbkPtUIb/EG+Cb47BtWp0qbacO9RYDw0FvAE9PNIO5dnZZnhX6bMXAQPvSOtdqkdwC834t6iNJ/ou/J8WGe4/KWYof5mcSds6c6M0euXkKSm6a83g4xHZZzKoHcPeXwqRK0ufCcd1hTKRzzyGgm9PXjLvUcPRud9K53A8r26NouXU6TFpvIPwHvyM2A8z7E1l2LK9mm2TUDxNcdCbW0QTRLE9HETDOhvJ4RVv+5i3jUNIYBiTwj5D4nJBbiW9/61re+9Qa8OtASR3slzlRWo0OoDYc6d9XUaJ8E6VSunb1lz78gDw3GaMYAtA5j11S41EeE0R3EGKRpfBxskGwmIzKOaA4izyNO9F3aZWxaXQklkQ60FgxgGWjn34+zHzCJL4dKBi+YKaMGPFQkDBvl5yePzi2cDSFhmI0Bxbr5Cva5VKjOxwwcN6DUeT9G6KfSYvR3oAo10c0gRihQAf+wHNuK2yyjuNrpH91Re0Rynbbdwhc1u90RvA2lOGaBpwF693vHRCLcQz2Yeulgb3opOW6e2DBETn4eRR7iBKp0/qty/410mhMu5IIIBnW0WzfdHoHSwDCvA+8SNKwB35NxsYGZDAVGRAbQnFxtL6rWv/q1yhcA7yHHdqPadNCx1thiCIt7AGW6nu8hUyhjHFTnE/oYm0PHCLELTJ0WI+YgQaVnApZNkrYezniW0OmzibCsQRiXG5qGYMY6XE4OYkDpWVmhhVIAbvrSunuZBQ8f85gEhoN6qE69vlOaoeV16oyO5d2LKK6r2XHIHp0EcFOIlFyaWN/61re+9S0HXmOzPWLz5cliGh1q51m2fbgOR7Xgyd5QQ29kFhFl8oGmmqhupU0lfAqn06zw83CKmQgj7ntIF1xdsahB0Yyup/zunbiFnqxwzEYiWwcYZSQwi2q3M8fl5veEwROxjpU85QXPhAbV+gGKI5Yy+Tjs5VvPcqZnk+Wp1CeBpGlHHV3eAwC56MJ2Bwk6QLWiY+bYOAsIDuI4Y3NHxWG6P6f78HeSBmRmmYBkcHbq6dOGo+GhXiOEw0ip9Y1GBRaNvgYpxvBCtcIVFU7NFPbBZcZ2YdiGvkwd6MdE3t6LRf1YGCBEqXv0WYVfRxegT/qfgug5MQmtqNB0cehgHJ56FpCeAbRGHV6c4KRHFBQ6dZh1JMtyenHpdAlJt+Odgtu5xZx8JNheh8OLNSIvVU78AVGL8Ql3R3w1t+DmACjXXrgENsNR7XfjOiV2c0Tu490RZ55U8MXFdPE7kd9HvdKS9fgrhfBOiT17kQv1k2Rki9H2JH8U0siQ3KanJg9gBEtrttc37frWt771rd8CLzyObLlRN2WNVoSXgCQIzQVh3811sqCFpyeEnYBNQigTw2mNBgS61qM8WGUSdAI45WHfE6vFehhsQwB9iJrGA1aQeckmQmcJ1vTcYFzKHymmFBShPp0/g3SxI0PI3ZNKmBEGpQAvc/i656085Jpq9lHJOAsqpNo5Jq1mMOwgXdda6Gtd/sKoPVioQPJ52eeEtUyX7iHj1eq9ZTC5jwKszYzsomvuQIKGN9D4gsk4ijnUqMqj/uZeB0vRjwgJPv9kJdNLRWDM757IYGmgmB02hRY8K/Qo5BUwQ8KD6aYbxb36Lf3Me/ma+Uz5UTq2AYPWtpbCQlFkhUHMAEhlGs/BPC0FcZNe1i6o9Atr5IHN7DC1ifGpWEZC1DXtGRnQcJ2hmxv5hQxtACyn3X5GZzPAhOGIOxI7Q8KDuMOtcWhLsWrL/HoMJ05pgnEJoJ4miW0S1Hv9cq9yzrzawbMnkup46NNyyvOXkwJ4tck1xZTpEClNzm54IpxU7ekdn1yOHr9p17e+9a1v/V3g9cbCIppq2I9cXBtv/TkjnDGoUErhC24c8kWWbiFTG8MSYXt3e3lAlupYniJfqSvG/EMNsNCTJlqA5dH0GH1ERMpt6Yz7s7f0WSZ0hxplSEiEUQruVB/RnMoGcNqlvY6K9K67d18lNBtdjCPcBmm9V3pm0VL8loSY9mu7c137/IsrpRhqmIV0ULBgozjGwJC/77WK6Qgt2Ex65UZXdbN3wgEIJWeM5fI8D2zFyI0zV7almPROuBj/g/t0ZTkfySZSc8oNovR1jrZWD3t9d7Bc9ozZYjHAou/jwtKu2DtH6Td7w8vpLaHPpbMpKu/5KbPLqnwUkk8TiszOAWNP2e+RQ/+14//sW5TMQ4sSEEErxFnR56Ww/c0/B5ezQ8t0atC7HLs7laJ9jzigq4Ok55RNOKaNOHX+a0CmGWbwBtoAD6K/tOZhU+CRrosZBC+7uz3PBNyoDUX9nUYJBFuTexfSmiRweJNU3pcehrM88ucQeV+5EzFyGq9Z1ryVkegR/h2Ab9r1rW9961t/F3hptgulQCpKzOjRB5CuWQgJh1Hr6DQ7XKE1tcFtRgN8DBtMrL7l/YiDGUX5ax1Mc1qzR9xtV9rDVHOBCDOAsO776WhKajJxQmQZIKTCTKSkM9huZZTw5vtPlY5E6DKTRmfngKP4hEzsqEciu+8CEkemVLWOxiu7MG/gJqrRRvLyeycTZ7EpY5ZFwRVjVJo2PRovRLkuWT5feQcrBXgmmxtajslPjjqgTnjYys9uZhilVGVeKvBIPdtW3KKjGZqaBMmJ86kvpNBUqOXzP/9pLlxJN2PAPvvGlMI5gqQZrRBhu86EsWFzfalzCw/0d5PYMRhaNH5EGKWoPpIe7C0FPoDKMOxSKp4YgejeOvSHgDeTGE2HHJBadBguuB6OC8gmmkxygYF08vuFlDVAWYASc1udFwcZ7qM6D6SPbLpRhnlNwDLs3S3RAuwXKmHveJUuqPm1Lg0ZZSLeG/psE/xyrWMLid3xQ8wr3rZNjMkhrCmjTQZG9+E+8cHYBzBA6uBL2n6f++23vvWtb33rt8DriHgvr/6IbaU9DjSN7ZhgUNt4hACdLkQYvIbjNGbRRPBwZXWq6wYvO5xTbLdvdxNd9E8Ovds0UyUvAhbZX86tw+nMukNHHE/SCgF8eQ4R7kNbRmjp5qXQULj4IMxS/xbrT4HmXXyhBEmXvFk+MDv+1jr0NGg4MJrGz0097PlM77rnJIGcxbKFjC2/NzUYqKETEzosFss+a/6/xjzN6eAtqAQJ/1bDQCP6jHyi0tocPnGF0bT4oq9wowMZVlRrPdwYQ6e/XYXyfr45D5H7pMKxLKhkW7GPALE5FEDVoNOa8yR8GrPlDUeZvjjBcQFoOS3wCwGcgBBbzBu2cCTNoOpCGgP8hDflcQb8DUPL0pE4i2jTwvFlKhJAq7VVGOgXoYlrowrX1zpFfHfKBBIewCbYHGBuTjXbOAIDiE4q7wz/9SsD2ncYOVlVCbYR0//d6KRZB9H4yGNbM+bLhJLAwiJ1NkZulbU0x8ZeE5+DNvVf7h2U0e23vbzvWv7Gtuhb3/rWt741gJfFUUnWB6OrjLCl60mAuFNRuOX2pIFl7WQJ6xm9aGpJBDTPCsrNMNJJI6kR5soU6ADqFHi7lG2LfLvQUkQBSsHC0E/dfyrvn0JWuYBVPgOFjiRdUNOIieV/fynVdfVJ8gnQM+W4GWDzPFl/HWVToc5xQ7r9m3YLo+rWU8Y78YPNVbDzYcaohMvkBKs7+0BwW7Fa000uILCdW0qnl0rPEt+Ddj2sO3kaR+3FWHDK2jnBhDQ9wOQCybm3jCQ1sMEgEao5+g3JpesKs/rKKV3fkhBqJjyQuLrBUpmLdfSd8GSnBJtcjBxuxECJ6+ihTWoMhCEqzYKDN/dXPVnFVELz57wMZU2QmgTSi4nS0h/L6YwIAjY/UZoa3C8vQ/qbfm9NTV7hLBavfNZILZjX73WrRaSzW/SbfV/cBhuGds2+a1DHOXzx4Z7+1hhw4Jt6Wm3gcZi/R8uCEWmhmtZySahPISnPBntaGeVemQsN9i2PpCdoCf5kL/M2gU6Y5crcRlhYbgbRPH/rW9/61rf+H4BXxkDdUNDyAF7Siwk+HXbrngHWWfdi+vw85OeQefduVQzIBCYwxQUkD20QOm+T7md1oXkeWKBTcwh/kNxQWIZdQzjHHbtfy3hFmej7p47ktbRHYcTwVjiGs/38PRBZcqwumE2KTSrG9bPk60rVcxwXtbFvU9D7Dk2rpBaYS/AM3wTx2k2uTa/C1xxOaOFMzYGb2rvlNw2dDbvpxR76Tgc4C3YAHiZatQdGjw4/BiCF+WEE0GDbQHdzBN6hx5Zo9db9ngWZG75JVITddJhCmZJ70Q7ahi9R5skwJnx8pu9OG0waqebc6XSg86l4my8U2p65ISpFDwq5KFN1riBZvw9UOxq2JB5M7HpT1RCtxivIWAC5J88eMvIzfIpYSWcDo0kgk2czvcCISEPsKQacXKbkV5WCz9sQW7xDMY8txS0VxxhnCT1HYLERcz7MNtQQh86MRu1dPsCmTpvbKjEFfkd7zO2e0fenUiMXR0XDdAro3AwqwXVSrznuyACrSHr/PB73niWGR+23vvWtb33r7wCvln3wugr2Q6lpR5cLDrftBdvjC+SggHUhQP+5K+rFi9V0a8qulfQ19ujCHhKIqoHENN0CbQpxKYBSQJwihJRwUlVRI4u2Ehv3sCbXHOGFT+PZM7iaC41/hkzm7nGAPvxoA5BbHIX4eVhiq8m4DjFEbxauyw1CGYW7AgKdYrwMC9wVUqtgu7AaNA9aDdsWXamVL3oid9amF8v3+qTTM7esKniRrzl12OrRcjfMngiJomyhwVn3XvsQWajC6ZMr1Y64FOLxLuHEqADoOnWCcU8EqFKgBzV3UJc7yIB5Pzf6nWgmN1LUZQjcMHHw5oRzeCeo8fS5nIbI3AzwRv8S+JxR3M6LDP839D0MDTZj76fDMj3onj25z1lln1oGnZaBbM4eB9Q65bhB95YhGFNIvrQ1lGJpG5C+h7+/gwY9q5AjqE6Se3fFvYpe4g8SL9npymcRugmmOky+TEUXVDaow8OPHmL/on5QAAAgAElEQVTEhLB4r4WbmLt5Ddt+PQ7mX3MbiogmQxj2qC57NM7C+/Ubd33rW9/61n8OeLV5RrVu60bQMwJg48GUIqg61DrXaGSheWhysKdYdAT1f5A1jT4Em3LTWVtqzS5FgBYcdAMPPJ1ynIfTEZWBTrBXUFplDy9mPBe7WDjUJz4UxXuI1dQC9Ko63BhLbJ+pRcwJA60a1v+3CxzGJ7fYhejCWXcaeGzlwWiihpuEFYGb1kOnE5oRRbmqqNPEKCpWc2qh5EDTqqCHJPRzNeBJjJlqS3nd/Cx8whJZZlbQe6o31dcy6XKbSB3prSjnJAEfGbRBhguc6s66pe3UMTEEuSHhrJrehhLBUH1f5euBe1GNOE6FBe1K8yOOu4c7w6YiXELGV9CKTAPAABXLMKpKnOBM8kUFobxFKuOY6XbZjpk6IcawOIepTP24spY8tzjI27+pjufVAPGwCNRZ9FJJ5z2e9GV6cKJMErGlFDx7sBw3Jk7hva8xUW832ABrJvhBh4Gowg7S8mEEewo6wLPoQno0AKNzwDhhrViluTt6E3GZ+Jbq7vRm7BgY6zKYNloZH+FgS45sNca+0s+iL7XrW9/61rf+08DrUs+OFfPJRELY2fKlMC3b861IP3WnGt3d4UlMg05/e7jbcWaEGCUONCB3QAThD9fsklIHLWjUZLRBKZj59oRhmjbg2sVfEwsql761cBrM3KYktHc+Lw4VWmuXklNQ3XUGzTGOxQFmbtBy2O2fYrbpPlkgwyh/V9tTb2OjCD02vY+HICuwLlNWeJTBNYKR0unk0XlUwLGv1+wlCI1yCtNheWOZssQ7CVAwlBfGKQRBBV+0aYQ5ctpXE7rtvb6l44/Upp3OOS1vj1KMERJBMMwrlJfa02hoB36xf9PJrTpv7pQtn8TYSJMVHXQxLWC90kdteqXuk9xEWhj22KoPQtq0Lq4BuHoyRCxBTj2q5rhOWaZynu6Eza9xbMes0gOfbk4Ux5yZtG1TQd/lXNfkL4oKn5lshSzNCyD2cDuQMHofgq4N0f8ZYtFjhJjaQ6Y64HIv9ffHS8be1DpWTPs3nVM5a4ANplSHu4Wec7lObEqlOXZxXC+sB9wwSppKw3wW4yaMGxoT6NmkVZ+9XwH1rW9961v/eeBVMf2QJyvF5ttclCmOVt2WCxtuyWY6VC54YXkfIBTQQcrmD4MJHnqMS0+6ZhFkUPvKrO41g+yW6yY6gVHEur7xvKxLvXyAIsVwwsCIPgepGVZWqvbEqWKqOAo3CvVTtfVe7HA4jcGCTu/H4KEHzuJQsRXZwm1egCUFPKb1vIOjpZE8Ekl9MoQ0RKiySvnmNmGG/ibl72ps0g7uXNsvIaNqCKOfk+E+M78evICSa0ujGGzisI0KuVm5i1GKXbriCCjCOwzNHyZQr53SqbYCF+DydwHY1XoVG0VgsrLg3X8hP4XEDxNUXI8GBmieoMR3A/5d84ha8ou4lug5wvcRDsJWvmqxajd6Y63Nk8yUup8pQ5DJeb8tAcKIY55XnX03eEg42eAQed1wGkdQ77NsMuTxzUMieXNGdRRrPwMtQolmvChlArmiRmuWZINRgSXdmXCIKmnPuWshhDj/K0XxYUKMe+bdM9CNbzwoG8lEqVqmYltmB++eOpR0Rhb4pl3f+ta3vvVfAl6aLeXccNHiRMbNzaQRZw6ERvtS2A4t5+q7MVyezKpXzSWe96bYsNNytaKYglD7Dn2NS5GaJTJhwb5FLEZfMK58WTfyAWyEg0ou3ecqtx9myqyoES5d/1j2yw5iYKG6sIRSmwogyy53WTvAh+WaFNIrDUpnmIvo3iaf9vymGVW8UaHMkRJRQDwHhjXM5cMoJgwwGVcQuFiEq/NhBieXh8lKMfZ34n2rwvFOuEQDdCV98cJLpQJl3VcVRp9yXeDFr8SHH3KBTVv0c/3w5fvRnGrc0GHj/CFNNIT/xwVU2CsTYb/tjnkcx9XvlxE7wJ4e5PHECk4k9gHdcgLmhK6nOL53pcslKYV7DJfzBWEOfvQGSOZq0ec4o/FRPlcxuHr3dU5QltolpfjiLay7LdpRA5Fa6K/fDW5uZHvnZqwDJ9n6yZvmPeaLwTyuMGZB7rapJb1nFxjhych7f1EJ/jaQGc740IuFNk7TIPQwrzK1sxtmnNFZmMdKbMuPMPzXh7q+9a1vfeu/BrwgDxUuvb+ejHS4Jx/e/y3o1J76AB26U5SaXXQB3A+odMXGDSWWzjZFmGEmG0k3pNAbH5MBShbY6YJS9Vdd/LReSosgmmaHYul7XR/B6OKiPKtYCChpVVWuKRoN9ei+kypR4s1X64wkmoGAdrqPC6TLydQ+nGZ2AQ2ovcxCt0H20SKtG/6uOdm6zFytvBFBoIwWss4+lLpUCtc1PdXMYNydrZlmtNwirdKwhESnnf7ReUXffXQA/LuEBXbNqcUBJpu2TE1CEJMHRqlu50YolZTCFBJwxS2zhwGMEkty/yoID/FJuVKwO8ZUrQeKotP0KHgBXxLP0HsUBkQg03G1pvOkjWvkelmd4RiTWUo4GiOqXYeJD235XncdQwGdFtOvsjszsVwrxrGqda6C8ik9NMcLE6SJpLW0hreinrDbe0yza+59Zq6xgGJva2DqmSpwMP0CZfzzam0dqoa+qRYqI4xSeF1XK+6HQJtjyph9Cr5QZXW7wHSecR3txO73GgPG5yNqODFarPoHur71rW99678OvLqAZ9iPY2SoXL8ACq2OHSpslD4r2HE7yekqeECRctI5aIJuBUh9Wi6UOq2vEVUF1AHjmhw8IcLAtJZ+jgPF0spoUYVZAINOa5FmfGdY1c3FwtEEMKzhc/qixb0VP5FjdjPI5IOdzLU7UfAp1nWtvKCZ3nGOaRvDLUV1B2owYrlgUXwwNFhpBWnncKT9xrSMHmwtM4j4vGJPfo5J1nvG0smCiKsTxpQ0qSKL6+RlsAtRw256olDX3VgcVRnCeqjCjELRp0kUxzZ3JGynwbQFH3XgyCaKYOqFlklmHUkxBPAKEQkUEqTe+xr3XmrjCu7gy0a8NIfOUu3MQtvraegz1SixVNX7JM0Vg4LZZjc56aU1DmDAjR1RUZKXJq6Ovj+VAR4FJ7Cw+5ojUSDaI02jhqKscGpl0Hm52ccv9wDGmDemp7IHmCvr2BMQiQ3pMFpTw/eGUK4+0udC67/Is88amRFfUtuOAJmgSosDi1YSaxPBW6frQI39/IPojc/eeRt0qcm77r2sX6hv2vWtb33rW/8d4FXhxIdHM7U5knEvo83OT0ETjWbxFBPMzJjqDK4LpOgkCLNe34wbqh3ztPRA0txwNU3QcObjNDjIJHVzq4z3zkVfRdFQqSvixYNou3Wxyz5aNQ0hhmjBjMePBmttSw6nel56i7quaXGGmsIe6bSroQa6w10y0VuinMbx9ynLZuW8iFGIiuQ0CxD1glbNISTMOrNxi6uxyqWpqWNk5Mm6yYJaeJRNK2xuKRPSPZ+INmGZP5IOcDElO42FSG3Y/NmhFGE6qLAalzG1iPrXXE1rTrNK9UagZOeV0TNTG8al7q2w1taxHeolGE6OK5HTM7W53yrGEMFoRlqIu0CdZPFucDfjUEF7bFM8IImp+IJNu0Y+WYBVVLJfnb46ZujUxsZT0mOGuqvRiFuQlzPznj2Ei8cEjTau+5SAxMXc0qjcZ0+815JzYbHgZgePlNdoIFaOP8Y0Hu/RgXGDLU2EDdfDz+0Lni1jbQw9J8Op0umiTSHGHDeymSDeNIi593BO5IwguXt71a9v3PWtb33rW/9N4HW7q0qIUsqc6GuuDoxSKMPCa09GV9OUpPjN/KCCUP+6I3umagZo0PTAkw+DMv8pt9EtSg4Zwvqe19yAFn4qAaTHqOOYZ3DRUkSRRMakRcwOmFoR+mNbw4jzqTf7xehjnIV0DIa63u7uptKgIIXKYsLWgcn254gwUj+/rL2RXzHtGIWI0SajYWvDMBigov15rRk0MjpLTXvVWtCfn0UUX5Ij9lC/ENiG+4ikz6aA1PwZrrlT8MIbg4m6VIBs0HwJrihVFlmg8CrIc2CyTbz0+FHouiWT5LtXSHQEqBls8i1gUEXuAAxAMgJx2UUouGvnMJo1kSGXwefIOy8ubkwQsWaPXfAoMe/i6jgivccoCK2tdWjqh62CeXaNJdyIROdQ2dSQzbw8KQxNP1wGNnle8j5IixW3XKcli9xGEv27Et48SFPDPn6c5qp4wVTiDIkIk1Zwi4BxYxqlDYxrRoNhKOi5ahJ7wFqMlcqekRcYCUhtKkM+Z0XsZ0N6Jpp20GcT0v4cf6A+Q41vfetb3/pvAy/toxEm2O3mfW/U54FyKYbg7BRi8ikgndVDIkdxNH/vZAyqyeLN5rrBtYJ2VrHznWTJZ6RTMC6VTZ+I8BBUDbQc+UIZrJpmCE8gNZ4CazLU5DiruQkMo5ZmeakK5BodGD3t0AzhAE81eXh3Fb6Oe9odlowmchkFBNUQldSjBDpOtaKAXb1guE5xKnu/TdmqWowuwh3s5qWFE4xNWLLbu1F+Fh0b1Zbcp5CzSoeD4yxN6TgoBrvzuA5DBkSMQkyQSoJyrUyWHD/lP+aoSycjcGMMrKIur1Sp9ObCOCZd6E8gEz0Za4hQakd3F8wtycd9SDC1jyvzxlyAqgDmCDJGnOt7x7BB42bocQN8bf6J1cUeg8KZWW1Vmh2mh28L7z7NqUSmSYRmxn3InmrtN5ZRcHUQ23hBLNg1rxELAGfsMwO81NoASafc/rgoNZ+4U37SdGOjJbZNj2uGygfi6+fHpX6IXhB782pYj2gjrVSXVwtE9+OxkkAR9h7Pa33Trm9961vf+gcAL2QYpjxkvGiAPxQBD3KMKYOG8NbiKnWymkyQL8YZCC2KeizzoVu5dby8nrogKqNnMjiu1qw046kivJStjZiDlNawlUzI1FqeqYheRA43A+la48tXJt1iXQ3cIO5ZYkt59BLEjL4cFs7Cz7qFRnjOmRWyHDOfCCmxqGYIasGCeXnopVbISBgz/p4RR7raUQcElVb87UTt2rJhlpB6vXHisWbc4KXCm0b34VSmhgBhXKJUUUhu2TDzrL3JAXMXnLOBpBWxk7T9bGJ3u/NCuu5UtSJrKPWYOGYuUJvwikTgmFwEbt0mDsjTZsYSIzmhJ9+ihwNfjA7EutUVltyrfEpEhAgeYTfhY5ohNEmuudOQ/YavDpojA2zhz/leRgfKGtq+gOgxxTp7wchfi3xDa4zBgLU2uXRf1j+BHrth3ORNqpzG30xC061W2PbLZzS946MbxkhIdzgjFxgz7zL7kKidUuge/N6sXIAkcs5nQj1M63q16UXIB4x6OpuTv3599vHf+ta3vvUPAV5ngkF1xNIw3BdVMJQXQvoDTKh1RIiilVPumuR+aNGLM5R8Hgt1Pc351m0pCeUCotpcxuBTsKr0j4/nrIRvRiFOtZAWvQRiygE0MGtnvkZRat3eBdvSITXlPm93tK4RSN0IgKsXE0MOHTJcmg82a2FGmGld+imQ7nOwQptpxlH9PsNEfPf6j3BcLxqj6VtczMkV1HnjWcwTSg0oZvKT8YQioNjR1RSJmB5IyH5FzDpKOvyDIXezw8TSBSkXys+TGB/Zv3BanbqSys/SE7XclS4KZpSbvng3JxGeZowJzXW0XPZuPXOkA0RjhdL13wzhufiewM4nIyOvucR4/Xw0O++y688D46vU8pHeT7DfszsIch29BZaHyQWXxos1ZwZvlTLZ5qCU3tfaPu+La2Jfg0tQ2rjZK/Ic+we4ZYEtgFeBGMuROpdLwW9YeMMwHwxrE63B4g1MB5eMvrwd97wCB/u1NgLonVELH09fn9avNmWU0fixTLt2li/gh2b4rW9961vf+gcArxLDBJsUaFjn1UpN8b3bMsOF7ZIHxnggZHApr0hKLeLFgl4E0+r7ZB1czG43Kwwf9MNDaS1enKsF8tWcKSgTF8ZrKsDWg+l0QgucNheRrKwIpdXiAlUGErogExG5Ok3qVAuc+oDltaZbFzRGzeg8Wrhp4UBBdO28SOngvxNfyN1mwkphwgT/iEJMbcutxtDC603KZRlSZa6OSSmDWrgtowmk0yGwVmmET+/cdppGt9smaDpkICrs6dWEe45ACI54gqJ/GrDL1gzCpWAGPefcy22n58GBeX9ivrrFIa8ORvj5nQqnJeR0nVQd5gV6QUskcoJQS8GdTpx+LTFz6M5k6+qJMOVtL5s07jRcAIjpFefI0x0u3QGUm+VNumqWgjJMARghDozcpGF3WoZBAGZ+O3HOc0hrOYFhlDGbE3XB6QieD9yP5fd1SqT0yJ5CryenRm9Mrz/06/j7YwdYbCMWOq3D8WE2h2rb21qfPe830U2jLKfsmjw9L/THRzH81re+9a1/HPC6jXqWWcCrK+CtO4Ep34Ly5Bk6J3duM2GwuQRg1r+329mTqYOMFMzhEe0rqHjNwgIaoFh2mVX09oAzohoySFQA03X98xBVUopgNI2fYbtO0zh0Tg8DUOhzXTVvN8gVfQzMAe2K1TXzp0HE/XU2p1/rXIoT5DQ1COut8nwoaEbSAFlL1TnOH2a7976+6nLynKj5iE8UD3jdajiXqIQv+LmWboAvA0DSi7iaRh/tNkiZXpzPI8ReLNadoikabtahN9toSETtgGSGOEXWzxbqrB9AdXtOt4LZgPvkzWioGmJ+zXHm5IkjdTAnoXG8ygNkERP3051giIWw1LWmp+OWOceXS9uz0orvgduI/DAKWO3sRL8vsGiJIEHwZgwDjFunhqNn/w5qevn1HhYgOGzUKyegqp+LgdKJg6CpwKYhB7VLNhweJfdRojRYOfXuZoK+slEa5Rtx6SWks+NNJogbFIRQ9Q29e4PLu4Y1pqbYzo83d7imQtcWyuW3u0y8yH6G/vHZx3/rW9/61j8WeF2DBnTBdC3K6S1MivtT1xi4GgaatXE/QNLEyZwDzyuok5x2Uh+XRCibi+2AZZprfW3LtQmBd8XEAq4DOpMrhD4BEidTWphD9CESunv9w7C4SFd//iygyehkPy8wHq9yHA6FrfGHJQE3aJJiqv+szHvCiuIA26SD6iyL1CUs9ToNMKq/DxadhOk+JLD6ZhQML0hv28s1QXtfVlZrg9zIWrNzmIwzUI5zFrCc04ShtGtPTq3/h1Io3OimXWMDbAYoZfi+YQEstYFD9tRW6b5rkkNi4gN+08lx06HpNT8oZ7gTyxsaPAcUMTF5GUfwBV6fYhNcLO+wJrABJpS52WFpYNjH0V9Nga9OHf1jTkqbDJhuiH0HYIgel/N6VjBp9frLFIfRJODWXNly6O7+LUH3oRPUXDZseQJqDDFvIb8fI+Ddzrnhm3fKX22GJUsg8fqdc9sig6bNx5xk7nHmTAlv2KiZkzryNnUZw8HUo1RqaCwtKFm6LXAl6NgMPkONb33rW9/6BwMv3AclO8Q33NGuVkiDKSl2yGoAoJ13eMgwRIDc/XG1oq/HdvoBcle7wdVSW4EO2JqoS3GxhzNFBC7W2grUSmhm9/vy8uGNdUNYl9MfqOyWKFg72Uw7/x3oW9aE5+h4u51iB1PzTNy49aelaLmaLqdiCtIR7ZMCT0YxF3b4CCqm0Fxs2iGOKmq+kSYS/XeSxZNBQwYlVLOwmw+wZJKy0ruwmAfMcvTYRENpsLUMXJYCj8CaYQYDIJTCyAt1cA9tHi8JTk0IJjpZi31osyVz9RZq1fiqqErb6i2EGYttunKcKEV2Nu8ZhfObIQbLGwRxoLqZEFYy5ASkiaruOaU4Dy7awOiDlO4RFWHHmAYZEG2g31eo9ZeGBrK1rm2askOP6URbZge7UhuLcsiEPUDJGrRx2qFjbjo7lrsu+b4DuScIR698aaagYD8DPdbx3rguJ3unjNJgGneiYTTI9T5jVPyChk/aALn345mZwc9P7qa2DqH6Xs0Jo07FpQGlfyaZcl9Y8re+9a1v/ROA16lsgNABWWdYOpeWVcXWSZ2N+wbwqsKE1hWu6MU7xY8dWqyTE7azFKUeOB1KDQOldJcPxYxpCjI6uFlc4mrOsg64DmgSvlxC7TPNmTZizSKcM19GrMfvtEnoRV2T9KTODCRK81/l75QvGp7pDlTYphRQQBhFvHAfPYwY3ZHFZMqhFm/w0TVHUQcK5YAMW69eC4yayWdisbm0qaPpLu6CfczegKz/B0bNjUmtlM4BljCuLOZGZxyv9gRmJMMA6Nd8ZjvsEo59P+IYlmh4etD8zExBzWfkJBIvQDhBb5lCbeCdYTwBBzwGxsqNgqrE0lzfKQ6s7IBrXlp+atkgRk6Y/WSYYVSEpG/mJfKZGQY8nJHWE5heXSxtjxkGKJhUNnfhU89yNRBh71O2N9V1P4UeFGLoCI2CrPc9xNbdgIvgdJVTaSRGaeOqZB+HN15iKMqgu1qXTxuH6da45R9WfGgOwqTCJQl/ZinNXBMd9OS2QYsEyMuzp3WkNX1CdC/OsPSnCfuXD3V961vf+tY/HngxO38nc+pOe6Tvp+YJ6pilAb3XXZBW71K0R6Vi5YfeiNkQbdraBTW0TqCb4TlH36OBZDqVvW3VxsNLeiLE4v2cer4TZDKluUyHbsWeBMXEgRFoiWv04doYjiAXXjMNJqg5wJfDa1s+l5lrPw93DArlz2dr2pha9R+wiUSj5bTHdB/jvbYoxxqr0AjBAuUFvNmNXuRh2M1AnGqIqd25BW69UONCz7W4K/q0eHotAlgnoFxgSZt5yARBDU/UdTKAhBZ+WszBOyAPFZaL6zRu8+OaHsBhL+AAyrSdFmpEKag9bB1x7DvfL2y008nuNmFYmkPIKEi3OLEFE5mJzz2uwUA0Cq+aaAS1chmBXxv4GiYiFBMiDCrfneDrPkbU5OlJGyuuCUz+ahTwEvTOhUrq7QXv5ch3mLRdhvOih/bupoQdq+HGiR1nwmgAeDoH3UzkpcdTWwaa3LxMO1U16GDNWBAGNTavtqB6DsfFzU7X4gXo4d1M65nFS1SaCdiO+WV3ZC4h6o9fvz77+G9961vf+mcALyvCUudRSqV6NGCQzBv2QxjaMT8gS6hCQwfRXIgIFq3rUnZpjjbUEBcmmbQg7XTtWZ8W7xRtmJSohxqITF596I/9jNV0yXY8rLCm16e6UG/cojye4ZqheV3QsohrAwzrGpdYdEuK6C22RTStrC5aEDE8BEiMPAgYeKN0/AcxR/GY5sMt5S8HgCinaMloxYrBA/7AAcTXuNfhsuYwtIABQDL91oNXOZATrCoVoG8FqgPVUbhX5mo94ElcQ2+RN9GjGMGUZ0kJ1dOnLEqAg2iflJ5Jm3ICoV+i7BWo6VdPWsMF1i4I18ML1F3P4zoqf70GGQ3F7rSSSppEfD6nfN0MQLtuA9Srbi5zxxT6YnfTs3h6tlHQtXDXHCXLdZIJEJdiHbOhtBuYQs5t4E9zv8y2A5ZsvmrAS4f/BmSle7fd5/6HNM1sSVA8iQttlGnQVyKy3+Kc84qfF9dWCui2z5JNoVoGuOCYB+u+Ugm0BExRQRLvA/R5RNJBWphMtbgTRine9FqVzsVxHd6i4NdnH/+tb33rW/804AUx1yDc5sqa1pnzxOzZy+/d6ZfQ5B5zA7DFvODSejRaCsPZEK2v0UJfqHI8Ogh6XpY2qsHFCAECJjWwmLyTC9OIi9vGpTbSxh0SuknJPRMimtAYEZQst0YuAw6U47HRjNxsoCkrUeZeKoocYS8gKTRNNgWUNQNAj+kAloydoaHnnDqE2XrVamPfFCcjqwagvrUNu9xe7MxqDNwW8MPgtvW5Lpvi2GsEigIV2Mr4UK4HVq10vIwIGLloNQOGu/tBwc5+//qQkTUsGAXAg2XTmLecOqv1wmqd+dpDL1V3b7i0vewSzMFIDZsXC8fW/kEGwGthrbMDCYAexxU1iJbSBMqZAjwK20DJq6fhEmivDqdqBa6TLsa1A9TILTxfZjr3odbLjxWBvg1MSM8IqzzsFKI5IaD3zd5F7mtNyGZT3/S6ZM3vx2toIbzs25yIIGN9xi1SORUqD8OSZX9bjTcQzcKxN5dddx12v2gG68UgRKItWNMFKRtzAScvE0Kpxn/gC0v+1re+9a1/GvA6TkxpngB9+Knbkjtau+MYlWKlBRpswz/TGiJIFvd52bbo7Qwlhg04dDvNpfKUmpOrZZOb29HvzvbUKlMc8HK6guFKCNNH0AqbkokJxVACEJuHS/FZpOFsqhqi484ktAAjHLqGEZkoQ+R7kfDilvrzAp4PEFxcihM48EUvYho11ZpxAUWlQczwEON73anuD+EivSl/6BNOOUbdycZSEEJKabv6Z0bc+M4yZSJck6jGGQlp6cByJc7hxXHt6GOGzshTs3APZXTNdYJ74g3IlKyEHu43zotwdziOSaG4oSaIWEKzXXpDuz9KrgUAA/YQCuq0wYL9/aoBttK8ENebFvWMpoNTPCl3pEw/UavGywdPTn3jdjNmw4MIXWitExq/jujZb9V6zmzEWb9k+Tj9s2zDjfiQ1B1HGynn/sOcznmPo18IQcIrvASWc+11xEmfz4EEVSPzTKe854piAsfx5LnPNw3I7ubQ3Cu5o7yqJb8PwdtF7hPPn/zxhSV/61vf+tY/F3hpkeBTpNaGHFBACwQW570H5JjmI6yDj+06jj5pEbcoDQKiaakodSkdWj5ZWfZgQ3dAj05FNQ8nmPJofqgPTQlKpriJaXHErfEpNC8yKJp0YwXeiU1rZVTGcVwaAUSBTsEeFNqfoxSC7nh9us5YbAvILsaq7fHBpo/2nAcxzaK7U4JDfz/yc4Z2ogsMA5TT6T8rrTUDts9xjWOTZhaXvhe5ausEgVUvSiz/KGBMEqToEnraoBbCnSxLizkIyYyz2R29Bf8DbJMpt52GIK0MZ2UUkDEgcECg07NDbS1xFFV4iuU4ooLqKq+X4Eamw3M3B2MAACAASURBVJeQK3qiBJAWKS0GPMex1LLHEO+TgKTL5MrMNkmLl+sGZkLD/HmIGcSbCC35yDYJCoqhshVZnjWgeyxDC5XXtHrYK0LiHi49M+JEzycTZs0vrDF9c9HtnaTL8bRvnRo0+UOb5sL1dYaRZE/C0nRxoXPsS/Kzo+EWjTF942GKAlg0CDGZDE7hlKuafoymUU2ZYJmm8vXj/xlqfOtb3/rWPxt4SYHH1GGEFuk4WGkHMTvNOIXNcc+SrK7D0T9ByojpGRPAaJdVmojqupgRXlaQIUulDlBmub1yaYBryfetQ8kTPQC80LZ6JmvcGJFh2L3DvjfKQ3+1hU6WBe528c0bGqqTG2gtC44HMkSP09k75iN4aU3nczMgF7XVzd0sgoPuidDKeJ+W2AHOKAk43cHuGw7DCe1+z5ELRhjqzpWcU8m3z9c2l0xbvuzAYxZA5uISRSAjB24FoIy5yjahKJEUaczCdrAFSaf5HwQgKe7AnVJjhhEP7hXbbINqFIEV5NZm41+hh9HrW+829ATu6kTTUg+1UBx3K/9KzZfen/C7hQne1BhIdT4CmGlGGuyYDmDVafl1XNaMQTZPTgNncY2kqz8FN3BMoHy/m/cEl24J30Kk4cfUGQvcI9t0v4wOC8FsN/V0MWikqf0Dls7OFp5coqsbmXh5bEcctTUQ+nZKN9kaudPaFTBX4O3YVIUNvu/Xf/n12cd/61vf+tY/HXhBd+Ors33cz0zgXdf0gsLz78ejhCwjaTi0WivtcXWaVuHtgDTwOhOlqs7XUjt31VpcnVl37i+NUbUE0RFlukvz2CZzNJ878kimVxR3wTtBasWHFtnHOZKW+aPuj/QsIqPGPTleN+9sPkxJlbFxuBcqdKWaDohe75pypJWxOYK0IwD2MVQ7lcUUAmRGylhh3/MFRL5X+oFt2oSpmUmarF+cFZEJWj1hoBa8uWJUaPoZWjIskHGYXlCumdaBYfc1D1hAM//AW6c9Ox4XPfX5vKYctSU8R5l3rnN1+6S6D2ZZjmVysIS6bsUiENdxRr1h0cU8r036yUDQjcsz0+7eE9q8Nl3xlokZJeR1od6ReL8G3GmTkUiAGqYsi5GGTWQBs9mnNoOM9g3rUQAvEc/qrMn5HfESXD2i2ywDGqaJpOrYxDbdG20bLE7jlLh8X/LZmPva1tmICT4jU8w0geB1YsQSrF1K+TXuI0a2PDzBfmySPVlzXZiRozPvj/27f/nCkr/1rW99658PvLgUcrgufpgOVNbS7kkRpIg5roVA0pf6CcgKCkZkPKGcKuOufwJWWLdwvxoRobwp8Gire3UJfqzRKX4E7GKKlktUC8UFplu6UzDRGd3KhFyF8wTiONEPR2lx2NM3iqCaVEDa0720WYSC2eX44jnoWoRSrdjVxc1E2ComgD3/R7EdepfrpCcc1sWjovUIQPR1sRp2tI18ysolwHXLQNLa+YU+ZW5rVUuBz+FXwTjvW9t5WjRo35/TlyFzrUsoa6hREfOazXt96pNMin6lnSMHrXYY7Gguk34p1jzUWq3rpCrtTWeg8KaVOk0CIGauSTVkhDojgW5FjkQWv7BidV539IYBOHB9HwKYRb1579QEuA4Phti2fyzzCphMgd738oKMyOKcdXnzBnuunUdXKEhknGOWxCVKg6XZEsZXWECm3aNK2bQGkE/YF5ak6deumZKZ1yzB43R6LYZT5rtxDnKvgOSiJXjmSH/z6xbBkIA/Sw3/D1fDn5/966+qD3d961vf+ta/AHjpxABqXyyOeCXGEdqlTVF6Cqv9odw0P5ARjgvvZCovTYN8Q4P18wCL7KfwA29LBEoOlBS3Zk0vWoywKG93K5i74hDdqDPhNVGYRJsGpzUCoVT/QGbTFZXJSWjbwmv7bkKre9hc52FOc6ohAqZ5h/SfG8jI97MJQm3mcFJaYwIym8iUUPS21YYw1zAE056dWzFqhXpOTSZ1tqeBmv+FYRHNWnLQJIZBp6tY6FLYpgJwahVDEDMClDc2pYe93VMEr9kK+ZkZAVZhpf92XswNTu/ZYzBCBfR9cu61SNWDwb6XF62bviiofMM8gVMraq4vEt6AqfPri8QjFNqMxz1CRyOgpkvl6u5YFcxU1CR3Q66PhbMn+jfXkZVNjgJStZue2c6n9g+dP3iaQLK53b3x0jg5Eb5e6zBG+9zLbb6dTYp+DlGaaApSL0uWCwlv6E853SAzQD5aKzZfEt0dHqB/mhcaBeFuqbhTR44W6HLDxXVJc2+MzLC4h+w+f370F6r++DiG3/rWt771rwFedzp0aIPojjW2MjfdxU4oLqdh8nALFEc949lXT2z0CUfpmuNmwKibF2SKBDOAUCHyAUBIgEAxnWDbNHdmDC91kmYHTy8e7/PwecAes5Gq5PV5IXkF5HLEZHKl+jaNDb11l4nk2B19KwJrFNBa+4Gu0al4MB9QygcIHRpkFuoU3ck9ZzGpuNcXNdwWw1ChQW12mBWUZyEG61wbBg9MqMHNOlvisOBeZeo/1CELjOY0scju+HA7nG5yGTCcx84+ZBZi5uEiVDF16GQ2PV7QweLUdnWDXGvn+B5pcTG/EKlBwGGoEC84rMPTqONaz0d47aKd03s7J2ZuYAfbJ/q78ubo6Z+VUZwnCC/mkdXvlzER+vYwy3Aszj7aUEm65InbqGhycKEDp0fKDd3OQHYkuPPrgZUxH2+Ko4oMuZwVZebeMjSN5l6/p06gyiSTnuoRoM5cP2Bh8OOqGwnfjuIO5X6EFjMo0ZSxpCqW4YTccW5jBHyZEycfruaUjMMM5kfb9cGub33rW9/6FwEvCjXQChlxaIC6Z8Flz933xNUeXBDHpStXYXMt6MtIGjydUIysU14Kmf5ea1MYigsFSSiMDBUNtUzwpxOQk+2lGTn9IE+RPpMINeqwM5nii0PZKZRPx/vE2gya4O0ycwkehh3vaVrfDpM2WRN0rAGoCI0a/V3ERMBBpNp/I7r/iPHolm07bbRpde+qGK+pATIoFaMwLF3taWzGUcjb5EQK+PuizDtGAXXgkij+6VCxlNaU3esEi2eidBoTwHxlLZYddoX9NVgabDsq5EqdHWeNzg2SBrS8skjZFzzeS/SPeU3UAsjzAPfEEmtHBGZqkHaK5u456IpoO31wuqeoQY2OjiERE1gCfCVvr9QsY0nU24A0dCJn0zOfvKUj4v1OyBBfdmaWAQq512SSzjHaxepAqlfNCcJePD8aRDC0uGqgI6CLpr3y161wHO0LleV6rVdScu3e9PCXs8/OOS1D0sKXxlOaazABIA0AcjHZOJvtmaT95fn/b33rW9/61r8IeI0KmlKwlVNyAM5H/QEMoLn4uRysaTEdwwR78Ca15D5YL5iTDqvkY/rD+Sks6MmnMB8NuqZCTSzE3ZCnUBJ6iuQre5zU49T4kzeG0HItzotoWsilyMEd0CAOcTxGHWqj/2jQkE54JiLvYE0c0wJkPhcrcHfrGw6Fp2p8B8K7ppRzqjYbKtpPPQylsBvFv9rbV7XZy3CM7Klr1d4J9hqftSAnq+6s2IJr1+61iQVJLBO+S7MbxEKuYai0HKq0WRD78jns24OfVOuhfhDM67/PfF//0kln65umA2PZ5yJffOcwxxUY8dqHxsc2P9HrhjV1Wzo12I5nuEMCnCo6ocWdxtOwK0dYllPt5DeryfJNFbQJv/4cJVwbgSE6kL33h2ICmH0BmtsnsRhmSvEGcbTAl0RzZJ5dNMYMvbXeiqYf5aUKD62Y8oSnj2gzqCOjyoC/6BuRGzb8GTJ+1y4avmo3OcD58llVT6iHpPAyxaXYCC2ZZ4PD3w9C5CYieuzh3Pn892cf/61vfetb/3LgJflc1bbShBcKHtBbpeU7NVyX7Wh4AVU8KGdeUcmj5vkveXBTIOCdpAH2wGkw0uCOonlyt67HaUothVUML2CM4Tp1IYvovW5gNOoCHLx0n09RqVK6oz/z0Ex5aALqqC84gLMF2szJy4ACo8MtRRCj4Q+WTQS0Y+vN4G3MpGcqbPe1trhOcHUNMzYyUZuTzOqdFUBKqEEYg0NYh7iBGFtnlwOYe0i9bT2mBRU6901PxgkWx7cKxuW9YqlqtrKJT95D43tQ7yysIb8Mx1ArQSHHYNjb11qQQkKBYQYjXPKaZMJsZh6/B7Te4ed17CvUnDbmVcXQOi7g8b4yrLyVY9Ubmkdw7Fog/+yTJtuNDrxQN2VP7NaMHV/PrHLD1v7eOrlq3SKhDYXcl0Xvda5H5txoTmH12u0z63kDqiOtpHmaLz9yxGv7ybBI5wwY0BBifWnbE+y5x+gqzf0D8TmwtCIYmWd2P2yj9Xt+MCjTZaBf2AtG7Y1dBtmT6f3yL7++sORvfetb3/o3AC80ZQRrhdzd8lMEUmN9Hs2DoBhCQkmvUQW11jWdE0oNB7pbh8y2ghfEeIrmS7WDW01DCoQLnK4WoMz1uRRcMgYc7MLuBg5bRxXx5lSv5uc/OYT87t4utu70guhEXkKoPKubGP2179SwOtjZpo0Bqi79saYGxGCHHIvs4C5DnGvLDS12kCYc6UAmjpRWCdO6/l00cimwtevM4kAlLunflHHbzMmy7uJYca22W0PovXUu0FXNJvxP7zGmXDPT2DEa4mh/NwvDfVu809sEXayXWtG66pBQ6r5v34Zg5+KD/UCM8Pj7TYwLKLvW+xvApbNp7/dWHWdSadN8Va8DRN7V4rnjR7fsHqNyyLgbctxpu2R86GQXa9yBu6kc9sJw6tTmWFy8iAy0G8ehrIFpzVJr1p0REXziqj/bDqpKc55GKwhm4ThXV5uIeS9ngrB9g7iQXDa4gMWctGNOvxMcBppS0xfYhl4xTZ2dpXMNYjSDMPCaHui/ftOub33rW9/61wMvSIBsh6mKUgPJvJBC6nabVfvDh43Sjns/lvW4z4t2+9N8mbZUnw5QOtHyB617ZUgQstEfvXylcNwvtZBp4u2BvvZ34hh2/l7tla+BCOlgQ6oFaN5ZaQc5HRU5AA3FPMONOOrqB4wil8nOZiwiwOhO7NwVUJ/6VmqF/f9eEpedB6W7cLiUqdEFq0LTr4neZg+/OPfVCmiiVCfL5wAmu/HiMAqkpsQFAMqpWnWFnwUpZKTCCCbCNY4RKtrLlG1jPJJiqqH0NGShl+AApvGkFqAhfbImhQIC2izDGipOd+zzSpmYuqNcDQt+xgQBY9SlU8xFYflc32e6S3OPc1gETnTnMU+0jejO5zHvHKM4n+ZSNJO2IpnCgU3Xyd9FOmuotR8LjvvavnNcTN7MwoCPHl3wXEN2M3k497gPapud1zAvSs1VDbfXRFSM+6Ec8q4mKBi/W3SDo7XBEbDTTZV4XSBr1bluv6aGLZjnA/k8QLSPKiI7/K/++ge+sORvfetb3/p3AK/pbNzVDcjQiVMCiuWBo0HKmo9VzXWj6p4uSFHDjS48qSJ0o8j//J2aP+Fy9hHFmBRo7HwqRlDnpSYiTCZWUZJM8BjiadC6mtbDPLRH1XYNRz7cfK77GCejoyvm4gdoJqiJgOUGwmXODYDalrMpWAxNEwOGnnOpAMmmRg5QMwXoTETNdvm6UmI3SFDxFRn21KLHmc4A1tQ+10gGxFoBuRUsBtnr6vq2nKdRdJW4T0ZBqPcDRt7rMj4syDEXWi5mFYgBuumRAuXXOjZAh+n8N2iVqZYiwsgkynyV2mDqc8oovWrtzZF9pDRjNyRQVOifkeqDABiiHFMjTgkgN4QACKjYgoPLIg/GNcNIAc5jMvnKQTacVN2Rx6XuHKMRAMtkZF75IqZNTyTpcQlY1um6ZwJuzp0jp80cLvFy8GtMrXyCZs5OwZiQRkuExlNphuh2AED7LBB8RnojCTEKhtIt5yVme6cxUUkDixtleYJv9LMMFU2pn4bgL9Q37frWt771rX8X8FL6nz7WbUIEZRXJ1OHgD5z8FNUK1LVtvlkyIZpI10GzZJbJhrqynUBi7UtewEiKXXYrqCEPInvgHtc+xlQgzK0g3URcLQZletWFDW+hzWuJb0AO6jJWpWJqaPjzcXVEgCkFtFQ5AkbPm+SsV4AtOqgnLFpNceo9rJ6P68ac4kRDlHQ9hJmCBkHr5VALnGs5isYO6DEInYv+XvSr+eJAabQfd0UJDATLLRsTugRMNYFDFpEp8rcpiLwvrfh2xNTgMLQu0xnfrtu+Go9JzONWigYX0wCFhsTSTKDGpUQ7Z8yTfjV/aeODcQ2oNvGWyGBrM7HxG8PtBZZQ18cKqAW7Ci0P5ZTX0acYABf0qcj1i8HvqIZsbZF3u67xkNuPY17HDDgWTajbJNHsw5iSGbg5hkNwD8sLAblR2/oatN2b2YiTA725gUachzuDphNgU7a7qaVHIgLhE0DqcyHCVahNP02pHl2GoJ1GkwTRqmNpiDyCHi33AbF0M7RB8jwP4fsf6gd0fbDrW9/61rf+TcCrO2EYdELNmME6gRIjjWiJ3gLyCsMlvJRHF9F6MGqnO/3atQSnFs01ZyRCccSwDobRouhm8mbZDJMWdFaVTjAYRmDHhc0KYcssgwFKWNhya06uER7FvATtEnhojO3ocUxFYPQlmPBNwpaXbjPFibLghislUNcYcauDyBSfRxbx/csupOGTVBkdgiq4nyCuhM4pcbJTa2YghIP6h1p0GFJRM6cjUVzdOpDR5464BEcO9BpvAE0JJ8/7T5oiqxcFx6yx1onghkvSoS1cR11LI2YJpOkKtQCHTVDKnQNrK3bFOiKK2V2mpsHokEZCTVMPVmTq0VxFrdYNaaaZVOq+mZZzWJz4MIFmTgu326mDzmngx1I5bLIfNfndPyj3gu+FChBSAwWJNQhD2v0asjfO5gKNKp2/71rSOAiIHEmb3MU1rSCX0SzRHMTtcyMVV/DnXewpdg4EcWqURsZFDBAZdvR9idEMQto1iv45uGQSKovjeas/gM/J8Fvf+ta3/p3Aq7tsNJOJUzSieWquRwK9oB1PFlhhQf07TKXOLTyE6qFap55aSb8U0v2z4kK0KQeEwcNwjaCD0JZpg7naWrvlHLiTtyqdEDLsxDBa3tfkAvo7EM3JU+AI1QsCMqfvCR8dXf+7U6TU3F3MQ7TAZA0tjVHVolOMCtR2JwaMjnLqOIIil58hi8hSIf46Iunso+hNz1yq8oBcoVRCo1oRTo6VuhihUi2B4ofG2eeKt6De3PRMJzUof57ro1YrWADCXvyWnX9s76+NEobro4KOrLNZQh+LYO5a6+oIDl5jtsrmQkm9swaOnOHVvAM1am/UkrsNf137fvWuhzv3EVX72FNcLOf5uJre/Y7Uw2inre911Nbi6M+MxJ69ByT1ON0tq2YsRNxh26QWjpOHEWHn3QUNUjz5J0Wa0qjzKSlsX5eZaJroVGtXFawMqejZTuDtpRE2LbmBLM/fQozU53O0xLl1d4jJgGPTVneogoCnJcVcwrZveDKRh7uqqv72xxeW/K1vfetb/1bg5Y33h3Z3i4Fol4VV17E5P93rzBPik/3DxS2LJXQNCsjjMaaAcOe7C45D3YM6pjHo/l7wa3ZYT9d+Xh8hMMDiTNVFmpp7KA2NZlKRj1Uu3ncIQGIi/wqTxJqTuDpgFBjhss2ExDUN0QmKutyZtuY55jCtgwQwUzvjPbVsagvsu+bxUOBsxc6mlRK3Si13EJWzNn/fTt3Nd0sl+6UCvSIRKXpm0G/m9ygYoHcYtLq8ekOlZnL8E2FrLdcgpzHJ8PcYjY3dCTP/kF4xNgmPCZx9MqKfCEPIMicPTb2Tpg79Hkkwl0UqoRNYRoC3fBa6u9wWmm2T7SxoDWjVpQL3OEwmQnoDyzUCQYutl6XFNixM0LsPr3RiaNNsCtJS59dmgXkH9rU2jC5Cp+UeoIFvdIp9dK93kt6TI9MEW9MinhXIrLZ+Nt34gMopEuYmEhvCDFA20XDNdEjZByUYmZwA344Ra811Q04qrVUlU/UQ0qkx/zT8Ca0rFMD/vMZff6H++MKSv/Wtb33r3wu8WDHNEm4KgeG+jZuNdSzKO5wVxu2ndaOZ2Ts8Uyz2hIDtEka0cQRKQoqrQdMPcCqbFplJOGH9fu0Qg9Kd1ABZzs7u1a6xJx3FmABdKkwbJ5BuhY81n0c653DTjc7UMuZ+W62L1X8MrS6gAYTWeLN05LiiCyua7XoXLnbco4jZbOBVqA4JBE7zFiusNwDlDeUqsTk3N0XUMDObtVgaXetkFfE+EwRmFtbmJtgFmYelummDTtqiC48arolrJhjeuuYyubOPFxSkLUTarrAGSqrzHPllL3o26nk+VOLVlELOhk1BpLjkPrWoatdQL/oZltwlE8oy51U7JglmUS/gDNU0vYp/555vd3WjfYc6HTSaMUEV5NNwUJURzd0Qo+pHKfAQ/OGn1w4Cwnb95ujpsUHt+WgJ+S10buqcUNu9zuHyZ02SO02u3QvnAlvKBMoQt59e2QRZJTrlMtAFo007M6RnerSmi+00eb8y3GwByQjz67Bdg7esQ6fkG9+A/t+/UPW3L7TrW9/61rf+/cDrGDrwZnLxmkNor4/mPKe2x/RMqpdng9WqJ+tnMTowZ2KiVmMF0ukbxgn0B21TbWgaLbdfP5MwOrvO6IDeRQTmg/VQV0DG5MOLOKRvOXrKd80zKFq1sL+jFh+M7CCKi+KhzkDIcmoeIg9o1btDwo2tqypVG8HaRyhaRMl7atlA2MRScUYFnTKnHMHvictMBPnnWOiFJy6RWuCwqrhiqacYTboX+9oPBVW5CQID7Lhn9ACHK31oKXGjML/yTLHH3/QrJyagGBlFqgWxycJ8T4ypC5aCEaFHCcofErxKs0JJqef7sK37rWrWPYk5fQowiqnVusb9pGT0uo7PnVqVZo3aLczbOEMdVLv5kURbpyqO24VtGJMR3nX26qpBPWVOkiGzG+Xa/YYCx0RJtpF3GL1RDo8xkBwrqqV/xiqknvVlTrukC/qkd6Z9uB2FBtInBIM0sJLfatdjN5Cg9GfDmHi/p+Wl/Rwrz5zWzBN/zxJMJbeBGz8hgifOp/nrr88+/lvf+ta3/hTAyx/MrmZpZ2ZK81mcrS5lj8bwYDTrvcMptBb5i9bFqPi5hlmH1osWjPlQFZ3+zg77VROA8ujPn98TVzEJhzb7cZ7JW2Qkb8/qcnqT5m0xgJ25dCmVZXH/skmdUtkGWJJuqoImuHTL2Cy3QOUOkO6EMSuYNIjOMxZ1DsJowZr1ZlVnRZa6V3qFCMlEE2CKksBYBTPTKW2bNki6s4ARLeJdFAMLpwpe3SBpRSG50ZKwTDDyQ1LdI+F/WJPqaUYtCyiG6NRWR/9R/HLVnTGKz5Dc9CT0fiWZQlHAyCLeunRoyp40JnIRtF1BO9bdBG4wAdkIxm0d9OcC1+uc8CnJ4PAFet68Quxcg0YZ7v0jct4wr+l+mW1iGVlyL3F4OJtFXMsWbKw6UdN8TYv+cW1iyVsbOVQvqWUBZmANu4YiwAaTw8+S2UqRJp9es+ScHNK1ghO0vtBB9WfpEDOwc7gi0WIyOoibZlzzC6y/fajrW9/61rf+JMALFbHCAYgqQiTpGTka43Q77+ipy8LGcrc+IiTJEgNJeqeYNQJBebNnaECEMaHw7KMSep0XKpeoJB1wZhbNmEg0RQXavZdpCaTQ6VrK27Q3NDRd0lCT13+mdbcAoGnZtLAgmy5Jui7m0iFVznfpTZTpZHe31xYuFKx28bzSzAJEUIxHrKCL7GfSu/f99kqRo2hmxF8wC26IVxsXiplMKw6wU5t3cxLY3PcGV01zgLQNEUU5In+IUczGa1PvwcFR49VJSttD6HndkEAC2ao7bTHlE7EOQObAbnHoe6PaJirB4sufZjeAXwf0zciS1xb3xNNEueHLfCZEiBy78ZG1UMcFvNtgYzIAIqYafItq871rbDhTd9k3SW2CwTYikvy7Abq2lsmlT1Ns8zno5OP+WuIXiIEempHAPMobqnq51fg2f/RxupKmdbdpDNXJ3pT2HLlbYxAROVF8meryRjPcazkOODEOhDI15/cSfW33os7kDtb8+Nsfv+qTdn3rW9/61p8FeEVnETlBsfYgrXDEU6ygVGz8PODOQ4nLkwi0bmK22492yyhCmM/gfjfri/pDkLTQ1tTAIIJBg4sXZgeHDqiFCW4OVbNF1NK+fGqSTmA5AahD9Zs0OM/kUloXIg+Ht7C0jrKALKSIHbAIUO2qumpFtH81qx/LYAp6j2XbyjQCAnAGle3iEViXngZYIQADUcrTDzaV/ri097frQULLenDQVKvpTFY+faD4EWohm8UyVX9WlvBqDm458cMyDSBXPBO3u4ZJlU1yqFbWfAkxruH6R4zI4Z4KYU7C1D3yUJ05Kuycfi4tE8n/QqVjZeZr8QIIDhtGyltyTO9OQ6iNUlBbzhTjHsO9vvUc4Gpk9R7dpGa3CaWwAQMmxfWcGjLGZEunfDXjAuRwnziFnUKNKW0ru2Bl229gdcCnRmnE3Lve0TsVUxmLwPYI+N4FwpogsK2Bct1kfwA1soyPQyUR4ZD53IT6F5l20u9/vzqGYXCYZTR9npZ9qQfvL7++sORvfetb3/pTAS9z+TrdW9V9HToLO+eJ4Rq4WRRbwX9MNESwTzM4Pg9vBWQwV6t2EvOeOqWiU6YXsjV5a+GgaQnV0Z5doLrUX6MLoks7hJvH5lpo+i8dDWYJoTlT6GOgDWZSp3+i/eKSBwXtZKOF8tcJsqsSS026AIx3igYx8OANqcbSgo6iKbKfepCXDoFSFKoW7634olIzj25uQGcHfKegB63zrK5h5Xi6tRzROEiSovk0sgZ9UD8b2Me8NUM10akWe6vTG8eALR0VLewAHCzN7fgiXyxA/gzEniAMLTjsBk2ZT2Hft/D37mEiBMS9mIxozAITo/n4JcO0oRbr8HHqnQ2pI6BmSxklzC7F9cj22eJtMFzQe8DpwgAAIABJREFUpyA+svbsuObU2zeE93OKZLzJ9CoQnjmcGg0WY98EU4u3fAiqKQicVlrSpLIojaRghuMg8omjzyDM0GUz8aHte94UEuFfBmFgidK4wFI0zyPwuTnm7vY4HUJ9qOdQb8QbSAMPy1Zs064vLPlb3/rWt/5cwAsyyYKMhiAPdxXxUnkdyU/D7G5aQGkFgqBoiYL4Tgtj5tVM4GmPUowS4LWhFawlrn2wQsIpkf1QrjUo+jwsm+bRP2CdbTo2sGJPaEr3vcUcQ2c2ZIcksxAjqgkQj/7iAAWodblo15oydwpb3CkDpLBm1HXIIo0JbXCLHIp74taAR1DMFCio7wjfuvhwyJ4gZExq7+W5tAcYovjQK9pUpCT+IAC2akDeFF2nq85jogINIFdMHnRNFdDzJReLEakglv60ANjwRkur9isTkcaITla2IeErDawpxav9ipqMaAj5za8LPdHEgdda/KpctJGie5Od4jgK683K7e1GyHY6uXqyX1yGMjk9WUsKOHgpwztHmzL6B5HtJ2v03KPJbIfA98vUHsUXpE29xWQpbjKMTlKJsYYCYc1YnGovZm/FMgj5brJhNELNK4OM+SOk3fCMOn1iGKGMXtKZpoILtVLeB1gdbS2fUAC/mNaHE3ANx9ZuWKrTZn+Pv/76wpK/9a1vfetPB7xqK6AEPF3AxC76EPFehw7V1utlUoLDk3efqGMnD3PxK+sM8qEzKqbjlYAQ0zwA+gDLFNfLoKN1NiF0LbVs7npEufTxwAaW4qq/+2ZyoNqnAyo9Mg3THOvWR4jSXumctDIC4XLo1TaHRkeLwi7knpIEYqvMGpoutcyHHYClqsqqcojhN1qcjQ778we4S+YXOdJoyzNzFu7crV2wIDl/n54+IX4dI6KAou+TUm92tasDzDO7iVVWQC7DOql7Qwd1C8Z4X8r5v0xbmatxfn8qJRmwG141dE3Xc+1Oy4QQ1urznGAz11CgJg6mR+tCLlOdW/uH06fU5/2dHTojbLuPAQlt2nbiFiDUZPlWrBh9UEw4Ilh4MV4AYpqCcJFcEp6nDIyR4wVpdtWSehB5VtRoDPhel2PF59rggh8GfMcEuQaxIOHU+QrR2TG3QdnkoM0P/c4VwfXl8QaIL6COm6DGrxxAPYV2XAO+lXZJhcFiFhTAVqZ+bRoyDX1+VdV/fPbx3/rWt7715wVeIG7Y6OloEmVBuEmFSIMJynTrGHFogPL957GvJr2bLkVva+UpwzFoiFUErtalprQteQsaSJil+k7QUUpJTwGvQYVS/8Q5BIO+oqgTog2SkQ/dp2PY1IsgiuiZUP/9ULYpTJOpUUxsggNptJ9TCIPy2Th9JDQYVjU0hBfsO6ypevvkywgG3Cy7VQvlVubkS7YQIN17xncINHCpo2znRQWFtwBNu0RLxBv5YRKzW9w8n1Fx7ZYYc5zPa6PL94OLNADxUvbN18LRgnz21PuJe9y1fdeLmnT30Ajt5TATYZg8yOdF3hIKPOUmRNDO0uSx7K38AJgxDLyxpGVyus4FWBrmgi/Nn597JfadnIoIMp5kt2OewvWzJnA9WXLYmh/5mavDzotD4eTnT9GC7Zw1MgGRmjm55nPomKboZDQlll3BbOMHNxeLUUk2NzhD1t9aANrE0xwvRBYmIU2GyYM/xHX9KxxAJ8QQs/e31k2tuWx/+4X6cNe3vvWtb/0JgdfVHimPHb6TExvvpSQvihdE3SLpmALcEF237L5smtM5hBRuwLSkRtM6rtj7oUSRrivqTvopSja3vEXhEsXwpSBKPhDVolwnVaXgigIqvVi7eWmgqwEoJKVoeTeTkB7+eprw4PP/rZG6gaChj+nOfDTMb/Zrfy5lPIFp1M0qS3rTc8zIFosaLesPLMXcxVUMPLuFEUd5hK3WpWdbHZMUckzVnEqmIj7lnc6YYj3HVmeB8j4wLT7KnQuzpMygXRATLEUD5F7zjMCsOB+WbWX2aWpOwfw0bmaDDD8+zQ+MngZqMQUJ/ZiX3Z410EY0DAClto+IkNtw3ENeNlwmJt6lSF1PNhu8EVDzfhPXP5tV0gOXLZtdaJF3nxtpc+3+CKFUe8QFbE/ogfeOSqlODpTrxkhw9QL6Zd+TsHlEvtuwjF/MUgcAGqxTZs+jrBcjAfOQQ2WmjJVz55IsLc5GBderZIBFnXgBboj03vBD0AnskvZjnEF+0UT4BX5hyd/61re+9WcFXngCfzsPSeh/5Zob615HZouGhF6HvGEBrXoG9ZyTziohlsklUUpNHWqDiea2mYmbWtnLBOMGLxuow3UBNMqNmhue6QGjJUx/MHeIbUnx2/S/jTJ2qDi4YJZVQvFkZpfdz9zugkYnYmdjkSLepyehQUKrqY6P1Mye85KoEftkZnDTTNt0Kos2rSJ3isF1Yjam1f0LIbjnqMPkj8U4RkOVy0GnApE0DbyoFJ7NZhbRWiOa9fwpniGB0rA8I74VoKCB4XRCzILQyWOI4GZUpXudTl1j3GJT7jUOYAKYO2FWh0zLyA4QZfpCf9EzYd4MA6jXpSEGd4PTpscMpK6BNlA5reXItzp0Y0jennQtxjGCXLKEXu2Q/KVoTAVYhcQX+E4y3R4ZDRakDtH0u8850D0S2nBQt1EKVmNKah0wKshlHFWZ0q16Qcvac+2s5kWaK6F9nWnGQizYCvVqaloRWA+5kD2Db+ZnqWmMhsczlY9J373NGdjPGysi9qv7OeJ7/I8/fn1hyd/61re+9WcFXiQNXFxCnnZnoSbGbWyhaEozaYz/H510pbAdnYTmclI8z0NC5vFJFWYZOu15wCTS4KpE74S25BWjMe/Gp12UZHt5lS2mFFcygQtQiXZF7LKhqwFIFhDFXcNzuLr7ff5AXch+gFaHZ+qIABKcPLqkeKEQUcAQdXoDcfyjaeE00NWmDVWz6kEbcIAYQbUY9KcsqMJQYM0DRnSTXctCoQuZmUhMcBA19aSALaBEKYYvwblmsT+cMRFUqKcpIhO1MfRSDRBUM5KhBPIWY3DX7pIbh2nLAxLIY8nIqqMZUrtTYEKStwArnJlO7ytggk9E6R+Sr9oh/bxOkduA4p08oczEINiktY+PTI64zkqWMZmFVivNboau79fgvVbCWIaB2tOMT7eJNskRylyaf2iuoyPrfg29n8L3xGTB8eyweStSCeXSz3tKrcHi4dgMF9bZMkKEItfUClrzTab8RPvDDq2YfJqF6wtCaMbeztCIA70uOcLZ+WMf/027vvWtb33rzwu8lBNm3X6bTnVGk3bduNkDSD4O5eGvfTz1grhTIfZDF+KmhjvdqUs9s3IrDCLk0WedTVh3EFb5ooanxAWHiA4lVXQu00Kkvh3C+7/Ca95CxHJgxC66O+m4dv5QnlWSYG5+UUwtGN5XVEv4prAoPe1o/Bg6Jeu0SsBukIjkkLIyOTmd4MLSw0AMEcCkRPNBB0VVkwCnFWGbRvB+vw7NLZ8E2iBByJRR+bcGDjtorSzqNNwZ00CRA9GN78Fq2mPGBbHcyIUyDQDD0gYOBNSx1BokljtFc1TbzNasCWBT3xd8APq1t5xDSCZWAoIyAMB77/AFiLhpQsX4LIO0sUwbOKcmlVOelw86MggVQGvo83Yd6Y0VolCoPq28uSJImRUuscAAron7fvYJWOwByzVNCVjSjuTnLcJLHYvhycD3FOqkOfn4FD6OD6yJkfpE/aQ0F8p7Z0pGSFvgc/OWScwu540GckG/NizLUEOP4ZYhTY+c9E4z01B34EL9xx+fffy3vvWtb/2pgZfqGcCmEVKe9UYZfCZJbeGM0ZUddseQ14GXaq15oekErJGquiZ9cFnwb89grDbRegizGDvMRi6iajNsUOBxaVtcAI/rIThanJBwVTHBIJ9ilCIUL+ODIU322NOYH60bxDYeFiRLy8Ch+WQgCjWz0pZWfet2VIQ+BUMIYJuYgga1YsqRdudZ78S0DmHCcUAol442lQ5kTnBCR4wp3bQwYb0EjRktd4SaWgDrHH1Ax3w1qVRBNh0yH8SVqzQ4pEccw+he9Yha0KFVMtiZdEaZPAUkbYrBNRD4TKbM043eweedjPq7UlDPdajz2r4GjsvhNXyWGnkTw6ygAl8hg7oRHveY10Vfn57dhtKmFher8wDV7LYWGE2ReccsCbycpqMBfq7+ED5/6X3NwWKlQYZOnc7PEpWxdcFFdWBj5E8MHvlbntxxyR0mO9DMrvzlJAP2vrIBU3/pLUMEkkMmdNqM2LjPv/E0nUzSSszrU/H/+MKSv/Wtb33rzw+8qs40RLra9MClfgh0LtQBX1M0wWtmYXQ6eWhcilmlXwKc6mEueVJYyVMJ1I4xQ2zvFf91mIJMDu7EC/c44PrCsxjdVPHCt469exMLR78kRFSLW2TaUU/5aNOGiqnej3EB0LbYpwC9APp+ho4C0KmKmkmYmcdFmYGlrIgSEKNOZjfKiwMc14LR2kacs6Jwo7pSCGXkI05KGSuMK7L40ind0FmEW6XXbFUTwgwQxc1ZcNwPWE0Bslvu+MqTU7WJQLodQNLRGJ0HROGpBh6sDjhXc5AGs6xaHSvpoeKUIPRailYJ5jb3RJnsauD3SgvD5sSXxTaHPpPh8ILaIgdCz4cBfac7jJ49epYvo3FlLn/JHsA8sh3+Xd3YYodMZ4Ng0FA5AeUAtHb+8nvKBEteGY6jx5nWqwW5LddIwTDqrbpIJkYTPDeCw88XgdL0Tm5icWkU6rnetKb8XScojoXb5x+Do9tiIMKog7IPLY6jCeiw5AY8zbrPPv5b3/rWt/4/AF5kACyofqhBQRu7tcU5eHJoPLPoUj6OhkN5MGErRsmVOdOdngiVZFr1P4cV9w2lhdM64F31k2FjDmRZfiAmXFXXEl+NPTRI+j7KsVmZ8/6fASK6rqepV/36VGt/KbIvbTA6v3ihANWgykVB8RRU0wtDQAokG4lS1IYrxNVh6B9vurzolvf7wRr1xphEz+pubxhe4QJe+EaEUZWSYDG1NRRGnuWJ0X0bk0QJLi34+DMuRbUN3ehQSzUzHEdvLiDOG/1oq8FfRG/tgcHijAPrkGzGG3pfI+hsv5kewStopj2dWdZHzcta6JxwC3POvgjgdOdCODdqoPrv8sYWcx0NvQVy2NS6zxOM3flcwVuLI+02Lm+B3g4iO5lCeXhNteVLJAHcsd7zpLBQQ7G8SMW+pPln1e60WHLLEBrAdbScn/nStPt3GLxSQtP1enp/j9F2rZQ/87Kvt4mOEZuf0l+TAj/ZxeimA7NhUhGh0tfM3/6o+uObdn3rW9/61p8feN0uPGCCkdt/gxcXlyphgwo+eoCksKCpHdGDF5xl9s+HkkiIY2F10XfCTQEx/aDYrT8PSjWJuGYVDELHU/TQpkdnUEGhWP0I/6HgRPVBDNggx9KKMrUC14wcqkYiMoEwg3vNWeuCy62aPxoZmF6CRgX9AdCIsFc1jqQexnMsKgJYk6gDP5/aIFbB/xWIczH8iMnOEtJ1HRhRbnKCQDUwe36EPmh568Up0GokzMBkdzXMQhEdu1AL+y30WTF88WIaM3prkCLD0bBdDvvvnNXmeqQMNecyHUC4WtD2EecmLu7y4e6G6Z5Tgmbwpl1BU32BhIDW6Ol734vvZH4ytU+yB3K90USLRkZhX/OmiurdJ4l8CdOmTa38XC/UV6M6Miih3UyppD4urRvmuJwxm8kJWQn9FTFJF6OKbZCkLpBYPg1dIJVQXNgK/cwAsI1DA7jZxt7tL8xNbVIPYWZQjrJg4BibC6ujvD5cW2IFXPlaxfoDrP/xx6+vmvnWt771rf8fgBdFqAvr2G1d5dm1u0UseA0ibApg3T0uPHgrD8KfuMOAnYnTT3qKdTpOKCnEHj9snynFL6QragHN1flYFIoNEU6Pt6M5FPuXMninZdIddyt0XI3X1UKghnHBHkQcBQyqsNTrCn07UyqMOnTaA4kMGG5qiYOY6OFWk1hACOi1A8DoFNeqobruYBbQLAWSggbIuaJMFFVrxQkatQGAkY0V46yt2Z+UJwUtiOBxMTv5v+y9WbYkSY4jSngMOdXQ1W//a8X7cBMhANKiu4b+yEyRc6oywsOvXVNVUVWCxKAgG4my6L93Zqllt/ycEcxBAdXoBpu/ot/08CnqUM1EppKGxBKZYTspw1U+ITIAJn/MbwMPiOmF/LMCGXLmrJ0mDPNCpznCoNzhNinufgFjSInILitrHmm+GISKZig+ADUHdsOgC2auet6r7S4oV5NuiQMOXLdMNGn4RLed6hEpRkit55MbcsnhYqX5iFt23OlgUG71XrBoDtvamyAzvjyClinK4eIiA4zpbLNaUaI2XTsOqSkWYro3MBA06mXy++dfn338W2+99dbfDfCC5Wft4awGfJYA4puDxWMw3uJ+qv36EAVrB5SmT3J1mJs6uP7LRwKnjl8DRRdRtVO9IrySblVtR0y6i2Eb8UsdLBMppdXYXIN2LiHZOofaRIZdMsKdDfQ63dJS7R3eugPIdE4t8O+xKIWKXgtnoalYOXQqDONLGjKkNqar3MPMaZQBXG1qeWICWK5H06JynPuyK3BL7jHRyLJu/KdKa+tECIATBm8OFDa3/d0Zz9wQ4yy0MamXb/mFfmoDORvoCuHsVs2iEa6Ls5vnxCFgUvdqBpYnUM38spKQ8nGOUuLyoUC7kadbCRp0xqGdsWeM6ElXOkBgWO2fq4kbaM0/OKD7HKGbO2S60x/SSSnPhBsRgdFAGaYgcDJDUxsjr5dwx73PvgUXYFy0bL/p0jO4ipnVEG2OMYO80QJ3r8PTziCPObvXL8rsjcxy+1BszaIvBr1KPzX5ouwzfHlZEpP8TXyJxaPDr5+GN5AJatKff37Kr7/ghSW/9dZbb/09AS9/Mah2yC3XEEUQxWMcF7At04DQPEAyqrSPP2juSo8TI46r5ZKJ2NGpET4ZONS4Y4tM0V20+qp1DF3st3mFeqYxmrUUkbxNBhhedneCQBGMt+D60PeKYmF+z7MUSfoij2KHWKYzkjFW6rJ4v5NQEavtSa6N/oduSaFglnSArx1+9R6AihfCuW2yrEarXP3slunGqWs0NbW1XjphM2vqylBkp3WNqRXD1CI3s1KCpPgawaYX9ar+qHU+Y9jDMP5ggynehoQ3McZ+0KlC5noxnOUGDa5Reof7woxVmI6XYR9/HEhNCbY47jG2MIWOaRb0W7C0hZ0LeTjP653i0y6hOcrdMTG+UERrzWq7DSbJuPL6nxn1Vy5NnVb9RnVM9z9EvhNm2ELV0jczKinupFW/I7ag8zq6zzMd9FDhCviE1Y2UosvE1IYCZlxiL45L99SQYr8M6eRIaWzYs6m0qdYsiMzNgz3Ts0FHb1bYOC2p1rh7AqnpHBlj+7rvI2AYuhxKK6rqzz+effxbb7311t8V8IIZUQiQsFwgxtuuS6ejHzKSlLn+idGBmGxQNACqANPcE5tiyO+/3Hulxt2XbbtHXRcpyW8iIxu5OHnz4RJXDMof3CBcNVDZdabjAztW8mjHWhSudXprsTD1PRJMygwaBuSFrZZsniUz2TeTqKhUrgY5i3w+g9BUOsgZSPqz+BARWekEYJm8CoVHXS/bntltDZEtf6GE3bIHGLijollQEWd6NjTmoVbKesCw3M5pWzYowD+4VbtFkUM5bPIVROFOEe3jizV1lVHulBanFv1Jj3J0rC6ZDIDge83BVFuOX5YrOLGhgUs4NSz30S3ssey/czYVpCJhg19QzU0/luoMd0/BFhTA7MNSWh7hBddY7TzdVTCCiqGzEMxnkf87mxq+mbEzgp4td5yiX+UImabEJJ/3RwNzfS7JDgjznWErQi7XjfNGo8cIoLwzRTQQ8qgSny7qc23uPCyPBY/F4B+AqUzl451qCcA02RxHw+F853NNfnvTrrfeeuutvz/gNaKBDj1OFDEQ0HSmYW1yRtMvWUKX2rWfqZnZhtP04q77gLmj3fJaKTcSwNV5WpTsKRhQvBMvmJArOplT/UzjG6oFexTOUuytmaqLtRtHO7+864u2kLeQadZwf7y9/+s+qKqmBjnQGkYmXNwif4WG2IHQs/aZnDAK1XQ7vvQz96JNNRRu0KIFCdcIIA3dNbyU5gMicFtNH5a4HxbCsCF0Vqaz4eQWCejBQl+aNDFkxV/Dej8nJgZU++9jcS6kXQ8dnyLhlUw6vcBNw5yS4hVhuAPb94iLgaHxVDremHoprct2ML5oIt10g8tFUeMViPnKzVoyDVS7m67QcglchjxUTM8Dapyd77n01VhdHPq+z58HoFejzL6zooGlGPyzF2zvc5nw2CC4DY4uaEd4xVcC+wSq6QDKO/WzCZK8cNRR1p7vBsjjiaU5gJce726cFXc5thTt8x3BSgJpXhMzr0Fof0NcBzAP055/f3mg66233nrr7xB4SSMSo8P2xVcKEXBsWTjw9CBEh1X1ShGg2i9beE6STVjEqe3oFXKsVJLVo1ZkWa8a7a4LMAAGBu+wBJJRdjVsMum5OWHeRLemuFAOLTAzXNuuCYUVlceynu0KCCl8xeRk2BUP40AMp0azMKTbkyeFc4BWMjrUksuEAC05shFbfFbQ66RImuCjLBC4jUlgE83M3GIGrMIVhUp1g2cGfD6GYZbgk0QkP/JkLpVMCzYfhazQXRAn2iAPZJ56ewRg1ds3IwjKwA70PI75mp9/DkPLBs0WKUAkeo2pmgo+ec8vNgvHaQr4adDkTGHrdPQpgEUSlERqsAOGT6lNd9Ins9kghhsneDoDm+2a2yjIpvVzyiNGRXD4iEs5Q9AQk3nKGZiV4/lMQ8gmyphm4wug9caL6bau6c7ys9Y8+PmOwQKbycEvXEz/6I6m5hBLIy5OR30Nq+d4XtGiUALks9tHVf7zFAOUrcsGO5aYIjKeLUD9+RfUr89R46233nrr7w940WgsFdoChnuhFFZqmECvVs3kIYlWgHyGijkcMG0vRqpYiHTMVJKLFV1jaqdUcsU0bFc1CE1T+jLWktpF++wHFF2qYzqkM0I+1ZmRX1r0+p0hJiiV9EVYFtcpeGFhYTSRuI6jSHjejtYv6lQH3M6wlU+AOZdBQIx1i+mFRRZ6GqCdjWt3hYTRhTpY1vN7PYWoavx2UkK4Kz0ZKuzLqksr16Doj2auWusUUw2T00C4fb5OMuy8Mn0tvMi/AOEqG2vxJHTfmlS+UWm0cW5CIAO9dgpWkQHOASqWgrckJqJ/7Iu1avUklldj6EgnNX9t0Y3WNG4TEcqEUJzzOvcw+YQKbGOKrmBFJ5Fs3eUFGopcEQ/kdSKNYU6C8f99s4BfDB4SHI8QvCXfQK3048MsRywmxUrU5jLSFDVjDeeLxfW030WoafOvbkBw3Wpce1jz0BsxHvo8J97crhHLI0zy9q6qEEVO3TPi88D686/PPv6tt9566+8SeEFKLiBd3nriYwV75saYhAgzMuXaWMtLEJ67dLK5bsRVNc+d2RW81LEW1Q9b5ag6uo45boh0YGAg6RTjhyYV7obwTqtOV67D3mLcwLZPqyF9kYkOUGb1fLvd7G6wtnup40pO4qDN1+4kimEgQcumSktphkYC7GBoLSTIKEdQiyyeBkzqSw3Ob114tj4GJtij5W2rbduc/kgBiG9cz54yDW8+YkQtMMT6XIreKq6W0HayJVqBQjdV7YoGAMMSkWvRFHkFh5rBuwZe77hVgo23GytYWR5MXQ0RoUB1O2H4Hg0tUy+f0iHAqG+SC9bIrY/xCYBvYIMzmSPvd2YAahBmmd+6y4gFR42p5pmQAuHdmZb1XG6aDPjVvRDnvrb/DwcikcJl2VkVkSBuQIMJLj46N6QjvsQ/wABWXt8ZVdG9ODelGVx2Hd5dtgFvZEY6JebnX12XgulznSjPaoOCZc6Qy/Dzswd6crYYJvq/UBw11YiHS64bqv7yy7OPf+utt976uwVeqQQBzE/408BFW2BXZ06hXLjvhZPSf1Azw/JDJzl24CJaYvtCGT1DgQ+tGyyhzkRkULVO7XzVU0R1devg87xFLwD6uMHBwi3hdDXO0N6fxfkHiAFt9FER8utlmwGjC23EJIDGVEIXCVqMmT5fJOPoY3fA2AUhJLBWC/zbzMcXsZROUMBV06amK/c3riYf/c+uG9QDoxiR9Lng0r4foc0GEJasnTgnbU1d190PqC9QrkF4sew7MnrkHF3tUANBTSzwuRe1ST4SnxeYq5O3WvK9yqe7USCDrsGyb8itmoSAS9EXZgGK3eBBJwQmbxu/WBo9BgwEpgIbr7LvSdkLjAJ62UWRNTi4h2XOgRVB86VNJG20xEVZ3F50Gq1uiFjunC/sOf9dC0WPi6nMabpYKDddlBWqpph2YxwzlybZcF8cDrl7k6YHcZRGHgYo2lw1lQlcpk2DZyrCNXHKbrfbxV6D3pVIDZsPM2HUxqt1jUk1qurXH6g///pQ11tvvfXW3y/wYrirfQARKTMC+oQlpzVqq2wvES3YKx0M9WMZBVZnvzR9kOau1h1qAVEnJJlpT34mBLDuM8XRA0ZLUnc9toZEirgTpKrGFvx0Lg8dhJ/uK1URn4YR2i1mm2ZcS396t7pNSgTgjC7qsYHntREfkvYzHWPnJZ2ATkYuFSKo+V6XxenLJkIzV7rSquu6unEGQZ9g7D3rRnVo2oHfLOW7o03thCf6ZWjxKriiNmmEbd2qChAYcEymrMD0pAO9049hT31OnZtkUPKumF14VZtc0MZBLWNQDuvkN53p5Z2kMvHFBF3hrIP4c5sEKbhBF7wephsmIpgV9aVBFz1nrBbHR3LPaTIwNKdkmal17OR5XSIVVvsECHZ+ZRq9pW8viemQZtSFLFC68XTluEwAlPmuUywAB3AQN1W5hPOCo2803CiMxI0YQcaeyxYKLihtm5a85wY8tev85NnWejjRHWMPQadRF9sBl5oxmM/ZfP977kkfAAAgAElEQVQpVZ3eJSAWWqQ6vnZLzCa0/AIY//rLs49/66233vr7Bl5WqAq9RrgYWiy1dln6lpCAW+lgtjW02EOIs55S6tpYASO8FF+c8doPI4p5Ca5lOYUkxf6odkO8Fu6DEvXJApNJ3/3zkt8Ppx5BzAXOnxMVxg96PJSuNKVoo0aXtmfILQKlqKMA36MpuTUt7DxQROzUv1vtghZJzQ2oLkgSB67MUQtZSFqYMzzy1Sjk/mgWV5Tis7orjRWcLQgD2DUto7iCBa8yPvsPHSkpBjEC2GF9e+5DKjteuJuj6WECXETt7kBCfjMQ987iC8kE3v7l1HegmMHiepE1G49uunGpaFhwh07oJnWZUf0SLM+LhjcaWJn/K7TQjTMcExN5XmUm130+mdX+4lYh9pV6L3+d4gTe6bws+AwkGx5q5sMNvE/Uex0DaznPI9DK9wbNulTIfULf8ykPh/XJmHtCs+EwwKYN978FbDOyt8jNScNyIlOn7Ch4bMB4JsX58wd99n9G1OH9jwtQO//4+7OPf+utt976+wdeB+xQzR6qJ1QEJ2MMXseUdN0v5QO4wIo5ORDAAHX4o/87Bazc4GELpaR0DoVeRKVEqomC9JvpB8LICrvARDRRWqfpNAhBx1MNzwg65eylU2pihmPzne4FHQkCyiCOJ1g4LWrsYRTLrbqmx5VCKFjaOUdezsUPk2AwET0/S8WBFlzK6aWHUYw07RNmDRFgSrOVbp4bO0snRHigl91W9KPdW6AAXsszSKyBTgUzfNrMJ7QWjpBmc3js/c1aACS8Y0ETYWGG8o4qX+8j0caoJpH844LZEFBYxIuNNiSTTz/FqZYodQzkhsBLNTrtWMiKTKw0q9HrAj8aw7baOGDOjXE1oH6fr4S/fi6WGzTY846LHihGU8wgtgW8Kmirqu+W/NHAYfwOxk/7RNYBIGsmzEPJvUPPtx1fSX5kDpCW6f4Sp4DIZTuW/diA+XhkoCoDNsga1iJnDzHvHTfQSUKCSbnUjTIuPi6g7d3x10cxfOutt976+wde0EKbbbOMI/i1sUOLnF1GlZbqbU5x7H1vGDBd33EnZhD6mjobktJR7rfWxU3wkGXv3qKnOeo4iBKdj0m9vFi8LW1MzQUxHN42NguOzkFpW1pjQzRp6ZGHnpi00NqSuTx4OqrqG158DUKaGmWFrk4VM/zaKrRjQV9T4MMwVLDOd3aI5wgDtQRvVZqfIHrVtKJLGwHdQFC3OLRRyAUnQ06yGO5h2GdT9vBW6DpS0OoQFieQhaTliMWOaOt0LzQZ4EGYUw10P+CJkYUOJtBlAMXMrcUQ+5tBRgQW3ecKK4p03aqwveh7A8Pl7Rzc0DbK/YYL9KJwtmGUUBMZUB3uZkl0g0DN+o8bKP7get5/PtNlmaoDA1G6QZAnaIjTpoLZACLLxEy5awzrV8Qzw44khVJo7WoFeEX8IKVx57pGLCgx85XDOjfmhHsstz5/tpy2uEeQuBzlbb/W5GoPiWGZr3RaNSj8aqJzdMhGky27JuaOW1V//vXHs49/66233vpHAF4EPCQXnnoLq+7oBlmlpDThGJrBmvLuvTD8Wd+wKXlaVIwGMm43O5ueQ2BOOCsM9KFF3frXgYppztp1scxW33N6OKrZsm54lYKneVidWwSz3a5y3dOhTVJChcCsBFp3tBVQ5HR/U5rfZnp8J2QMcwHt2J7jK49Uy6xVfC2VypwpdRqU+jebhFTHHJQU23b6BcENahcj/g2zojMgL4ALtpGb7jbGFITQaWH0XdsLy0SpkHotd1ZLa3ZEWz0zjzYnO88jq0EPO0G/WqDnd9bMWaUaIrR3aw16L0Tb6Vgg+6a3k6JXzWd0GmMUR5m09v6lznVL7vJKQZLm+aX7IoJeyQDgOoXx78duAmTX5OtICMNwKMHA6mcjpihUwGf9AQagl9YAKyZEOz2Scd8ggBMs5A7er0mH0ADBxySFpRNDDq0hIHYeHLusWxkz91zse8VIhpErWd8QnzhMMnIWlpPVb02hy4JGIz2Mhl+q6i/PPv6tt9566x8DeKnxQm0ZOCxzQ6OalFH+e0mOEyFevWjdgXaLKa5jJe5j7HymCwr1xRYvs6sJi+Rb0EsphhFDFmwYeWAf0pU5oUGakmKRD9GqCKqzKYHYBJ9gXpdGtNbKDbKERiid7lvKCBWzq2u0OYdUflCrf1DMSLQgCGmKuPdZeQrtzof5RhZrSfO63V4pVrvH+6EEeiV5yYFJjaMW2G7EkVMlDLrdXq0O00Y1N9GMJXDQxnqL6b20+rY7Kcn8EdTtpMz9rBHtLMsrAD3wvVKcBXp6w3+c/jALSwehs1TGJlCJn5nSId7w4YJGABg6kM+RzDB5xjSAC0psnBPbywHoEzzFI0uOEiP4fMva+qNaPea03xiKK+BUpgFiMmZfABzfRqMX7V6qFbmVuXyiVvqnaYVN8yUNNzpdWbPS9KohRtHg1FO2SY2/Dxho8Q4H+UVXpg9+clz8S3kvV3ztueVifMLpPOmND87su9Kw5Z+/8y+//agn7Xrrrbfe+kcBXgN28Wq+VEsC9ouXi/PxdVRjF0DX6etmrOh0ITrxbPc/XL0Al4Lg0/2E6IOqX8zUYkTttKCcwrrBwnc6E29U5+CzJx/R2b2/+072MFq3R4MCOVfXuj9s+TEoVaIgpxJieB0c9di7ey0W2YRMzrwegwDsS4G6VFKY0+C0xZaCe+Qlcac+WVETtv0mpC93uhwVohf3UMv3MDAZ3Dmj5LG1RhrIbfxTWtGtXy6HXD19QBgccFpib7nAEBCK2Nfnv2AzxJBrE3pAFswcBAOQVDlMxUrt/OpwE3l0/OxZLmM5xHFrsX7+18iVZlAH6WvQ8wOJL2FQGKHgbsoAb9acIPFMNRdgc5wh21UdkfcWtGOZ2Pv5zMQ9efZgTjAlwLApx/B9s9mmOx7j1aMBalPyzX0P8VnT4jxvayhPUimc5zmo2jbC8q8wOjjdmLvPuj+kBqc1KW4gOGvMrqThoeBXNWrTXmPpfQj1Vc8UJrgdt+3WAml9268/ftRfHup666233vpHAl7hi3stq+t2oBfpktRBKHEtL0Q1BsIFRJQiPUM3q9z5T4NIqXU0O1olXL5/FlWbXxhvF/IWTaU2zXAThzvRkKDdckvkG/FSHiyNsIZW17W2WOY0hACv7b3ZlKOpiDZh0SDpxWIZXHQXJaYQaKAtXLcQ78Ookzt75oBh7xCPCQmsn1vqVHIoQoxNZsYDlif0uWZwmqbDIu/kM4petXzEppcRNJTlJyOAGMP5mkuOmgM/M3nYT6voDr3AA5MYqvb97Os6djcm0MMCWKhOiNma8YcBMfv5NIdIxk0uFtx6ppjAzJPKOXA3TBMEBagno2vh3nGlv2K4uCTx1nU4tEBzLNOmdNoEY2cc51f9gWme1yAAS1PD+lhYprXeDMIJBRZ+4jE5QkLkxTJQn185YcaJHUDTG4fBhzbY0qkzek1uPuG6tvLbyO4v5AtjuI+KbgvRdDy/d2tuKIVxCUtb5IkRVN+0ans+15IV9wla/9uv+MpYfOutt9566+8ReEFcDZnCgS50zksV6ikRL64seNsKXTJKLlvKi8Ib7DvcGGB5R06W8YkVwu+iqTE0rdTPlycn5euG3cro4uOGyM9ndPgy3MTg5o51kGcX/RjsM2Z5DgVLJ68LztPDKdTgb/8bBpuZOFoEuA28N4cbJLfyABfEwsuue/xZRGoBs5p9lNvZ1wBVbtzQWoyIxQ07/WMVbe6AUmhC8+FKpqKE6SqwUK0Y3fdjaw11nhRnyinc0s/AnVbkEHCgg7tR5gQ1vyiySYAJ8ign1ApBjrLaOis+wQlqlxb2+hQgHU4Sw5WOY8oW+UX6nbBfH4SLXnvo8ZoDcdE6ZsGt0/Xi4v83JhRtcXNdYRVc8hulUs05pAEQ6HfdDptxC3QmzyUfTQOi0dl+6kIr13ZEW2Bx1fxiDkMJKW89qApq+0sbnXaxTydyT/VzV6mv+DaBHR2nvtfVsVP3hlF+yZqWLowg6fksBTxG4QaTZ74fpXGY4FzeiX/6FfWnN+1666233voHA17yojric54XpxpQaH5T6KqutgIU+25YfovSndxKegrhYSFOjBDmoM7cqRcagMQLzcwNxJKxO70eJAylvBjN69AvPYtGDSVgIVdb7xrXYbBPNryepgQH3+yx1q/xAwbP+V7k39EKdm0SQ8cPtuMhzPnR6U5QR0rYCFLAC107FeG1XhMhxlLLjFIdGuEKCdXsAfHzKDdGsSmVh/vya6pSuN5tSclYDLJV47EBOvp0IU0JVDsHtxloKeOW7it0VwyBHSLfy+t9Cqi4+02ouWsM0tETCsrmiT5IjeUGKdxH3xAjzOUPfij3HulpcH7nMZWLe2JOA/3aJSNWccc1L1kfqdhDvGXgOHz+QN9X7llem5d50+bCQTTue5rWiabJVfMVZedhPF89WiAfMdQGBymaqojRwDJtHQ01389uuKM7SbRtht1gACc1nlj3X2vSIM4jmR2dPwv477ug7vMMJCI8etsrF4DaU6qqWH99hhpvvfXWW/+AwKtUw8xRf3RTUriE4DWBMD3JpdNBrJNPMebhw+1qjrabR7lrnxQmgzYWjsSqfbFu46WjtQMZSMnkOUHCAt5C6GDmEmC/nD2XuRlVKvJHiMhVXA4vtCkv/RM8TdO4yLU5OppjgMCmVmGdVq54TOpdjAJM82bUft2Kj9TQYWJOpQkSW+YXfR9pLWKnjWXdADKmZUFDQlgXgMFUmnAAX1TzhE7HYJRT/TQr2QCjS0IqRVpIcI2sKMqkQoX9fnN6ActhdKHHq5lEqMgjkGK7qXppXz4oXVBwKvei3AxJu0wgM7okEjPBopnWGOy+DRYNteisMHxzqhBjFHMRBSadGgMve8B7lduCh9U512+e3wdGZ/bJU9AgS1RLM34vQEwKcSNTrcrCqxVoMXtG0Mw72HfWppNtpEyMCF1en9B024SNYjnAFAygZf6W7kf+AXXTnUO5mregMDtA44PaWKqDx4Uiu0RO9GFEFh37xfaX337Ub88+/q233nrrHxN4ZXBt51x5XhSgAcW8lsGmBSFbl073Jlu7fzJlqijs7tSHk2aDoUHyHiJhLU0rWgmsE4MbtCmdXkp3+9b8h94W72Gie9Do0d7VbKluLY0qmMG914FQ3tRCUzvF7bVtlunjAXCdE3RMPILKJ18EYUvPOaaZdFL4tfICkK6Fq7KsuPuJxBiMdQGTmVRCO7u0J3hhvziJucYGciQBsMd5KefVCiCqEM5fy241jojJLbsCFSoVknkZ3ylc8hbf7hmK7GCVwgkmfHqU3n+M8r2W1CTYPQnR7Hz+dwE9lwrHOMcMr7hhXsOlyE7Vn1PALnUai216ZepFO0UinCjT1VCBs4/SMOzjNRuPhhTywcPVAn4KE8Vu/zOtooA0DG1nhrhXgAF+choFuHJpQCjdWSkMG5C2WyV8JZfwLYz9iwZBlirhRiDb74Zx330/lT1Xt++NOS2zv8fvb1B9dwVSB+iNo8UZNHPFClU/gBeW/NZbb731jwq8gCgMxEL+UHdOWDDFPv7kSk3gI29ZxOvlfF7Fy0hqvQyPxccyXYETjA7EyICaXcksuI5w+Yatoq19cWy074QEEuZcbZYBiJkGalHudAi1BqzeJrvErgLtNigmHBAzjp+27rz6laMz6trJp4QZWUrVIt1zB09cEhv+4dRXtU7Urk23FVGth2iJA5W5tqBvJwVx4r75BwbipDnAlEK51uqa8WMWY0wUw722rCVXe9pXnL35zVR8eNrF3/Vq9eQ9aXQcltAvixGC0NAkNw+hr7Jg3iWIDZtWRSMcFApxRNt5I0Cn1eYy2cdXCoqqhm6RcyxjAM80m+Wyn2HeAG3Z2E24BKLrNZMQb3vgOJVUjSsqNJMRjy2dDVhhz9F9wgB6igvVu1KbRPpTGtxey+2lqNHABdOJcckxvC6RTkMtbPdl09uRR6bdOjKcQh1P2n3OsG5BrW6e+QQYOkLkc/WLmyKFlnyBLOI6qgYTX55vPymGvzxHjbfeeuutf0zgRaPiefHZLuafYg2UfJYup6/hhP7Mp1DoXBZMp6pSEXW17XK1uPvqwFSgTZqTYIbCLnVzW9yfaYNq1NjHSQ2ypdrnw6c9VCczVoWlNSnah/uRFMtxDWKmy86Xz1EwcR0ZAXuZtx6sbnAvQwNx82MkxBeh9Th5Yhpo1DTQc16DFrVMUO7Uc4u0EjOIo88aZWWYPiqnKR3uMg/LERCte560JQQwH/WtdP3FA9GKvkxKEnR7J0MXBhNSgGf+V5ipaGjeZ9LazQI1E1HTDA3/hod/F5ru+Ud2ip4WbNcZE+9E0yUnFLi0WR38UKms6DDsphNzGIC02QfCrf3zjCI8/y5pmDfaYdNilgHzInfHx1qy4BY7wfss5E5zYy10Os57ICfM6oJILrpIlkcXQNgKQ//GWuxE/IYQq9eetDunt29NeOg18AUk+f7N6DG3ieTipruhIBod2RuDqTm+smT7MNo4t8OxGaHYui8tCTMmmtyeYTUG23dK/NsP1F/etOutt9566x8XeEVy6wyUjJydOuYSDGc3cA0cBaimUvLy9bDmS1QipUjonJzjlKaxVt3j3goklBkKiGNi27NL+GpSzYK6c8BfYyyYl3wH/DrNiWbCEB14po12BgHV/X4A1oZ0fbRpZBfTRBSIDIv7CzJDIXHDl/VE0L4SKeYgRvFzrcsQD21FXUkVHsA5f66DRvfwYEbgrkUwaYab21TMujsqOzfoEOotZiG+l0uu//B8oXD5W1wnO+8JbXgzMY9tmTsBFYrZaBKMIn+Lef0/LOgpYATIwp4DDLv+3qLoezgnfOq+xzDq0CaG7D8/LOzJxcPIZYs6htwL877TqIeecMEAms7DI6eiyh6xe8B2/kETZXUC72O5YbgHSANHJmDi/DDSAE5+ozkpcqXv6udr9loPK4PuHft3Rl5ktpxr0zSnMU+nNRiYge5iTpR/lGK0E0xf3yeCA+5CJnYCOtNcUd8X+tw/O/dvv/6oJ+1666233voHBl6Qqu8WqGjqmRsGwAX7qUdRQw6ZmJyJig5RAKcZnWIYohdpZ6gPGKNMLtI62aiFaLJbgARQJ1a0YGhTpNHnEdSaVY1Bqo0IIB38LIbBzobJmGRWEsuO/kJ0IqJ7uhlObBqilCXT8AFulgC1yxewpgXtPd+ffUENpb5VU1OtGMHT3wJ3bygzAnx/wOPV6H1pwzPgFrOwEizXtZa6oOi8AUYLc6Tt454zlUtyLdRWIREcgmZ6ETf0bjJ6FUsz7iDgpLzC3DSGSpWTXLbboBCzmemITW8++Hx0LTfdSBK3KdONFUqMUli/m8kFJASZZvrgeyoAn/0BF09MDsc7yFTdIAVC53OuHRzAH9MeqKPlB6AhnkG9Qz1Ee1j0U6mv2sxxbZZBmOu+Ok0zNh3p2fvNWpiPTto0mhEttrrOaEb1Ghx/88XKBrelQ7GcfGljQzOt7idha05AT1VNbmHuZb2dUr8otv866bZMS3FCNOFyB1T3XcV7DJ1xiJCgof7040f96U273nrrrbf+sYFXvsRRrmnS/CtaXTqDl7Vwo9jT36BYfgnqrHSp60mD1srK4iDjJWw2823nO1+2NH1OS1e8017XUU2sfq/tft3MrgtcqWWbdN55qF0fkCcaiNO9vdliaCJbU4tE+RAu7u2ehSVbBhIREJO1c6UQOUe32P8eQOo0INcP/dTfcXTH9fpp0LT9d+Tn6q9FTEgVvXvhNRwK7z90B5sjKTnT4RLiTTeBobfXAGkT0qMzkY4jHBmB4zW0Kx7oSqNG8YI3rkDEqF7cuvWbKQME8NKIpygBSAmKxTWF1/HTwbGjgCBYEjb7A7DsOzdMwXCs/DZdzYlXP2cUTAB+7XECpDO37DYlPg0dUqbDkfnG2nKOw6IFcUCypzGD2E0T9mnkOOXW94/m/UGe4TfUftMvJvU74hYgz7R0s10wjd9ZdAuLzFycXhjKa0idplzimGBe11cPzxKAW1+HukTeU7Sok2YacEyrhqVq9fP3XLnbWMS0tfnbb6gHu9566623/tGBF1XSLNkjFKqPNk4Lnun7MZBQM44uQJsnT9FKlVi9qwOi0VCwdI4p2inLnIGZP/CaWsCmONO9zYsykTQ1TVAFKVLbELOoU4rhnYRAs6tQwd9p4XwdF8eu2Fqf9fNFfaVG6PJ5kuUW8h1bEzaHB5+eLLsIvNfK/KVb86ZoirWkukZmG7K+pIOqNEZZE73ghXN31TF+dtbZnFf9jg7VHQ4zNuk63I10Wvmu7jihppnA5mAG77YP60eYgcrd4eSNa1AXSoxKFG1uoGB2K4wZjnf3vmZogBb7xBS2SSej3QZh0w3HQxxuBm1Gg87niq/HbeLlCLbBNWroikoMWBT5t4mFW5aXPvuqXV0pBb3NYIVtOUz16c9OzW3I8O9mmiJcUOmopSIEmYqr4OBA9YKLy70ZgXBqFudccdfJ3QaNfU/GM33ic7+cLJsNh6Mkw0zQ9gMjhoDaKGKtwjbMtO17r0YDA5wh5chBP93tlXnPyGf85dcf9fsLS37rrbfe+scHXk2hk0JLDCA0mFNphlZzLVIKiNsgIvjzaJDaRiPsf9UnAVHQmlCcZm1vNLlym19eYKN0LkeVrfHyIGctLjzpRZvUmKGpqTOqpi/BK3un7Jghwj1hl+JETTjOzr5p7drIYZP4qJZCzQLaLAVeUAgoYACtFfhU+UDzBKyGcUMhYc/maSDGI+jJohfhtMKNq4XZpucYdXtPJMysAwF0ZXJyOwaM2iqnPBXSlWg+VABMm9q6Bx4QODTC05iujZxaIhTD8ETvVXHrlAiHmUkkekp0N/80DChZCszgJts/GqXACawskBpRO/vo1o1cIt+KcVWGyMmRgN3zZguvFo2yhxkD45ETJVNooNKinTERUnMj6w4Riwuf9BUkfF6f4dq8scu/nAfgC0i5/32C+hJQr8ZLh6GAzNKo8gkmF/qsucnA/m5t4BCc4DCmu+uDKt1WyWsuVLXnWcOaBm7bCW0eRPPhbL0fVfUvv7+w5Lfeeuutfwrg5VW/uN1d04agAcYLH2YOJrbzWWgudut1Xdm7RNXa8dgRA63TMWvy7MGGsOHmPZdPmGCTHCkGKBM+c050UEIZhGlxRJmK3Uyw+/ni6nYmi+YgLYAGXWDSwq2jaBJ7rUtl8XFhlWg1KAYITYuC2yXK5M8iBdR1LcGtdn0X23ciTQbTuU/0QUnOyi5/OGOC7gyHFWO4nuJ0z/Elj8jnopD9LkAeQTDit6IUUZDV6sI5v4j+bICxKCz9+4bWrQS4CVjfpjlWvZ8Ja7nF+3TFy3szgT3s01FY9okGIPceZuRcATOumgrmRteDw7lPxySXosZvnYLaM6vEDq9nepgAiBFEHw9Fs4inUOSwbssBHvy46mtOM4YLprAOBNDyy73mo2qszpasGo0Nd3Qc+QJxH0B7ITNZS7zouZxnB08VVvEYD4XpYCpTccY97B87AWbs7QxY0MbXDLRH/e23H/WGXW+99dZb/zTAq+l4vHbO8G49etpwplUMG3dcqk7qk8q69p0jVJd619oxXi2CdtPPy3tm8shoQ8ToP19uWOul+9/JVH81+KADrZ4E0jRrXdx6l5Nwp7dUPZ0sLm1et+U5SutBDzx2Cy9W2MkfYEYvVs0eXkDzLXevbwnXQGQtnIhpF3AcJ01rdtwsKaSh4QmNEYZtVSpmkbY331snFGZrBgCsLOKkTamjpR83ZQoh7iIMyhQcE5G0kfA4lzUHP+bUeZoEOX1c9ps5v6HvjU1rp+cv6VJO6exillwAdEwUL24IfY5jPNc/IqaUI6hZTXvyWlm+FKUZwol2OCOd3b6UTY2ubF6U591F7hkXiJRMAAxQCNNVquj0TEEt9sDy9MQ0JIK8uOVQUaGBzGxWnWPf14gst615Rmm4XLdTKIjEZRD4tfctAm3cMMC48dAx9jTD6QkWGJcorf9RJXWqx7XsPXL0ilbH1aqwom9nSGUJJO32lx9Vf/31Tbveeuutt/5pgNcofKiee110QQDDfflpfBU4Mp1cK4HMwmwLdgFRPEW/dsr1BX2AGkWHArqWC55f1bqMcNk+gvgQsp06lx83wNQoHe1WT8hoBX7/TqlxhMZ1LfFR99wa7U8K5yyuQEr5Q3ORo+UYqUEDBHl63/ZYfbePCEacQNLh1HwDYY1u3V/qYXCaT9wpHkceWy35OqBmcSEKIreYZgQ8Ky2RC62I4qbIPYe7C80oDjNrqlLXBeUS0u3ovy7NM5Cg6MU5r8IQA7SK9KPn4RrkDKskHfRTxZdh16/fLbVXU/1Hn4pLo4OaTyddC+Q5iGuCqGCZkRjhjJiuf3fvSt4TcmQ0fCY4w3/TaCjPT5wzrHvLp9ms0AZGZMFpUq37RZiLml9MetFvofQ21RQgCvqF3lwNLbPMdWpmR4HdUTDP17eo8YpzZYesuWWn2cPFTfQPPhH6d6gTRQy8lW6ezW4QkCzNiDFUlX//19+effxbb7311j8V8LLpjRS5rXXS6ZLYzDMJFl0gUjrV7k7X4Em5/7cIotjshrXyDWj+uA1iab3DeGbetb9aBcAKX3xE5rwFjybiagdc39+4xWz/3u684+K/ziHSoNguYz55MZ//82qLMoD7uNhdJ7Ml94f1xa0LUZyUGTRc5Q1dV4aT4UWhnQF3GnndzdQBEvQsn/hHhBieoeujfD9i1koNBsqRcEmRx7LYAQ6KH7zQZBupE541ZHWbWkerbbeCHnXLHDqSBi+n6NUJ45S80E0oxCWtQa/EMhiIzCKcNq0Zphxm6nJiJfpYfTL7DZSG0DNHBONfIWHG+Z1Vp8MBUrOxoLThS1BjNi0CCQlaRExXDSgmra7K8uQAi9OOxErMX7QAACAASURBVLecTQaYOxP/9FXnH8KNe2DYHP3koyYd0LWqybAkQ1+W2sTjkJrum6w1GBnS8NKYt9sokNvVwSYK+Q3k+a2NvzmhrjD1yCYgI09LH92w95juxzzGOc08DaSTN9kdPmDN164//fhRf3728W+99dZb/2TA6wrmxV+Pkmxl/H2aEx2F9w+GMQabMIUbxhkTqgqPiCysNsH553MsEPQEF0fnF0E/JAIqSgFgAyEBjUjDj6MNUU9rsVNnIXRhvKJyKlBTuuNnzELTgWWxJxOLD+0QUrABbgXeNEneK2tDEEaJBZmclbpQ0pzqUmsG6WuHUXQACQVa7vV2Aava3jOmWVKklwAIGMaOEWEEuBotUr8bvycVOUuqw7p94JITEumWAxntPKlpXwrtsadK4wUCRHz0mRVqqgvq1dlz1PjRAKl9OlYbrr9dDK5/i1/ATp9Hxh48kxZ07lj5M6OZueLgCQa2a0fVFEnRHH+k+o6sqDHJrCUOgRkcj11rJdfSRr/gMNP7lolVoa+j5K0RE0jsLRg3TFLgCix0zAjp23LQEu+kQdCeDz21flx+N6cNZEbsed4YMVGu0HihgjTkY5zSDMTsNnzPU+4XFsM5k7vm+UdV/evvzz7+rbfeeuufDnhdGh45akHrdEIcx4qXz99RUtl1FeUTnBrDOtMgdi5YdYgoFcSBt6usnX2dGPBTyLWphRZJbE2ETLIgdsrQyYkylD4g6+qk4CYBnZWDG3IMenYWBdhuEUPmjBhhryVaBWR9K5qbdAS73W10sXcHapSkMAOxNQqh/p5+bfuaidLL3NvcURCxLwgNlxWaWy0F6C2spTamEN9AA6YjOLZ6agFqLtTMfroAnBgTmDlOpExh3Y3NYSjDXKarMXXu4zS3CyCkB0P99MjWU7fQLOaRFjaLM1so6iR7aTu3umk2QwRE8ZvXc3OH8N2g5y9q4qCvMUc8gE+jP/d6agpZ7hSkdFLiG6QUEBcNEm0CeIOJedUiqFr0RIigXpRRwK+5iF+49aIOoqAxA77pJ3vsfOjI66XfGga6dxRIjx9Kmvvsdhj9U8x/FNT5NaKBYn02+d7FYp6CGHh2xlthfOxqJKQPqn58c7Qx/vIrnn38W2+99dY/I/C6AOYKl7sisnJKtEr1KWLPz1C0DwwqXf9dbxdKnbhU2kuLENSK/7uNuOjGYS9RdDgqWtt09GAkZ9Egjn1tz9yZW6eoSOMF0vO5iq4NolRjlIOhGWhQQqQbrBywew3JNEcIWLJiOJwfb14Y3VIf8PL3Gn0gLanr0tFSQ4HMEKWDYL2+Fo0qX9yZnuHQmGAwNTdlDMRLqbQMuRJuqRqR3AK+84Ncw9PTAhb2ovbbKKB6vy1IxIs4NqA/Qb46acPmjggzyIsyVKaKgDcBFo0Sw5ziUlFRy71XnmF1g6p7Cn1Bb36v1MI0OvfZOnaOo8zl3X1Hi/IIMqYY58gOUaRj5j57HrNcdTqQtwD68mL9TOBVn6iT56szCpc+5HNDpujWCOIXFGSmFBCNJWxvKM7lDfmFPffABeLg2691fiEkiJEZ3CjXvsSyn8JKOBpUxL2fUVwj7qCqjVxEv4vRIeKluKqmkoU9kUIp05F/uUD0e8Z//Kj6l9+eocZbb7311j8l8KK4iUNsb2fRjJ1ioXZNoh2ivjy1aYjFxY4GU36+7BEmFdU0Hbe2blog03btM9Vac2MOdS/1Z0p7OkUZIfMK6cpbYdydTaDB0KHmwI3wSrlB0MwZCvUxylqoa2PkOrVWSTvsZSYDlm99NXs0U7UC7oSSHxpUMqbUyIR/MA8YDtJcQMYH6KTWEDLV2HrsUCCDyiA0oWadglEdy6qvcXgwMMKla/qRfM5XiD6wGXFowSwAcya+3imwAUuqMYcWzLU57o+JKdI+jhEeW6uH4AWWXP36ggqMKi7+504x7S+HiB3YyFZbGtIaw5Y/ca3RYX/Uv1tvmXYxvA8st/ucBijMrD7cXMFsKWyx4jRTD4SlRzoxVmVq3GkSQYPhTbe5gJFDuYYJ1Ept4fUc26BXGhMnq5DmYEl/tm9PATut18FHJu7fpujxwwhwNvaa6xFnc4OmN5tNBnOKss80U5K0myXFQKQix88dDs9H/suvP+rX56jx1ltvvfXPCbygAmViEVVz7VjfF7q6ZsmUCGocZxw4KbzApjFKtgxA+b2iVTodScI6zaPw5Ax4Pg6E7Mq5aVuwaB6ZBny0UcdMxPRwdTUPYqI/C8n7Sz+vZzb9CVvnGGLwYRbxYn4BIyZdOlC4/xswQg5bNIys0fWqr6vh94ZJPGKDxq1Qb0ocbph0F3zwYnYpIF1TJjr7UxgK3XTzRqOMG2lW1ViE/wEYS08TLc/IHOc2c5PzH8zhsye43JBqSQbYuB/nuGmle2lodvkY2Jw4jcMqv0+bAYD9kQFp+rekgh8bkZZPCuGFbwMJ2P0rfxzapy8cwOgS8EuouQHdSpv+HeBujZq8hmtvqpymfA/KxWE3sBvp5l9lLkX2vGPyZOdDhQFEoM+WcqOKyHm2fedpiMvzAsu+N9Md2Wo6iUQ+czCysUojGhLYVS1tAvkTtbU/MQTep4kp2WKNI/sXwvAwYxi/kqtByS/4mdv11ltvvfXWPynwUlepNgej5WtdPVEUpXeCoNZfbPocEEVZtKwpfscqjk9FEVN3hp5inNqXziNaqn8aiNNcLj/+QzGB0eZaD/ahVlZThY6jH6+JiJb6vHb74JzgmD2xGZNAaqnmTbXhAC6tBcOezDPP8jfScsqUuhlOkqUmKRD2ZVMfrdTAgjf1b43Mo0NJ4wDMcpkdgOnPnnN/pnMHYoTBgZtoJGik21KjRiZckvuuWYUaSwjKX81RIES8Fj7q0Thbjgx7/zY1YfgNpHYFA0AimZoOcOND2tlTqMK1TLG25C1xXEwm8T461TMAq3IBGs2TCVxGce4KqFvwc6Cgq8nsj4OHdUv8xQ6mzvVQaiG/26CT8b0FEsekh5jAog1ujrbW6Z8jqwxl+WolTZr7wKSHMDMvmPTKlNp77V6wGAGlA4qwFYxtvrEMdX+qi2707hIokeFqmrAwBKdKEx6OmR83wnSnTCbFeT5z4SDOPdDn+N9+x7OPf+utt976ZwZeJTbZ5sIroi0K10LznOwNzTK9U+ta1IjC38sWG+NYSwBfAztY7dI6qM6pqts17k68O3idwhxa0EhILeQlTnqBdCra1FecaZj6z9GisyjH4KHRtUp+PkAUQW3U1mtUOhbojC6tu9PeVDPotAEw97Y7CYDQawSdujefawKhxh7qksbsTjvIY1LDtAlg/zJtyfsYEHB9oPio7jAc+XQPYo1qphyxHokHqHrxK6PIarc+hhV+6mWoTYcLKieaHf4AC8C6dziW2nh8yDSzyInyVPnA9nwdU5rjlcop45m0YzUeQYMh+csIjGb7+LilcslpG2G3vI0VnRoRGgTAOV0xHIV4ssUvYq1p30iqpOgJMbznvXFURr9eArI3m3TNRytIBAQGkpn05v7SCinudVHwxVrSteFdpS2PrSZCv06vlf6omb2nwLS/q9MwZbq85SFk00rAMWUsxuhcWC5jbQ+b/FzWn35B/eWFJb/11ltv/ZMDLwMZn2LjGqdBaBm4WpzL+bcueZWFcJp8QsX9Z1qCNjwYU5c2RLhW6FX3567gHgqGAmyh7cMpUyGlTarhw+mAW3MUJ49FNA0UW3y29bQ2swGdFqmDY6cAwxl+95gvM40SlHr0VEpZoxs2sFpzdQ04jrGGTF2ulb3wipTW89NQg4MlhhJTBpYHOAfiUft0dZmc7LAtULWLNAtfPt9fM6hopbSTjfR6H2Cm6dkmqZmzVpu/rjlbKw5cCjuG6J5GRUIU5AKZvQgsd0tMLR+gZ9y5s9BrFYYiiQYwq3DRfdUwOdGq92YXmUU3loZKOPbljoC47TG0Tls+3NhRMSUz4x83gSE3Tz/Vd9aq3zLHSnDW71+mVsysKKJsRMl9YJ9Zdyjav5/TZlj1/rma9fTzD6J9ozC4MRLEZ2Yj84bGBIrU/AqdZmZ8wzIBMnCP1HIuk1RUmZoKiMYCq/7AvP022+DnjSJAY7A1PJA9GR2a//jzufVvv/949vFvvfXWW//swAt3QsLxbrwUow8AQe0dZNfmwDMntegW6lIt9Ruy2KdrtG7X0iYpFHOL80Js8AaIk+GhAsJry9vYBAYbqrVsHoZJyeaCOr7F5GWM8kpctq5pB6w6VEMINWwbNuEXoXFgBGq2F+Sn6J/il+JDKtRpAjsImsda2gTuavABjzOmF/XcxPO7KKq7zGp0cK6tcKJwbNmJoQfp30s3F1CXtRr+nYtnOj1YdjGnUHrkOs1FuP7xCyXR/qxdT6brn16ffcLnoAJCmcWS1xT/NAwIVBeDr1M23okqHCDmcwMCSmWOSMCgYkWERB8OLFvvUnFvA2hxlqOyKnUyzyWgaXr7w3RDsGuJwkCETIe9b9RJ5XljMfXQAj5Oerq6jkmbNrPA0o6GfhMgdIrIIajSvvkHDQd1SYUYB7G1vNFvWfXD+i8xUtuGVOdfGLb+/RlfMrOwPI1kgt73M76a7kIj0+lvgEMX/+tvqD89+/i33nrrrQe8GIYF24tIC9SkGVKykb4xN7pYCz4KZNp2AOABU2gzhp/vQrYJiPyun3VZ0+AgmU0c2S1lAZkt01FqUYsPzoTLTS4EpFDDVtFFBHeef+ZZtajp6DVaiA4Vv8sE7biL3Y45mgDnPgnw9DDCA1uvuUkPDw0gC9C8UzSWhBbTKr3rQrkW9nt/uYyCOj0BoQA566iGieEYF0BtwXhmsCI/pYeVZiJbR39ogKg2/+neyK/FXlXW7OnsNmlhBvrUIRAJHGjnOS0mZy5XVu8BylTvpZREJK04xEJLQkTBAT8DkCCCsIeJDgIYjLDqzfIe4S5qcjvRRM6cJxaljyDzPGhEt/0mj0a4ZbqEn1dZRAbkByRvuryHIe6X9CaPPhNSMMkIBUa5uNeaMEKH1nOqoe26z8CazhwftkHFz1CbKSjXi5qWWCM5hODLDT8124KbsDAA7fc8Ms9f5D7bXymhFKeqSw7GTz7/v/7+KIZvvfXWW299crxUe6NNyePGResC4hbj03eZQq3oMNoD0AgtsRbKScmLWJ0AtZiRguUGFdO7k+YAyHjhQig65oLY6AZcur5o6gnM75ryWobIhkbLOIrsjyIMHdJ5J4xyasGmuGA4wblDmY0+tOvOptHQ3f99Olnyd/N3VNDdEujQE0X5pT5BFNuIDLQOLcVUskk7HhI54CqLCXCw9eTDpGIUYHSwYVSv4zJJjTGW/SalNzA/3XVN9aXoLKNWUqZ0KaeBIs0SnHatrOkmAbXNThaEanffZ3qBdO1knEeOa4FCmmeuoO8+L75NLQzzsKZNRVXkE9/GEBMwhw7u0prH5KvMbKWGfymN4swKtFRJhWRMSvouMXgNz3iD77S+F4AA5NOD0GGnTKBUFOayrdvS6KzA+rJf3L3S5voj9w3rswM6ImbQr+Oz1Gyp7xdI/EKtlOdxn2PpC6BNmtTlMmf7xIK7Qliqbod/++1H/fYcNd5666233qqPxqsd67C7PEkAMBfb3iNq/zkN4Z1eHdrfTwv1NNfFpey1OyLvNOUWrZKXRKFAugG2aM9ENgEVkgst0fUjNvyRDqxS5I7pRoARCejBBVESgBzWXTZLcEV4533pBAcSYCsFHSTUkzeTSEAHsgKtmGx9SlXC4otwwWDrekoKV1Q7jTEcIbDQeVApCRKNS22yLlSOc9w6+4jupXWO1D8tUveTG6RmIAaYZx4ZMZVDZVqxStuTyogfDDpZFsNTXcbo1BuMAT57cem+i4an6bhOb22r956M9NRuo9klsE0Ai+V/OxbC8EduTfiUwnQ5YVk3ZERDxxQ2j9D88wV0J8O1LVodpqCEmccBNO+UzfQ/TAwkGiSdYrmt/6aX8k+k3L8J2iX8OHLp7nOphNasLh6A3OslE3SZ4Aj17k7lQRtdDdOk0SzjBCg6CpyjV7fEt0bcPDf6Q2D5lHgBRdfgMS84OC/FbYCw3zGLXNQNe37+l19Rb9r11ltvvfWWAy8gXJzoU4b7glGaWmEWMieXq9Q2u93CKv4uJcRYu+Hthidubm3rV4w3uE9vrtDrUzj0JOlGd2U5eYoitt6K4phoTWVCpg4NVNKjDupCARgIQQT76mTigFaUO1DrNdDfdel/Ni1Bhzaz3fBaL8c+N/CsNcQIAhq+e6dUTYW0NnkxaD5V3rw/1yMq6Fz5sbk5dPpwg79nSeqObw60uqA06Gi2+lh65l2/uZ0asiWuWpf4MpuN9QCjleFVMt3ErvRZ8n4Fjga/Tp0YRUNjwDwhVzrN9VhbqJ+U40X8TKSWMWmMNahm2/5gBPK60YNOFed5HrrD41AHephuVdAIt02qYHuZYMaFQC37Oc0YRlOj/FpVmZbWSQcOQ3xWqolpGxd6pnRdet/RzkGNibxxsIr+BHyr2yCH9nH+PAmhR85Mtb6WcR+sLoX+Z6yIuzBQpiwMfm88jEk2bjalvu/+9fcfzz7+rbfeeuutBl6kZ/J0Vkw5eGA6sH1e5UI/wsIvO+55XAq/899aaA9xDWYZ+qggfdAURs4VOaYX50UL0W2dEjG6rrBAsLLv5Q5VWszxTvgqz6PW4aQywazrqnqM8+K+pvWfSSK0gKbTf3iBs9AyyTspgFR80OiA42BYbiOtzonX4oDdHp4GFjFvkimBIyGhg14Arec2Jk9JmTSLb+NijgHAgBc5BhiC/RrXzBzk7iST0XOfheENBh+wpWlTarPPb99ZgLVSwrDUzFDXS71blG5lNy/GPd3FfzcAfDgxQ5GnweE1kC8lha6p3HZ7O6mUSPDvwKTvf87vRdFLfU0z5hgKk3aFvlJRzfVOdZ/EuI5ygT5GNzAadIP3GufW4hyK9dUJXRxR7zXnNzifCdhwDDigF93BfTgUujOsfXlE4vYdrWM/oeMjphnONt/aMpt7x7LvWUyPfWy2imxjICiFsb7pMdVh0s/hn3/98cKS33rrrbfecuDVfHuxRj5FsEwZIN5N+g5VC19iFss0C2zJ5ZJ8H40fpVAGuwPO6/YHKVYo1BveiZsWIk1LLClSKh3PhkUXriNg10e4lJmUulznRJrnoBWOlzkY1vPXSMT0Bhx0sgvglCJW/lmqh7BCXnU4V0emFCdILpAjnjGZUXOFrQgVMEU7Ns91EygmOWPT2mFU6v7tPt8boeMp+/zhvPIl/ldnAhhujIEHUTNTCNMLcU40YJoZKDjWOlWdUuDpaT4hlr48hW7J1jMiUVLeq6aVY8c1rBVtctkQkyc9d3O6MmzsgdgDiAbLHF11owEjbsB0myyjFJcZz+Qxoc2DagOl53MRzRXV1X2f4PJMZqHPWt91yIq+lq1b0zkVX4xb9G7Mb22h8BoYzfn3oRRiDN/XAE+ax6b7oSdCq7MFnKqatjdOFe7nKunPTdK1eB0ePpsgN/MNnOc2gSgWXWU8i1y3zGcf/9Zbb7311gReroOAmaEBMpU4Wi1yefeKUxe5BFlp/q1OlNiUQmDkb/q7cuqX1C79Uu5KJgA3h0Ucxug9/M0OXGle4ujtdZVk5uiEoPO+YA1bLkUZrFix2tfAo/Z9NZ+GUkZwAAO0A2L1d7CsG7Uyg5nM38Jfg6Y3Gh8V2DAKu7R+rj0hNglS8JpcCttazSoiMcq1IQIGPFeIo1BewgSWCg9LZe45SYwilcOuvTPxvhZ7dBCNxCp3aop1Elsa/loTpc9Jl3xmar64XymHyZS4A87zV7WMYtg5faOipYEjIB0RaaTjlfOGNE2YOwfxfDGfh40ye/RN5XRsm/ws29xAjgU8Y8CoLWAhQSssWM0nVNMGP/8/23ikwpT+C3CrNC/5/ovsGaSTbb1224rQhrn3zLnG4x3U7fU8LDa9WY0d7NRJm9LV93DkL7HZV0/6119/1J+fffxbb7311lsJvFZ3KnEEg2gRjr7IuvU3qFecAa1ogpsrlE8HVF9Ez1q1TKpwwf5Z7LArJJaEFFd3mC+1R8TU14QcQo1bNA9OR+LiWV5iha+l55LTKymlqjdrICV0waObgWRxBXC93XxACWKCCcQ70AVmNrU5InrTlMl0j1m3jFrr873vuUTYbuu2OjTPzR4d0zCvFoC/5l1N4wWvEiH5UgqqOQHFl8/XqINa/978/jaBuvuAFuk0qJW1F+OmOvkiEkNWv4PGhwj92g43ffj1hscsRjnL2jMV4gKEMxSYhntoboxYDX166u6mBp4h5+cgAHxZvLdMRFB6mbHw+7hcI1zTFwncjViCQbk9GVdkPO1qj7Yr7NfZmhtYQQ3FxIIzXc0+gevtDm+AIb7F1kCA339lBjVf+gzlz7fSdwgGbB3nh/pArmlyY3b8g4pKA7OAzgrnlA4YjyY5RNa//elRDN9666233lqAV+uFaBMSMexrip8EfF4XxGoqE05RzS7+U6h9XkxZY3QjEyMLCfAw5WNIgfNZ10RDXdA0EwwV5obXdEM1DGoXr/OXG6AJRhmrGV4oI9KxdQTkoQlWdG3lOCRPqB0ic0qmlJ2yMNN2gdRaYk4RG3xCrJFxJ5xm5WbHSq/r4NXGBWpxQRcviAuIZ9f5j8BACSUoRgqAhHOPNkJTHunnxoU8O7WyqZ0pXFu/YZxsXBMZK94Na6XxypwKrcU/9hrdf8LDGCCI3azYqWHEnLqrW3t6FANm1dznjF4is6ahnaIgDkGWiHAm39WNJQ5Fejtnm7lGFNIgwz2Un8YHZtw3HejcAHosWqV1sNPAglnBW4aUDF90ssWNzqrH92UKpZjo85DpeSxqDdE24x1YrALSjFD2Lr5Mi/gN9HMGk2NzpFkOjCUaSMnxMoMWtINuCSbMXhrHPlGNLAyos0KiJxv7X3/75dnHv/XWW2+9tQMvBtgybiBq2JvfXu/HNRBsNzNtUgIOoo7lvOqZkcwYKpDofC1SGVUhmvqgwKu/Mon/eRGztWkl1EEBaFcjdsGU/x2G5svpj+wXPClFZLTZoQBnz9D6Wa+nWYBOPMThTr4bxrSyJ4At0scFzZqQRmqRyXZ5jJ/DqB+7DLmOmDUL7tVmEJ7npsW+NssnhVK605qlNuzBzfuwdVvqJW0gDt7Q171GN4GYgz+6f4AgrAblnoOX+6y3YuYPiMtm6XiWo3j1JKhJkexC34EJY2ylBgU3JkAD/iJcmGO8qxfbE7DN44N7UDTNThDjK+vH3nyxAByUGIpi6gm/oGZKS4LLXtB7vcqvSVTfMezfbp5785N74pQ57512SYSQfTX8v42IJNCmaGwdBUqHrSa1MK8nKpgDohvV70bW93ZBrfewGfDEV6C+a6y5B5uGUrS5tk23XHThmFLOg7Heoc9Ze6TVrz9eWPJbb7311lt/ALxubpaYBRAqW/fW5rEEBmhvL0QiL6MwOEWbmtKx3DZdc6LuNEaoWVrsU/8JWqQ0CIT+vNpcq7UzFgTE1mQBjEmRmBdcYCc29MeuvbQ4YWu/pPI08wM71x8gdOmGvMHOauKnmIMa2CruiBZWeqdrXa3QTEg8hPkak1FzgtTauh3MQDdomI1/+Bi1REwPNSdw6o4FqJqQXrrwCvTU/d6+DQLEYuhNph6IHu6qR2hoAO4kb2ZuaeT9B4GuVl2KQYZSwgALEbfiN6vWnCXCyksD6mm8wCWYd4KlsikohL+V4NQsRjYqHdV6fkljQ56rzsHiKJohe4vWVCI8BAwalWBAZKp68BUhyJS6pF+if2vw0SjGEXR6bjL2ICBYwTId+Dtuot17Q13KHfjAdIkJIL8kjjPNZZzZMGeem13kclYlf8+jFaSPZQ0b+ntInnmaUbleI6UrgpNiydbIWuxBcJz//U8/6km73nrrrbfe+gq8tB7Gx5L65pGIrsbBD7pLKy+2+mRcnTcSIvxUTRMgNskmjA4FAhl1gow+jsYJlOkN/MVK68y3xkHtGHA6+iWUOgFQ+Ex0dCrVNR0N3KCGed4EHykCueYiPd1TCmLmKxW8CLs0n6sZgxX6IGxawcsaoue0yfEbEAGECtl26G7Q0Wf0Gn5Az4emj2VJqxoM7s5n3zrjUsQ67SnOu7guunzpj9wtS3Nmy6OCN4OQmtI128htJmPeKwM/avztSOH9aPCmvbpqKS9YQDcFDrXWqGBfnBzSUl/3i4EJdfK8Uw94LhYpxi65/dUeprVhNm2uDcTQpysBOK7hAuFB0UyXRfrzRKYrGKCxpydMCAu37EdwT+/UX41oQM8n/GI8caigTs3zm9QCsTlBODP/EBz3Yd/PCDIvxx5sH/2a0jIM5VmJ0ipQNK3vZedSJl7I45Z7jVTaoQ0lbyMxqZR7jJlGkEQAuuRL2mViX9vff0X97dc37XrrrbfeeuuPgBdxi7Or5TqvIPgk4WbjfEYvTJ5gFPC3YJeXIjm9KlQ/YrRHzsK3MqflUPvoVDvoZMlAlrJsRAWkxnxsWk/GNDe3X/RglKwXCrizgqr1YKX6gfs73fnr5p9BCnUxhOiwa7qzGkW3UzLxMcHICU+OSZEWE4TR16ioluhC/BYqWjSbWibwCKIQqwbs9797JacAtMLcEuh5pk9dw9ik0hSiKzTNRYuhnxnNqPsfvwFCbAhGj8sNDdY4p/yewyTD5h+SXdVB3Ew0qIAci2EFAyaYvV+NK2e3oopmqqLAlsqc4aDHkpy8tvVGdlmSIlZlx9H3MBeAZnW1GACVI+v78xDDmMWFcXMnTAEpXSPEgWqtE3T3vwUj/2GzAbsoypxWa6BrDNc+ewAP4ENgdwUUgw1a1hdqY14m3ZLmSBg0ZuTXXpwR9esfE6W8vyEhz+IeyRXKZx9GJ22R46WaOaUUsOp//f5jz45766233nrrrQu8bjBrSKyPOUZwhoaroTru3QkRVkOr8VJlef4Xoo8stN5WzQAAIABJREFUxb51mgU8qX18RdFxtF6IDiuFG0NGlFF1/pGyG3HhlAZxnYL/gFf97hRtUfn04GogaljGq2jBKJfM41LalmTVaJZR9dyEyv38aOKOvbrRoHQsoZlDlCBXUMTvEoxs+OMziWTmZDGoU+lnVrcA1muwR6dGmHK6VluLGy6ulw2j26eqvoOqmo5ym3THGhHcvkxVTs2moyLc0FCOatOm5JfACSgPIEX4N6dVlG6yoVdtFOxqdpOQUAARoUX/FxwR3z5Nxf9I43Vhd2qWcpsoqBgQ7tCKw22T2Lec/KxRTsVVFTnRFM1aGFjeSbw2gRxq8zoT0lBlTB83Y8Qcz1SDT9vFiCYANf8vnqEJxqF5W6cRU9EBo0hoPUEPnp9twLUBb5r9SDTIENJ5YLmGs6ux0LZfcEOuue7blJOeq/m3337UX359qOutt956663/A/BiDIs0FPkUFqrhaH0LRq5VKSA4hUg6Xknn/XRVS8Xl/Nl5poSOSkPXuPrdeewCWotsRl4LwrNADRq8FEOFGqiDVz85Ppd2JxUD2POGpqQIYYpHP0extO/qsnVYrfnY/PMo7mEX5B0qGz95VeCSGUWrWI/DWdaspIdYI7vMJU5i9zq2Bk31Mlv/vo1T1AUyjtEoTIgCb8bOfiu07fr0TujqTqle+onp+5ARtHTa6DL4lXsCUUh7mapUOLfeX4rsG70wXegym4qjmi2ZaPt+B9Sujrsx4OKIOHhbaIsbK6rjs2g3l7gXpntBfTcHzOLcLTX5R8hOYiV47+kVP2PxhtHw84HMqrYQZAiFNut9rGdIzlMFhVnAExHcUJv2QuB9mMNzCG4XnRWC/trHRrh5jg/sadq07NwpQL+XJCjlB2jd/UpanMF0hJTjByN3T2ftfq8ybUKLa5OECo0DiP1A1b8/+/i33nrrrbf+b4AX/iAXlmxDiPZWwwUYEKEKpDOLD0iBhrtqyUC6ISC8yothihT6AmCozB721EsKIsApcVt0rDbAoRbtaKtiSp0CTtKX1X2RU2OZWQgXMAUuhzKpU74opCGBXvwYILBEvxUOdWCDwzFbIgxk6axBBfU61TiaGVZJiCw1Hdutp6NIUVO+dtP8gIgvFboapjT1MgtpjEIYqRVCDagG+KZHgL5RsN9iVEWPO7C0/YEMc52F+Sg4oeBMQg04dTIwZ/wI0x1YNMhjYcU+z1dPf4jFzF829U6z0lwmjqEgF9cUSN5dlZmN1leMIk0aBddbKLD5vGwGPwF6neWHCXcZEBGYsQTmvEKjHH9lvhkFVSnTXPzPq5Leer0wkzeLMiqeUlDHfc/9nNszDmXPeWCPG76GGRC9HDQUXPcl4/fJlPULG8PPJdwYdgtnRu0AMd0Xg8IK+gf8y28/6vdnH//WW2+99db/DfDSt16XeHAu+5XEHE2RV0I0hY4CiSO0D8OLgxU4FRDUIkXNPdCFPD6FKdJqmhDQ4HlUzaDjzBLSTDK6SzzWCQjMZOM269PSrrJLq2AH18L9hjnfKZj0q416A6M8YptMhC4n2VKUktOiBD65YYhit0wX1AiTOyqZepbtr0EM/+37iprOM3ul3l187cW8gxTUqZRYBe2jyHJao4KwW8MpQqcEObOLymBp+n4xgODfX6eqbWahVSZXymXI3i6Yh/weqjkLOCOxRuGqoeKLNR+TPSmzANUuJndyKdgLX3AHIPiA4++l5tKeQzGuikHQbqgoppdc/BhpmIlhCqiiQMnws9/bDpp34s/mWRM0HadJwejnvjQrC5y3Quz5iTibtoj/k6u7dSBMwOvAn9FosBOWetoA7xx9mWxReMem5u/nyoKk3bNKCf0etcaRJ6eRGiUOumcv/PYDb9r11ltvvfXWfwJ4ldI5pHDr0v9TBMCLRJHnn+nSoSGyNItKUMwBYbfmoHUzre0qzoI392pUT5SCExGiKn1WuhatJKfnuv6hJzGpYano7hotSSYBRHnAadiDG1A69u08zpAM+pQXldfURIArDSnK9EvtwG1K106UDRjFdt4d9TdMVKJsK3NbzJCcGm7tUsI1HbPdKWVfzcgkCe1xg+w7OeQsmMxg5VZQakkZThqY+VwuHmzSIDBBoAZZW316CusUoHFK/X0apzb9bSfPoG4t2Kn3GORsc16PdIBDcTFEERiDzQpcs5bcxt03xQzEvXpA9DRRqbpm8pgNhKNLZRfWabBgLpP4Mp0E/DkS5iEWFaDVuNzjjMw0GDu0n2FXK1m650Iot5qJhAV+7aYr2+IYsrLNeEon6vlJiDAzN6kwsMYKMyK6po0aNcB5GyyTKKarJ7/oMDUUXhgX+mFYhoSa78YgmWMD3yWB959N8W+//6hfnqPGW2+99dZb/9fAS8AGlKJyQ1OZ7937IrcmJqUTW8jIpnY61IqHPXW4LzYcKqL01D/dYGack+nkgwO4FRH6mrVp1aEq4gJCWrbUpzBUXcMNk3bTjWbbQZq+7mt/CxQ2wDwADufciy7uAqIwFfOuNnUG8DE6keOUy3SLepTQRXndGtUtcDN8oIh7Ln1vAapWl1cCUsTfRy3eZINyGOXezVDLr2kFmemmeKmWXP7+6njXQkX/jtg0ZpT6263Ox4QoMuvsRlO7cQWanGcqzy+oIJpWUOr5ZBxmhh4vXhJTtUf/bxpDYbCBOzzQIh3XyhyhE8qrfsKw9Z5j4G9klnfn48njQp9xDJpaalh3Zin2/5bTPKpT4omOcDdBf54q4OrQKNd4oZwwuWLbyzrIM28TTflnKHUyp1nYjdk3sG7GKtJVQrqAHIaEfpdBNfbfiBVfM55PqDKqJebtHeCTnA28CsfPw1j4/QfqX39706633nrrrbf+E8CL4bhnFB+tLejULX/BQ5iBHEWWWlDYSxDhfEY2mQ7TJc9f7Bw1A5aA0u5WM8wLdIgindhDIzwFPdKauCmSFKMPltLdVGCu0zCG5kvO6Z2KHCv+kBYcMCTgOAs01UUwhV0jSetjYAI1NWhTDArg8ClJn5/52Zq+pMcZdWpmRam6vrgOSCbMbDDUrs40ehbDRRPxoTCDgVF/1hRJJcTz4+WgRZ7wbddr6TjHBmdbvlTlB2sYdBbqmXHkE7OBfK65TZ4X3bv0wnQBY2Z5QkwOWf3RRICzhGdqiDjcE++UuCqcTjmw9ARAvZf5ASUkRm4XBHsYBQ35fHR3FC5xA7QcK5/I/rF9PFdaa46WKX/XwQkGPEpg1AflD3jPk1YKrI6IsW6tsUcFSTE7Kvxy8JzPk+G+G++hzRTma2i5BVDzi/uovMGM/sz6jz8/+/i33nrrrbf+k8ALFGtw6c6vIntkuKm+wNBTHH1xUbN8Sgr7Lihh1hsfpz3VQUhRDaW+yeTm0u6EmqjBmhp2rK9ySnr0lZahxCmwgQHCsxnOX7xABjbpWHRYWTMzCgnVhen0LjAJDURSWHQ0vXjmGZkBihZkGgRGuFBe4gKqNsqfduDLbPStYDFqnIa5+p/mxACXWoa1mNeg30PfclVHh99qgVwbWOfqXj7ke9MBpqy8/UoCU4BsTjFhAMIoHakuduK86Zyt1ZX+3n8JLkgrJll78dkTV4YxR8VZ1qIeK113q9TN4FA1mkK3tGcOENPojmkYpXbSBoWaqKjcs6KiEUWq5G6r+jvcuuJeOXsLGYHwhbq5wdN0/bPjgx0HFsjXdwSGQc2YEsbzGxTLGuxAHkjaqooMIzA+wHyluQbS8l72UQI96rzvhNxnULteX3+/9XGVGRjZ08O4wz/X3379UX99YclvvfXWW2/9Z4FXSTFxph8tswrXPNNLCQhLa/aTFSXAYwNXlDyocOe+duuMLKdDw6M65wnAOBlCP7O15L9hSiJsfpIOa6L7MhG7ArczGQOHSQNED6cDC9a3uCa1euZ1kxTMO2zHz1QCquOiTjGUtbNbLPcph4nGIRM5K4qtWIVN3mY7mWZdny5jWljjG6VsFLgh+NdNqF3147ApPwezxsagU6mRSGID3uOFBy4voMNns7zax557wfWNSVNNZ0KkzYBZDsgU1bVKiNymYahgBjGqt0QEKuulhJt5TFTpkwqEPuoLKHQ/BrfxXsEG21JfsrCdkrfolgifGLWLPq9hzwW23+iROt0SurLTZh0M3FB2fRLGRIir72pHPtjeAgY9cPtZn/t49AHMqMNvrW680R1Io0kznmVCM8B0memHtMOxoPZxm+sN2i7iPhgnY3SpMM6KPwMQDR8EGOzGw388Q4233nrrrbf+K8DLqGXyYrEwTUjOCzC60biJOAK04IYHQej6OY1Sl4gDdMpf9FAGzEd3dml6arZAnah4TtOlx91Jm0yrUM6BFOofxfacqpn5nJxLrVQrbTlxWguqjCZZgERJbhdmZ//0rCmCdfTPzXBf92m+mjx09/3kiVkZQrF2ptNArwk2xep51Hdi507E9Ud5MHaQeYTCxGW/eIucDfvTcXAJ7LZPQXfPiT+g4amObqMfil7HzgF9D/08h0mPok1xzM3znK1Pd/8c26TaloEbEwFei/hJPVxt3cu1mJ5thnElMnNs6sNg2kYPqGYYtohpDzegrWBaAN/YG4e6rLThSX+7DRHCnntnAsaFdtZZZwLZ2VpKpVfnRvIZ8KFI+oFQ/32LApPnX5vSMP7ubm4TnvRlPORlwGd4/D5PJXeQEGMOeDPqC1B1RFbr/QIut+IfDAMJb2ZUwiqixmiWmxbNHUczj0zpm6fR9W+//6jff3kcw7feeuutt/4LwAt03z2TMpwu+QEid+LhwcE50bqvLKX4pCQCUjSjX/KUIOHWjamGxMXUak5AoZRo+KeHb27ZYmXFjFMmRd+mTnOYveTCNyE7ZkEUE6kGlzTtDUVnpf1dAwQsCwG+uhiGXR87LFmPEQ6bpeDLkSGj6uYo4LignVWYD9j5+7knZPJDfjlnM+raNIdSyGXYrBkRRBaPXa07OT3UrMU14dwvpOJOwQpY9GI0MINoeVjVKkDKJzTa0IhMusy1mpWkfHP9PRpizWFdnqzKvAyWSScZejrpo4D3TcvWuk7sVoZWR8P2zw2V5veJhuYMVk0LclSkyCN1YuyJumUbOlcOoQtM9t2ZEqvtPOS8Y8RrwILQwThP5LSVz92hNv+3eUTHX9jyiHHBuhmeyPR4xmipRlb/t105EXb7223YgemIG5qjM8O4CTjAMOK95e6L2lY4OlpIaLp+r19R9e+/v2nXW2+99dZb/0XgxSWomFL4uTEGbt6Tqm1Mz6GN2wNkJJfnaIe0i+uWhUKIOdbo8iKHZksxiovMz5EpD9nFl4LNG1bMBJ3HzFhzyIRCdb4M4Q6DkZ10LOu5dZWJzwRxGpGMWlwLX4ojIsuCVTVAuN3eeK3yTXFxHOhQBlSbGkZzczz7w6FH56sxBPmt16vQkmEUiMwxFTBMFXFBkIZau78j4DhRmXpY7NvVrARShKZX26B6VUmIdS3gSfK0iA0mCb11+lRQCk/LgMMyLtw+QL6wTppW74DkqUFcLe/UmcMrYc1siz9HuNUhOJmgguhsWuxThXHGxXc+CJ6uKd2AVt5kgGUkc9NnAvKNKdlYDrJG5ByUbtjPjzazgOlS7zf3hGfjLhMLCLcmF6wpc59MsS+v1pTaVqHcFwHC87HLOK8ShjgponIP6XB0XhChNmIgtEwXob4UxL0E/v/8dHHekxY3UU6I+F+//1K/vrDkt9566623/qvA6w6tEP14seVtSpyEGJOiy+BnMgNn7B2TBrNNpr0kD5VKHeg0J+XmV6GnLWk4Iay60umOCbmnPvonGENTI2lNVenTj6qN0ZkfPd8uxgQCWS4TpLCpMj3apUQJTfIA0dYGLU4bhNF+mJ/JzsJRCdb9ffziUhbUzM6F4loQKzVHC8nreKeaC+j0YNKr3ATA9SlbRthqpMYU9kuOmQBVftH/9V3gBT82qGyn8EzMVB2iVDMBtJteyoKq1ZBAzALMmNEdNIcShpEjFpqkDgAOhc2ZRIcbZbtS8ta5fQ9xDhWBcOIUumzJ9TAhYwsY+X1rBIiPPK3UKfoISs6LW55aHJQZhZxnHy9QA2iAVU1aTGeoQJ6cABC2Pcts8avkebFHfQQ28SBuPTiII6s8AyeMg9Hyam0hJHApc2ZiOkCK8PNSxBGfHxbu/WylgVDA3hp+WfV6Lfd0ZWajnB8h3N898KdfUP/6pl1vvfXWW2/9t4CXFnVUsbp3zEHvFqcOCVKNmfzg4+bF8GhWYwj7HaJzgky7nK7P0dgnm3pjQcin+LxaBTXNKH/Ri5tfheCcZrP/6VlDA23bYv523oVneUFJp0dH4KiES0sH/RRJatZhcgmZunkhzw6drgavWvBqkc4SNPZB3Te4uiJDTK/1aBCj8utZF5sJimHUv68ZUQaiBPxA7bt1yhRlolpk69794g1ixTZ1MhNddKWkIoGBnnMhyLJ1WzOawUHsBRAHUrALeITNnWssBy42W0mPdpgREMVQztzmCkUjJ/f/PQEnhkGLaE4wH4YiQJqg9y8BJx2U3D+PYn9yZ8066LjNCb0qWKctI0w7fu40ldQendwnQ1dvef+eTG+/DN9qgTmQPakPKHLmabHclMfOOAfcthHdfSaRNkFE+R6wxxBdbwpxGNVNiggSZ0wsrck2xmtCM2XZcwvlWWcqnDy5aek4eh5ofh/KXjraP7D+408/6g273nrrrbfe+m8BL+iL0ezeZyniBmgajEq39gVEbwHNnzXXMFAmR/LSvy/76+bVf+8K6I0a2JMTCqD7GUb8KX5loqcgwp27PiDp83+z+Gr6WrMjecOK7ZWOWlKtFG+oPbWfbzPog/iRoWmGSoTBYpKGoNqcidN1hnQsoLVltcW7UggRtEMvrLloxFgeSgtDjl5BE6skPyZZPj2seyzmCelGFfYBnHlOCKc0uP4Dq7gJF9ja2O0PneVoAJAKrZYA3ixsE4VuRhPfphJmHjAd0GMqIXqYmPRC3UoFaLdBRU+n/AhRo88Ro/EezIhT6T1nHEcG2Qsws58GKGp/bmDY9l0Y7SiwnJewm1N6TVARVTD1UqCDgz5zdF1YfQlK0Isl35uGfHIfNsii2a6XXZcB/NRUCQqWPmCRiAysoH0vMQL55ZjNGZumRnJ1tYNlYYLTS4Mvt49FaHkRoAzLeB3eCrvZjn/79Uf97YUlv/XWW2+99d8FXkqs6GJONC2M7vK1Xe7cKDPnII30r+5zt0Ix/ZjQdvLVLIAMoQL6SQ1sAwpQ37mcltfU/J6uaiETNdK+3hDHsxwYqiboniu0wBwCsCj2/EAXF6Z3KNhnRakwhPdK9aqRcVaur/kc7KFuNhheyDxSYOPQMO+xe9caRW+rT4lF/z0qpU/B0+bVJ1O7kolqe42VhXCXW5g7ii23lfQ/KMFDQ5vzs+vNm+3WWjhcR8tvIOgaTKhRCLkaL+6W6b43xglaiuZbcLMrS0ohjA2e6WZSTY0ENkOeDf4B8v0o++U2B1DDPV2pwktIs5q4EFP3eJslVQbuSvZCn+4R6+uTYB59p+SCbQhocSjXqedt1Khl6WQhO0WXFU6GHFvWU4zRz+dSfWN0xhAREocOqWdGrncCv3SrIWLyBJ8xR/9rOOT6BNj1wRFjNz7/7sPPhFA/O01aJmXbm2D6ZXLK3VTuBMw/P/N///mXVy289dZbb7313wdeOAYUV/sDE5WfCZYHyzJeYh4yxaoOC7Wa6OdL3EXPKJ260frX5Z13RB8dLfCiZUVJ8C9z0tL6Bt7Msuksp9/tTKV6WIPo8kIKdgEDQh2Eis9VM6V/ryjmFn3+mlaG1rzRi6zuiguI1P4tg2iHtqQvLgYRyCKQMh3EGJ1oSG/VDIpmFEgl4OlSTsvRRzu4icHKnWYe6p2MBu+3XHzhFzMKRFYTcyxjOMBd61wL1XXzdHkrp01tRSC2yV45fXBU8Bxggmu8+QZbvo7mhr6zjUw+YEr4lE6Bo7ZZ4jzxuzqI2VaARRh8c6/jAsQayPUXRO3Xnmplf5o1ahNKzmxjLGCZsavJoaGjGL7gPAMtSAC1jdlYPm1qU5ecGH8jS55j1YQwLDAfA8RThb+WF+bB6XluGCfIHDnLu1viZ6KKKnnmsSfLtTVOykHnYTjY3xVX3vqSJ5f7NeDcv/2O+tOzj3/rrbfeeut/Anhl35MRfCrJpCP+pf+vtSd38nLBBtp5j65dYdhQ3wIfc0CmhcFPIIMOLr0cKpjNfEvtPRAWHDOszzE3TUh/Z/67OXUREr5aUhi1nXbbw/d5pAjwtfZqKicjE1hpXNe0+zNZwAg41mLDK4oAEGZQAZ+kKX3QGt6znT/mlYrNokpu38o2QiECwZROnppyllq20a1X8dFit2+mEEWzQvehD71othy4noBZnnT536NM+Uw/Z9/J97iH7u7QSZxkwo0mTjdtHnRdHW1osEwChw23zii2wRsDVKu4qESXNGiRG8eSw2Jc86T6Hk4YX0KBa32ioVprQpQjOo4qfhbpDAv5cYRw4xP5rh6DIT/J6fqDvA9sz8sEHBT3yZnObjov+RPWFwATEyG9EPp0jS6XU2KR+wflaVt9TRANBJ8fn70oE1GsBpx5iWUK782M4hczQz140sDur6j6jz+9addbb7311lv/g8Dr0p/O9OszCSDD9/lOfmaWFcSlQOOeeFN55/QgXcS6Yo8/07EN481Lnw5Aw4Cv02K7ibX5X0wFBDiao9UBbVD6khoqMAzjmtdIGy5wZPik8N+nSPAifCuOotttSUpoDR4+4JDHIOGANYYBBDzr6ExALROLe1GKcR2TxlYOFGSzAJ4lVpUi/55ekoYWjKpW5RQynQZCTFmonEImoXPmYSmNTas5EiN4+5zDNheAuw6GvTZ3XGzHAbol/DWQscJymSqJHX1PKmvo2tToxMdLHamwusKdfapxBHa9ue1gA5MWMwD4dwvnUpbHVgznO4SRBqbtPrAU3p/qHbWE/I5NrvddTW7oeY7QAyigzza1XMcG8NwYx4N++9nC+sOMYbknR0KWfdfoNcTlw6X+Me0sawm3FkON61hL7kBPrie55P/luVqOd75C5rNj+0GMpkGNZ2gV6z/+/OPZx7/11ltvvfU/CLwuDaYpMBSwcABJFz+0Yv1qoWiO5l1YZVFo9BtEoLHiLzhjJwvS8uThQ9OjZFOdos+oS0cvkEhA2ZJ0cwmIi9bRt/V3+RSlBrSUSvkBOuwssWI4t5VM1hCJyh9XN+h5/nyHDPbtyYtcjAANV59HD6emGqpAqJrhVImPzgkxSrvGClgmIwmg1ZhBgIlb+G928a1R6z+nBRdfZ7UQ1nsf3bVg5BTrB1fLEcCl33JoRkCfE9VHI2a0t3Cas75CleU5QamwgJw3uQ2WaZveUVSxYprGWKwAG7RPVCHxEgjbfLkOHELDL6iAYdvOzEsuNboYvYcOC1yyzdgZadER4HiowACIIbTUh1mRD9tvVKrriu7K3VjrUDfXvzgdEbk0AzjPE7B9zIY+3dpV3VLd8U/uQzGw4Mq7lMiREj0o5AmFGb9wrexJD6S2cMQyijaXps6+pyOaJH4302XonhrWn35B/dvvb9r11ltvvfXW/yTwqqUtKAWCU5UibNN9ii9V79if2wTGutZfqH76SpexC8VGuJ35ZApSIdyHFy8gvdAFhaISdBdGTpEUpLfIgbgDWgAxzLyC0vmF2Nq3E7QE1IomTStdqv0WBFgJILhZavWFG9Wnz+iOkKik+/F3OlbDj5oy/fOuMoVbyGxZ+xSqOtSVcm3KOs2wnKHww5aPgoFs6DSH/omz/IQBwmOCMdwQdY4KpUJZAFFJnvYwwtC4gUufpU8tPHiaA7SO3LZK37cF2R3gXkqhdQ0lCwZCjkvn6aSYcyblXKQFuFTR2hyhBQ5P8EC4Xg7xhEgoWeYeijYSuW6qer4o99Q2taCHSyu1L91hAovbFqBSVrE6pUS+u9GDkeghp71kpQgS5g44J0/j37XZo40OcGjWsADNefE4sVz5B43TjpxWV9gb1o3paHt8B4iryYwFxkWA81dgnfsAZSnzH0ONN+x666233nrrfxR4XQc+aQHeEkw0FndQgS52Z5kfgZ4UPdHStb6Ob+clLTQ2t54vy8Lyhq3w/6EAq+lLtzBlZ7kc4KhOgueDqAddSphCuAH25A8ahsoITdUJ4gV7QtFia4fONCrhKX0YVB5thAu+JqylOzQeKtwFReNvX+fFtvL3ieUwLMDMtYIF8krtN9zU1E2OX7vWRkXNgqmm0ceol5YcLwzDQ+wDmsV7f53j3O8cJ4dLkwGoOdKbdt+wPCOau6MfM2dNSYQDnQcMm3tohd2+AtJPBlJas+ehKxhgaq3Ye6kPl+PndQffSfUnRyEptSXT9EwBo9oLgtPUMjYMZEM48ODy0JJnmt2I+IJ6qsOVgycJEfgxL4d+Gj17igJUMq9r379cFF4uLku5ncI8DS43d5j47hPnYjQRqjCojdaEIKIJ16pJbPxKsXNtYyKYoc/V2Orw2vSefl3/+uuP+pdnH//WW2+99db/NPBC0XJoblZU0Z3VpOIGvCgB9T0szlJhN38KjWZufbrUBX/pb6yl8pc22P9b5b5epNPnLoDIyYvoMXLadK3YRQOEmPSkE10WF3pMl9JC9+m/zl0i6FcnQZQI9E9xfiVK7gjYdV0X7P7/5TvBLfPBgDGmT+tphLEYqYUuw10sAFNVZOdgMZvWfKMs6ytys4TiSAfhnlflnEcKBe5OoGLyUVEU1mKshpqbkwbSxEhGbPEN6THCXi1NC3slzKl1ckN22P6x6x8h11XfFE0QO4XT6FhywYSf1o6GWI4rPhf1FbrVZhcefOPUPvUQljH9rEn95XzGuKU5BdwsgbwlJjxGwXOMDtG1QtBoG0GI8U+cVyxmG4DHCsA33Ljfxva3ydpxC9yopPMH3f9DnzkYborQLDXLzvNunUTO1yp1jSBnjReojPnnmnIeAAAgAElEQVQSQSmpVh5bs8OPzgPL+zj/v2cf/9Zbb7311v8L4CVRL9cVzDNuTgeS5szdhbfnstxiSFzHQCH1GDXRpymauQNIXpYVHIxONNuyXf423RZOPdtEP8BrlXULpqUKGqWF2JSZZkRBzZ3iaUHzKXiAEfWj7lxGIYM7Ml7TjmpDigM+zrWys3NMUD4aip/HCOtOQyiM1zocTuW8zMFz+vT3kK7lQ9imB5WQTDMNSmbUR8O26DEUiporI7gNlQTQufzMVE50MJ+o+jrKmQhM0Cq+hTZFAasIjt3AsEDZDHU9ZiL6WaAbttjxUm/aSehdYp/2sGCWjRa0gF7dDcRsoloH6MihbLLA+qKDot2pS2ksRgzoPacTc394ISvsSyOEghwLgOqRcgMyJx7r/M0yqfReoeV076HMWLH1hKUSaaFBX9zAf/lgbXze4cQizU98Enqm45eeXJubKWIYHCLGbJmJaQYX6NYmSGG+wtCHkdF0UIhHB/+V+WL6jqkIJEf9++8/6s+/Po7hW2+99dZb/w+AV2duVVlYl3gzKLVFX2SnWFFh/ym8oCZj6S5ndZBSFzvTi/Q8n0tHURoJxAQRHqJb8GwpD+UNqpVMA2g8/87RodABGRQ6qd+NItlMJHwsyMOxEVOb0dMMmFP45kKnzV6kIUY1/VJVMX2ucKc2Sr281B4emmYrUtrDAOLIqLbrsPDp3hdeVBUqcoWqzLJ8pFbDnftIMThwowCgqtY8rQCwlpQ8Bf+WVsQl52ehH66uf/hEHyhdsLTY872S2jk3k+EF0kZ7DHe/NLI5UyYuduN2P5e672FgOgx3zwXZgRUtkA2G3ntKJ7PXBW+HrjKto8QS4GoFx2SmxJRGcZfk6RlkQTj4EDKhogFDe7ZIU2NsDyTI12NwCmWOqxBYlHruJcTb92mcM829o2hDQacbSjMFcu6gGj0RozLGwBjQLTaaPsO0kSEPOaPIGucSSxZf5xCCQU3Pxlyi7nTeF6HoLy8s+a233nrrrf+XwKt1VkuZxFmIabnZDnJK39IaBdIdZneaD/uKGmAqNTc+TnDSuXSLaXZRVXDzBnr1jFlWD/G45XpRO/a8GrEOLcbNGjuFyAUDwmWEFbpKlYObZJzikxRgyi4k3Sry831xyWBOsUwQoeYCXsRfmo8VNGJSIGYKZQYiWdRXd9ADSu1W8thDbav+//bObVvS47jRgW5KlGiPxxrLHnne/z0xF10ZASBy01eSyLUyvSyS3XvX4T9UBTIQH6476ipHs8qDnUOXPazs9Hi2j81FSd5V5mnlRbNR5ublUtm7KmjYHF1ZgLILN1zEXQqBfbxodkVtsUhGXqY4Yb8//amxeqFVS55fQGyJ534Cd2cxOp8IMAfKaYrUEC+jqiIsnTVCIT/FwNVG1ks7aZR9IHHLfJpPE9vgYPblbyl3CGkOsawiuvqhZzkE1dMpRlBguD+mTR1zYeDhQlYuNV5Ctql+zJMfhnBA2M6F+szDSZEEkdyMOzAizGaFf0RLt5tVFy/o3nkxKNEm4p+/+8vPDx//1ltvvfXW31F4deZK0ehinkt6BptnFmqsMzNUYbhlDnUPHyvaCVae7zw6Zl3sjrZzeWyH3X2DQCFkrkQCkKGdFdKCk4mTQzZeH6qgOELFEPBRHNPH1bFeU9SclpYshYR0akBciv+argmkMJbw3iS7zQ54ZvbIa4d3RCCYfbWhoTtZ9B3zFj24CxUtcuPPqNjvyIRiZTBw1b2X5Eh1HbhLYa3QC32dBNbG+yVxuuoyycLVMamNZg+KmzKthXNotHqb8brYo2gXl+3zh86jk0Sp3Vcla9YXbO4zgxiZe/CNBIoA7FBzFRE2+5cdJhUHNPsYMqPCXiFDyEoMg5XReX3u64U1nwWUz4cLRFJy4PQZYLN9xH4a77Y7Jcf1CXeIcbnZkuUxDyWZYhls3lY+tWEiP5SmG0zfPxBCZ6pmBw/5rGuVW171O0H1XoCYQpzyFrwFzDVcGoB+796ajVbU4bLYfv75x+9V//7Ckt9666233vq7Ci/Zd6YMqE9BLyPZmFkeHWhnQBNmGBxioZJiKCyEHdjcBauUj5fv/ZlFajb3wsJbCYbLFI6IoCMaad//MLsipDKnWWywvu2tCMAuyikisRHzvZMcVOMPdl5tRhZbBBdS1HmclWAM0TFqcZMBeDSSpK2GUNBKiLdz4RA3gXIRQKDtfCN+cBXIS275n+WMks4O5S58TiPd5vSvtq+VPaSzgRJ7kHLNiHcqLjR2YdeXu9ugmXB7no33BxH/Ih1ZD+8WlomZHEcTKW55a7Uyi6cbpZAW3KLd/KXidgTi7OByT8XrplT/CIpfFtr+WUIZB+PdE22nBeu517W+ZunO5tNtHsttjPVFVpW6GamtSsa/c4s+2OdTIvuZelqshwoYGdFInQEUsuxSbxU2XSYcZ9+htCgImjZzS+XG/UO/M2oC0gvhYKwJlz8P9deHj3/rrbfeeuvvLrwEYLHylCSTyllRsOHzsYRMLhPlW+584UKRCsDY+FrsUWhxZVh77QYQ+phRiIQAoHZ//FvZvtB1d7hnuTihvGrn83kHTe912h8OuY4I/Lt0ejjChkJaW/0Whh1KA6Il6FqzjDTsum1ajJDffMzIQZp/wGe0oOUtzK4Zbs/oCo2iZGmXrhKVeA88zSIX/DIsNYUFdokmpEN+AdvD1/z0sEwtvoNmSZmY8Fmme61HKxwpFz4WgeXyq2fDJALGr7o2Q8nrEODgiVHJTIisK+tIxT3DG+Qh/wyQrs3Ol7p1F/s/A7ixJ97qShJh6YaKEgPRHSiG/DAtxsvs1ToeoeNUwNFtsk73NHbJRA5AMPT4YrZMPjsgx+fMg3Jvx/hmEmejbUczoO2V6zVWOQBG58YuWXzgV7eVzkVigqrj84Fy4M/1DlIy9zAfK5wQ8NFmP/79X79/q3/948PHv/XWW2+99XcWXj/mAiBBqwg01xnhUeLgVO6QFN4jqChQDdpwOSegteho7pKuT4klkZwcGRVfCs+SL1mfw0A0D2Q6Q4qF2Sllg7F7hiHsarNzSpnL8sCz0REYYVROzoIpSCmog3JnoucESHMqYJQi3cd+04WRIcQx1kFu85zOy6mu6OMrghI2+E6jwnWpTtrxmG3mmGUxYTfXCi+CwopUcFEcNyINtyp7inVkVwU3hTXziCHaUhjeRVp2SLxNdXM38rOrAShEQtp4FxGeU5iemSWbHoznpPQVdKyP9BmvBcYpEVgH9W1myZmPXBoa1+PdkQkRwb4gefDIADfJ7hNhOVS1RfPtJyo6o4yQLVxQ8zebYOb7EvK5qccn5i13lzLmnW7Iwnjr6hhQmMQOpWZ0LqvntI7NGDJzSCHnKKbdPMoKP2phiyCgZse51obUzauq3X+GsiW0axoujbrzTv765+/1ml1vvfXWW2/93YVX5Zdt1KBdFLNk4PlQxOCj/IZUH8E0EI4zAD6CQNEZ0G/i8zyCZj+CQmOFKKMgrVTMm7PzalCbOsbGrIvN50NWRLMFsK00Mv/UAotTuE6+DE0S0koDGkXPaZCBfcZgyM1Rc3aneQppevGmoV1dyCqlbIAn2uE8Aop54IKhzQB0dEFmhSculWhNcYSZHeOiUVapLRYaPF1xFZMXwHYGZWsB/RE2K7FaegKQvDfNDfoS5Z3zUvPvlCI+OyWOy/eeBBQnn4TRi1jUa9HeK7ZJy7tL6K5B1aXzmDeSeris88c+bkvbdqcyvXlzR0AAN/ZqFc9ZkVMm70i1jTWmUSbUVoZbxe9kazKvu5xtqrrPan5EAUo2PhB0Slz8kHZPa0t3usWMMG7cLwm53lLu4PL5L2J2oes5FNO+f/Pgwc55dpyzI+rdY3gmon6GqMBj2l3LuqZjJoXN9WlywP/++eHj33rrrbfe+gcJL9iXpCKmtHgWwl7OBxwiFzH0QitcpIDu7U92tpROdWtBenDmXSklIbCku6TIrEata9Cws9qoCPWTD6MB0mfHNZFdUEuku5pm118MZVq4HsEppdggoe+zPVZVNw3S7Un4CKXB/2uRiz3XAsld686jAFIkVFjn+zzglBvwkNTAWxFoVqSZeUqB5oHb+vycmTcnWZgSoBAv7UUEkn7sltsfRsjVnCFvzPMml8cirOlcI7wpg5iK456SIzFzSCFQNVIhRdzC0Qf1wSmh0eWBdzTILNFdkEA3Trp7LllX2HALcknE2Bz4laWp4qVwDf8M4w6IGry8qQyECL1FB5RlVc32CcPXiuu5ZIj92Qi4qL1b5xTc8j4Jf3W3c/ZGmATLK47fNI01wqAN1tL5W7OEZ9cZlxNmm0GzqVaSDbikKn6FdMrbZkceMtg1PZf03Bc/fXthyW+99dZbb/0DhZcO7t++77vYi5Hy+aKk2LCOLQ1NHiRlTuAypDS6hqH7aORArVvZWTRO1CMToY0pSuBdGFVOKN+Rh74/0AJTO+Zst09mjsa3uKU4oiHfuzy91BY3M9B0DAcIwAPksEwwej4VtIii0dHm3MeOt3agUBUECwu0Fg1Xy9RphySC3XR+Iyu2gKqQKvJk3J+BRy/vuFQWyJdJL2DX9SoKNLeo7bigASh2/yBparFhUF87EzcqBE2e5EUAZccL9EwkZw1gw0Ly2actZOdiZxFfSHmfe3dHG1yOsQaL2186u/DLynpx/1hhACybMz2vWndNzmsFkhH5K9APS50z2IMLTPhzVkkXTzvorhBxewExazifuXqjfD2naGaC9d4SyLM3TcyG3h1wGpm+r+n+HPZPsPnsZWSx7euf5lSA5UuuDaqV6KDDiLTZ4QN9Og/xf/70vf7wiBpvvfXWW2/9o4RXOpeQyDMKbELLGuoMNCWLimOri8qWtv3thWhvHFtnSEsVKawpKGWGCDrdtIZNlORh6U4/pqsmg/WG9+46UCyIYv+jiE8tVvQxEFxq2N8bRWSoe/TMGX3Ayf6C0Q0ZGL/OFvrM7mkdTcJ2g/tYybE8KGmKH4iid5EhwXFeU9RQ6ie1AJlH6YtwXznxUah9ApTjz3ctqyLRT8ayhOX9AM9gMySGisdatb4dHztcFk2lcyj5/hXEoZAbEWCre3WE98QkcAnTVJq0VDjYeaGHdgfFsDg5gNRYA+k+agG+x+Ic/e4CRd9PniebmrROVtpB74INtklgzcyr2JNoDLvOd56WZ+bNcVOJSXJ5GK2TuMLuLGjsc46wBOuyu0r2WeZtIQmSOadmBE2Z59KJ1abKysfv+MhrBVQwj/0dXqObgcGmvGwU+IYQI42OsiGlgvnnb6i/PHz8W2+99dZb/0jhVZHt00UUp2g/XaxTMCw+HGWWRL5jNbpqrCV0knvioOWb9GTzJC5bh+rDBSiF/gRwjltv6HvUAfFPBauPq4mkVNpi45ixg1s1cDrnEngJOKYW4bDOF3vOpjbz3OaDpKtn4kOLD06XqmltNFtmCWES1s3CVcww5Ya2VfSHwhFIUbeo7KxQClzjOQg1cd6fT5HMrMvK9qFbIynqSAs7or5ga8xuPSZldpXeUTVOsLAEb7eIDT66AvdM6CzAg18SSZDU18gG2ehx//Uu2zUgWr2s2VospeTJpgfG0ukn8nJs5dmPjdSuL17g4VB65sQf1EW4WW2PQPAxrycui6D1kqCkyRGrXEEFeT24OO7HxOX2ufw6ccsNkPnErw6vKv3y+SeLZrsQLob9E11DpIC62RUHBDT3m3Rb6fewbp7p8Wa6FrR1Z9o6up83q3E5efTh499666233vqHC68MWS2lFB7hk1YwuvVukNUCoTDEMve8xCmIlAMuSOjTlUFxEQ0VDw97YtmhHU9gFxBHNELCg7X2b6HY8+uXeQu4tdGia0RAAAx8+BkYx9SiOZf2eR8aAF1STDObQ3RrHWSW48xCobLLIKG9nB1q0ov20/2CFLVAxCVLV+0AVKxcguSLybDZxlE4c2y6lFtgwKhy7M7BWPuQtZaEQEtkgQAe5BTYJSr52mLOnOe+2gWNOEebX2ECvOmbBkfEWzNUhHl9FRirr7f0+IgItOOsmxhZ5WMD/y5dPd+jiHk5ISVe56RCoNorNMrdZS4trn9VVSwGtp2GD589HVxnKidGHjLPWXa+Z85pNikaFiRdX7J2c79iZgou/Nb5NKYf7ZPELwTP4dJICNuQUcFP7M2QCm1H2Icb16eIvxePDGB3vhCgGuF19L1u+WbQIxDGWgUBobVc3e2HXBtg59H+5SfU//r54ePfeuutt976BwuvVXH2TJZ8LWPEhJTdXfAzdhIPOrhzuqgFDwY1bN/0Y2+CzWEgCmMYC3D2e0MIlcw/yQxH9il0R5sXxDcO0OHTgmkeyBElMrR9dnfBsVhZb8PgFdZ7ERHFJkkeNxJkhq5kXg6QDCHjv7OhIW3bPIAR61jMPN7UY9wbxu3hwsQF9IHdnagSbHkqEtg0PeS9K0Vxk8r66MALdcteK79kc0ZogA9StUW1qe9I6XkGoZDcutxL2G/bk65Z1wiw6b4aVQ4GdDDyYnkduyTRDbags4Byfa9gKj0mJ+fsWMjoVloXDhj8vYpNOv5br3lSiZ1bONw6vp7/NJlNuHSELv46kQ2w92xJdMTXAAdeQBIXO/XOLvNfRFNXlwozcaP5g2czapqQl04YXEhrx7//LAAqFTFowSRcdzGCxMFg6xhRcmVy+LUB5szcj04tRNLrZ6R+bq/Xxv2KWcw89PrPX356+Pi33nrrrbf+8cILOixSWnPRMqCmV4BGkWtB7OG7EPtNxa4/u9hKQVEqpyJoi7o7WtKlktencAsoDbFtaNg72F1YU+Z5XDy0EKBmj3FDuEB7bQUYHIEmNMpjfLwGLO9uUJyPxlSUzsiZVWMUeVzPiaou4OrY0ejdFJhokKycEDVuruLXBaAKXaFMXhAiZSyPDHS+88ukPh/Yx3QmszxzzLVe+9BauEUpu4Oylc4uelfeVA0IAZWqrvy12GOyITO4mMhGEN0EwsQCIK17KS5rupdt+1KaZulNR3eGIu1tXDOZtnGSdlW1DX8ELqWNrDU7hKLHmnkj7cCncA2eipPuLv+EtWPqcj1j5kxrZkcT+rDcwdcTjTAA4GoFPV1ESlcfsaGTutlUopNeHA6UHc9++5gYD904YmzE1IXTUUGN7O8VODCjFBDKdZz2nCfFnSCzZV/E8J1Nvslk/PH+/+3nb/Xnh49/66233nrrnyG8rFAQhDt3Kqvb3zQ3qnQgfAohiCBj1B0Nl4Cg1avc2kKLnJXigm6945R8ahWCjld/dlHZjzu/z09nyOEb7G5KIdDwPAJIzDCRh3rmaw7Yg4FO76JDmRhU/PwEJZvFTwQihR/OrLEUVAC3RBa9/5QzKDh5Q2LNOXwRaoB0DnHxkreUNdlXqGyk7mCg+y6PVdKhoxR34gHEbbgDJmfLyj5oiC8vhTivu+1X36FmXFWGCUdw81easm1e1JPTWw0K/0jxazZFHFphhBL3/9PR7jrbVZ5Jl/NgbegCJymgsiIusxbHZNB0ewXUwi81rve8nUz56yx62udF4vwxUef0ZhDl/iNktrQU7uKxz0fA4HqRsGfTMg5gYd0Rc5qy2QWWe6XjWJFbyMwMngcnQ2GAhjCdGb/uBgKWpr6t5BiXQNuXaRZ0XG53v29QZhe0LqTMT+pnmWeM+9sA6jtQf334+Lfeeuutt/6pwqt3VSV9h7MzihjGNuFQSrCSPheks2V0PtlZrxkct/mqit/tWTOMIKLMDjXumrIr6ywAQsUjdsBnFKIz13NqJMqc0vnqh9mSlMEVbp9G7c/g+YgirYggrxO6zX+EAKRBaUUsJ5y6BpsMsep4/vFg+o8tVB1WB31vmgBTjCd9jkb5c8S7lekrz3pmxJqoKPa+2wa+4dmPDRAjmJ2V75UdvqhGsUh2ikug9NSOSBEEtwhN3yDQuSwIjS9nabiERYoxFDT997N5wJ4ZXNS/af2Ots2WgFAAW8pA6ThqA86iNz8L9rxUi4/eYfjKlqmdZJnwImPmawsL5JVGh8EkobR4uzZh3RKfLYsQ8nheCmVUryQKiGc2HJRuAu8YwUPhV/4d/b6dIO4aJH7GGVZs6Ng+VXg4b8fqbMKp4EWKOPmZ6CzjppwvdkGqzld1zL2xkaIUIcbnksciIqJY//Gn7/XH76/b9dZbb7311j9JeHXRJbu2RBAC6RlYXqxg14+olYYLsW0N8GIK+aFfZWiuZS57FtUh/0nQa+K1PTd2ttHxmXPofJdyFLMRA7stQLMbTdE16GSFuGUsNU8R1zvBH5Hmg2lx3KS0pWECdvHHwc0PJU5eE5XMKKBnnXtR0IN2onisOjoXNTNP3VWUF34EYuos2LyfiFMsgLYXn0pZ08Irz7EKC7PM3oNxd1PNYeYa/trHAtGSofNhVhCZqShqXHhltpjuGkBn7noghiZSRldiXUJ6Y7oVzyWLn6dTNI9c1/B0O/ZtZ4xAJwGI8GIbI7aiZnTLWLfgdK/F2d2rY/NliJkAjQCmbTXMHDFbpvl1EWIQVxuTaW4O7GPtnRtACJw3/X3pgNkcJ3QT4H79qAjvLuLZQsBlQ+S6cgdDN+JcMFeCf3Zqumgvp6ECG4g6rgVVo/QNlFunWOMvLFwa9cdv3+ovr9v11ltvvfXWP1N4dUOpZyq84seHTsWGSsi4s3aODl3LYpJURGhIJyp34y3zUnY4WTpXNJVJzzsYorB+hSQmGHXJRZoZF656w4tvSs3L7hDqsdHZN2teyN/dIkNpxZbMc4nobJrywfFf5sqmwB3gh+6itxyzlGGsfBsHI4QlDm5ByrihHC25zWpE2daVeHcKQd8NL+kw2FAHpB7bBeT52S42GcADcmcfxRvywhlmOTOvrfwaUymyXAyL9LnNx/gxkaITuDDveTmeOvOIL4KK76QCnM43HPQ++XR0u3BTT6NlQo8yUDHu4lftrvBArT4M0cpZQ2Q+O2T7GNEBU8ukzRhmJzaSqlG+oWIThYDTIVf3B91JTGvj9Bu5Nhn8Mg0BTzd9LpupHBZo5630s8rb5sh8gtLMPolsIDwmPV4v7LzFtSfd9arcDNmgJTsR3N1W7nFXUa9+X//nn7/Xa3a99dZbb731zxVe8tWHaY04fU0KUo9comAjtNgdfHuqKRy7oG3vSj0ltSKzCJEumaKSewgcJZ0ztGXOyuETPkw0fn1EDQIvzqHSy5c8G0We/YqAC8i8kSHfz45s7vprkUdHhEH+0jpzHGug2u66OGoCYdY10mn70po5HRaFI2C1ophv7mv6GGuFy8IEjODwF4VPg4ZzXgl1Af61ZZPiI0UlGbFqZRbouxPB7uJZh5Z2aw/W/VB7oyJe6j7HBhpFBotoGN2ymAO8CfyKDYniF12xc10j2J+4VLkpEjKUFxoJQZ8JLcH7n40RbhVqEQWh76AzdNYszseKn7FohJRSWJ9lpn9XB3CbjNNmC+pmxogtZsTCFVKYL2QEud2vCBIj/TFORxzxYa2CjDHD6w+mEI89fWt024V9LNtUWe3QcCusIOjwqW5IkXoRy1VzsX75CfVvDx//1ltvvfXWP114sdR0FrvxCFgXrGgqGTIn4IU8M3S5BMvuXY8BUNSalYDWfTXYafKSJ8pjH5SiCLP/f0ocfmZZDB8fZEcfLoEV6TDbjBAXJTgUMqfQczjHitjFdNRThRZcVLQ+Y6IIE7isGVUzC+dFoO2Ow/fd75YdEQZEACdgAcHWQVEC5mXWBBXqfOnO87u0sGrD04daRGPxo8O2itdsd8ElDMNSpa+Jcb1WDLqEUEZM9adA6q7rAgrkMboRN5jleGjG6KiAFzEa58QgJtIBovRivupgxlOgFmd+LMZ50cPDrCOVubBeuVgAMYKXu88suWfcXUJu+WrvINu4ZXsg3e2HkU8jM6pqz7SdEG14G81AN0XvuOuOB31eyfKubjFWqm3kYmMEaRsN9nqM5HlQFTQT3yfIj9GbRZS2NSEbWv6ZXSmCiZVg4f2ywPXL5+X//fP3h49/66233nrrNyC8Skh1UOBCdUeLkfE0nRc2hEE3Ho3eBgrioQRXvUty3dWnWrLgc16rrqaDPaiikEJQPLXoKSShBdFACtDYZkihp+Gsaqka2AGkS8RDeHNWvnHPkvHwg4Iotj+1MFJntxy/DKNgIAZ3LhhBsEEqmrGTc036bjsvCzOPl7MadaGJcQdJfZ7Tcf6268+vcd5kWJN0xk8KwGX1KhUAUxWvcHC9kFdpV5Mx17eBZ7F9hTykIDg75y3Hv0x8cbqVNffU5Kc5owGJsddBGN5gGP5j3LrOQQ3uOqx9hFKgIM7bthqqvRfl8RFLQLJ85ouX/CsLDOZsHOQbvworYVzypjD1etZzcgLZnVDJ0OZt0O5GP/szthj3g/6uHg7AhLL2Xm9jcNrzgbkCZdPiIqD39cBrN9nOb+SsKUzG4bMXimM2ms03zXI7I3MM1vIEcbEl/uWP3+uXP7xu11tvvfXWW78F4QV0YDK5p6MbTmAwDXbmzvzRQAyAmR2akGV09wc1VsPuDKGEqKidLrYN5QSJmr4QmAWwKwClEqutyg1RH6GU8z6zXWzVxinuAae3dWEuaHNYtlkKzTJmXs4lDJ1QKhQvL8oqKJThtXVchuVhwb07zCC6YWxf+BynptLl3NLlnRR9HsYzdijWsjn6wMXip7bGSsUtwkVm/NLhRDluoHe4tIsDV/CeB1YVFi7JzkrrX4R+a0ELRWKX0BejUh63qzDZGAHBDBonv+jPMApswubnSvVLtAndovtrGIYdXAbAbHDn31e3bTWhVEEmocfr8rulDBbCPs/BL7sdX4cE727VXOlpu6tUHeufDfnQmUuMcDO3wZox9U8FEBPWntbGECUtdtIhAP2UQ+61WISGKivW/bqV8duFoz/fBAbr+SJ7q+TzeClDTiA84ti72WIs0t8+s11vvfXWW2+99dsQXkj4acwAACAASURBVLLzj9Olqc0mBiXZVCh4BnaLYYjubpk1TGYtOPaSLkqFV2zZUSW7/lZ8wnaONWsMQZkGL+G8FGKiEew+Qa0xu6PD+gxLHXkywWoP8kORC/R6hSPwMri4uOtbVILwT6aao6wFO9ePSciue+QOUXDV1CcFIn8pyAMlXQIt/C4zGWSS6qgEgM35gzw+3TJaZOQQc+fBmuie19wEPMDnGS8Nl5MB5G09Ab0s3LoWtBKHUA6YATzzSee0jqUWhA3VMZjfIO45vzb3Rt9IWPNT0q2tCeslb7TCLQZSvJCXohkX4+TF9ukWTQ0O9vfH7NBOErzRT+ccbbE3Gw00ayNuXSS7viWbqlw0fZHV/bnusTLAkXNhN4Vqt9bMh6lqvtlr57q62CAvgjP0+XwwYkLP0R3+EORfkRgF+GPslYC7GKNGvwO+EMgaG7n4Hpyb6a8PH//WW2+99dZvSXhBuh5k1Bdrd1N3y+HFioAAUjtMi4q287qtNGMw/BFQPKxhHCgCZx7LrYHbFKb/uwQXdL4AM8cFL96gYcsfBTBFuAg01amM/pZzMqYTJqAH6hyVEB2VebZACDr3cM4P4AAP0dANEPkcW+p8FKf7Zlm5lYP0Yz3Mkbiom3cuUHvpaKCGk0fVksiKz4k40HkXBq+7C9+dd+wUbs6RnE4eukMYEUt9zleobHm0QtUlCDY6RfAJQSNJ8qu/wa1YpaH3u6tRLg7O/KbO6CgV0o6Dio7sWp6rkPeSfUAP6PsxrajZRXLuzgQ5KZOwu1WXDgtM2U/G2cBm7A18SY+cfD4umk/Ddw6xVQmmrrWVdzlCBftFt235HFXGfdT5bJc+neSoUechK+cLVZQgbJ7bINphCbzq6oA06rnJzrucSg8ZkPsjsh0rHdIe3L3EJ0Xs/6rQZP3x27f6j9fteuutt95667ckvKgCRL7caFad6p1nCCgCkv10voYbHAEYCM3Ce2P3uPIfH5tbh67ivkt/RAFZNn8Fzp8v4SPFxtT3Z7ZqDDrc7jahml1mzQDPvYUWM1xgiOl8RXlFKZQhtjSdnFBEMySTCzL7BbEiIWw4UkwvexTpXY6ScFiO7ZNgz2pZuDbUJim1kFZxlwCecYn660nggFkl5WdvPRMPH44og9w8iELXClju6m7mGLd4ySBjg22AkS3n5z67Zvk+cObkzl9Bu1V+/NSm6vS9vALFbta5XXOPe3m+X/foPCF9qtUQY61kbNTwJlIJCV3P3K3A/uf4op0Irkwzd3jCN2VS59wpLS2qqDbkL9imZi+mXsoIeMb8bhNXZZOj9DPaztoOJdZNrbNlMzEhgZWX1wLk9VYODzWYiGotiRk3NwHL49/jieMaUjQ+RMDZe790f30jbyy9//XLw8e/9dZbb731GxNep1gBVz1qu7tV6r0vn2mCzMJETd/2uTOr1QHNFJHlFD1oMC+mI8IYfEAPtueICiJYl2b1OTvN3fWSHLMfL8kHMXRqxAoiqv2Ra/fbC0L48L68aDftnQM4eH9KJ03nk1pAfubToLZJtQnR4RBLLGC6YA0p+RwUHbH6UQdDZtdu0cNxLHLOTAhwemzyuHEJZS/PKq8PK1zLs6H6eLqkuRXjuKl7+KzVj86F2ha5YBV6IxE+r1Uh4LvbpnT6uhBlysV/SRGMyufNq4qxx7HNW1PAcs0jXgfbkOdeRiLhhfaxC/rcVL7GhXa06LIEMMxnROYcSFfmIsyh8WrSzQNvQ3dlXXwQ4ZCUcytZVXpvUwXhgftA5kf1/VqGolqgK6ZEpeueAjviKdrxeoRJ4AfzWtJ5z4wwaIsltFcpBlkm1TNA+4D3ebH23kbuc0yYoCUUXufb9Nr45Q9V//7w8W+99dZbb/3WhFejyhG7muo3qh2JA6lGqCQ2nC7M2MkoOVFNyKMO1FMoilNZjsHOgQ4djNukM9aCxPXushIMY2aBurM6NiudTSDpeUxSFJRmf/E2lqGho+UhZVLQHwuc2jDPedGsMOokic6OlPePKMercf1dA0f2j870HchIoMoJtRdSZtfoYoMbde6zORyhpfhwyqxX1uT6ON0tksLsWpBG8RzCIoOiUxDs7hmEnlaXEGNB7ieqnNcDYYHizKxYKS1npqhuzRcXPH1eaWIAEoZNm2l0azEEgHCEwbanbQCNpX199fq5xa7v0rhFsru2Au2p7GCfucgOf8d0QWrPGeq1x4C2sAVybAgEOIShUtAzqt49SxCP575xBBwi1+1CxDTxfxEZdi/Lw5Erfat/COa7lrN7y1C0LIpzDfgwZDb+Or3Nw8FCKCLcCteJwaq1qQXPC7tAbv72y08PH//WW2+99dZvT3jp99vMdWms6Sec2OaYpMCBF/7m7Sd7BmF25WkdD4NqRM6M7lajxt6DQ3nDiAArbkBBKLNfb5dInG/tk4elQ11Q8QHfZWUM7M9ufA5yHXDIEaY+fq95NPzAG9A5XjPTNE3ET/DzRdYdFH3bOilkw6pNSdPAUkHunxkwg0VQhZBbG1vkHXFnFkhe4GdiEQJF4iOm5S8CyHYH6ParEDuLRq5iTl8NRXXXPcNoBCVMcFHKRMPYI+XfJWj70um0ObSLaFxkv+iyrWI8cpggtMsvtalYbEnpJH06HCtZq68rnW+CzcSRvIrFimMxsAiuto3dC5gZT3zmLSld6KobFNG2FhyeaKKXZnmzz0WUkT7pmBe3zzE3iYbeqqJ43qYp7k1WLbf7bU0GTe9Y+W5upZUtnMvFoFsnbR1XBUt595YhuAXqgJQCqNT7Vlz2xkImtG8vgJ42O8aff/7lj6h/efj4t9566623fovCqxswGP8+sLOJmASrEouT2FimcyL/GaGsI446zngEUo2FkAi8fYslmtDr100PA9Xn8mCsCXK2HdSKbCDrsqE7fahagaUlNMO2RHJmiGiBOlO07NwprmF7beFZhJEgpY2uiITlQ5D7ZdjzBoHA884uVbnoSmbEdo3Fb8StZryd3+sCyVjzdPJc1aLg4XZsAB+2r8D2hysxu7dzvbsyYO7aV1SwIlYp4kvvFSsdURZ+2+LzImSY3ivtFNHtavk+DSQjPjMjJV5Dt1zMV1VY+7A2Q+5Xxud9TTCgzYhuQevWXZsnTFFUgb2nd6kVZarbOmqBhmTd8cYIRRljMHS5pUtYX2ahzzfGnnmhQWEpuDIH7VipXbU/QujE11Rurs5kI81Trycjbmy6VDZnP4RsOlEsmpXzsCIWbXZYQuHhboUcUiO2FNR4iTAwNBzq27eq//rlp/fN/tZbb7311m9TeBl+nFJwNCgDA8oo9PAyLl+WlinEKSgUYqddmFOkDYGOXfwcC8qAKj5zNUrtk1mJH5Q+7SvtqaAkgneYp5AMAX8fndVFQYIvItsIP+MoaKtJOopjh6LbHGtsmgiOHoxKNgK0mtSHTZK0131skQIBkcDnBWFrHPlndgxa1gd5LNtzfW78v7MQG8EGG3UxSyBTFHmeEIMcSOyfjUCDECYVmGsXUIhK0M8vHBqwBIYIYAjjDVtXzySaoRdKO228CBg9lmY1xNhVDXAQexl+C1u8sYuBC+Y87Y8Dc3E7meLOf5UgD1pwem4EZd6aX2v0mIVb2LPZ5RSxz/oK2ciruK25/27CWK95e345phHSzctz+WQmHfRZDhWKSSpT8705I7OpOjclH7RrPKzkuqTAgbKtaLZGne3lDJkxL1T5XLDZRemqTX/RHRYGDJL3/Neff6qfH1Hjrbfeeuut36rw0g7TLSvnh0WPliHzYx5JZryAVSscEiEj07gLDaAu+Zxe+sEtidMjm+eGWJ2mHpi5jy40cqdehhhIFRoj3KBTZjp/soAO00mCChTN7bnZu3SYXUEYgtFGlF9qzwF0Fkwfl/P6IYxnyTpq6QfPJJvZmjL0+jpuyxboJJa24sHLcofvKdUwgBy8jJh4eV9V3HYpUTEgjbKGDOdqfcjUm7VrRPowFm7BVK5mOq+Lfr2YDTR+9XRpKadNLWVaTKdIgAjZ4x0NaH8OA65CmLbx4OKLN964Qmly80U3YBihCHo59EmGnVvLi7unN2u/8a6U5iXJf2h4NuKxZOMJN1olrvY6DZdPgV4B+lExVQLa6c8u+PXqmwGwOA+/TncEwWwICQ0QMjvbOXqwHLnRTOoPlM0Lwo7/Ni3m7snZOONljk3jG3Xe7Yv8go91vCMyPu/lD99Q//nnZzF866233nrrNyy8piTj7C5DCsiu1/dO6gw404BiM+Su4bouriBl3aDrIbXRVMynKwcOWW7DBjivXZHjbSmEIZBlCGxrIvpeKiQpGtJFQbY6pMDx7KsSDH/iv8cmMw8DB0OKl40SuMO6zbWNXcvtQPPkPbuRBbufdtmsFohBUhK0M7dUBKJhpRYk7x3oY7r4Ft1K9KyMddQMvU0TT5qvRhUg9nseneCZRhniK4N5Z/7RDgXNfnque+sgMEHtF4ojLxTB/v1Ly+ySm3Y2TXT2cj3WdUMAEiuhxXFI4JsdrKYT6PcoruW5J26LIJcuKnl7Fn/UAUsEnoF5o8ICrilwlf05UAbfULsyKqAYpF1L53kRml2hItSOK8Q+vDrD2u2RzDO6ZGzRJu8Vcp9oN5BEhvUF8ESomkvM0iPgkV1c3K9sjmMiLo3rcxgdkkk+hc/DkfW3X36q799et+utt956663fsPDySQftLnGsabig3NulkiFd1W0biIiiChidw9CBddLmPnQmY77m6TZCcblRACAUexI1RsswFzTAxKL0nWc9BR08O8eLDcGKQBD6MmCuT0OEILBRIg72+RRjgOVzqR/v/DwVEqDvX0sanXHjMjFFpFCIMykOQzKZtdQ4GTfIRQo0U/iuJ1LUGLGPjCLzng+UPkSzo9HtUjaKJ4KvqKECZYJqq5lzG+DaaUPpbNJy6pah3S/whTjkcrx17g7yf56XZnM3VyQ3L6FWepwv10Rf7yoAs5ivL4EgDsnEtjHjHv3bAko6zXvEKfpa6fikWpN5jxQQemISIZSsiXjekKQSLjybXLkR4zety2XF2Se+hpeNDmZbFkyeftmgI+IiDuEGY9PP7kY+b9us4/X79RGXG71rWvKZOzbUO0L+lz+g/vKn1+1666233nrrNy68KF+mU9Qiyl/vChnOXWY5QE6WFD1M9cfvQWaS4vEohaDMS7UIbBvf5CYZitiHKQSMhSjsFDlRPXujqHsozEPmtijiRVHG+jrbaiU0wlOnUHbPB7j42QVmFE4BPIB03xydMTv9u3BTaIDAGyDgAw4We8TpCGdea29KMUazRxkP4WoP+8JzefkpRFFpQqjPHWWMbgtI1lZ7XDAFP+6ZXWTYcem2gR4UtUd83Gvmk0q4b2SYrZCVcmdhIajzf1znideJQSXd+YwOtPt3T4/2eS3Nq1pDaLBspusDWbAy15jg+jM7Rgwx+/X1tHYQ7FahZbzdO2ue+2X9U5kTvRM0j3aXLR/9/MjPrpCq1B0kzQOD9nm5Zk6pN39FwLAI5Qxh1s9423zSO4i8DaAatXD2N7AOCln73EEf0jvpCIpr3qL//fDxb7311ltv/R6E1+k0EbpX7qQwy5eCVhZw+J8GKffPT+EHKoIbF8y2DP+nH4VaVgrqHRC3CwWFPYUSpECyIXutAKji6ocIZZMHIcWJlHjwY6QUO9CLQxcibHpjz1FhdsC9+UZDpDemHWPlQ+Q/kYNzbgz7sY8dsSF2RQd3yGv8qDqcANwsmKWYaxT//6SzjL6CDm9OsZHFFTwQaZTOjXyXnYAj9rvLR8tQo/zZGvwvRE6Z8vd5BwaIS0tPDipgBnUXFN1hy1borwmYfZF93pcLToYeNE5N7Vm6dQJ502NiZLzNM/pN7rNd0lE5gb0tJZgo9fvbxoeypzNoxOWQBDZeg3i1k7vjvB3MkgHZKp6QYddybCHWarX6dpCxiNgVNh2h1CTiUO85x5WtpwHi3PNx6yWR3rlLcE1bKbWjijskR6/rg+YvD4j3C1HomPQwjrQo/vvP3+pf//i6XW+99dZbb/0OhNepFlwUeWDvKTkohf58Jx98OGVgPcJwa0KaeUiJH7FHC0blGtbnZ66Kp7sBrd33n2n/AoQ4ICGo5Bp7zGcnGsoktrkoNlXx/GxTEBVAsDFgorMw81cGN5jCg7rzTQU+9NR5EwaPyGTWtZTQV8N50+aL6liz1hjRJ8SZmjFFK6770dz/NHltlTG7Lkp1e1ugil7c4oviXbTAiKcRwdpdIW5WRSn2yaAMwh6fUbH7DBs+xT6WcMn8Oa/4XQDlz5GxqQFsdOAXDkAIuh2O0QzpsOmNOWNDDb8NmyMkyFezo3zuB+tAQG2EimOHzFJWwlSwgRWVkVkwQI1l9e0fFnUUnaBLdy/3foAUgiPAcdnHAdzqXKAAgvRa1u2YWl1CjJe6ZSLAiDvonZnLC5fraqu5y3ymisewuVprCk4K1evgUDwZAeZwaswa7YrkdKgozZwN/tg5/NvDx7/11ltvvfW7EV6EgTHaXocLEaDR7bYtapVKzkvFGE0ACsqJhqw9R1Vu4QN3razFBWxHnZL1NU/mLppPEZ0FR+T3eCbTvColDlbFjLgEE5PGLZBZjcm2MmI3pWMi6HpqRwxTaBFTcKPFoRd4p5D5YQl1GiUEkT7+RVphpTN4Y/1zmxJiCuNQGFk7r8wta1yXmtPxpFimnku3wvYx1EuMy5xZOWzSnb/l9VS8u/vDgB2ZdPLnYPWh58OdbiNudO24gJC5TLeOEnz2sYERoa4Q4XPb1ieitiMEEAHi88MWr1e3DIDbG9Q/knMOJ4ZqqDLC8tYbMheJsnqlwOUlMMQGxz68OZ7ralDBD/gNpqOuHgDhxwLiySPdfupyHxb83J8BvHUCse81RP9O7plrrkHoNeSM3LEmx8c4c4OCdRWx5qSoGYNldnujfUqxFOsj/vVP3+vnn57J8K233nrrrd+J8DpGNkpwptpFDJ9MLyZsyFuJhl2QIYrtz24v7Vu9AR0tUCD2R7WhwQEbQr4WF1gEDqkIDJwxOJCJstkW9CwRg2RIIbN7mUd15kgdhdghh9HXIJhogXj17nCTH4HVUbPOGGeUflyUQzDr3CuGAGmRLUWsEPtWNdlhtFqOS7g1M6QYycBwvDu9wMz6zGZ3cMmDMroZTTAbIIV1KTghxTyXncp1RAgwZOKraAMy5s1gNrHd43DVOFZczyzaCsBjFHyKDLW5HLCfJ2v9jCpxD6cObEXkPNuORQV5sXiDogaevEykwNqbNJE/9tiZvxt0+hfxAnV1bsq2AiLUuRZghANJnddHd46qJVivuAEApoUTm8JonbjpwLdZkXNcbOPhRt2nEhznM2gllPutMl1tR3z2a8/DXPqZVlgqjrIphosim09trgsrsf/nz/7wDfVfv3x/3+JvvfXWW2/9foQXcsYGM1WEEguijOPoLi84HYWpSdFFv84W4VOYd1mliPIuqBKiEAV+zewC1dOn+Gv3L84MGL3UaWFUHDBIldgmKd0EBVPM+IHWJ0jrZItSWpduum6wXgoIeQ2QQoTWEepjhMDJm90JXeTBsOaQ4f7xx1ETUA1k8hHB48scwXZpvTSsIIr0u3NQYoPhf1pL16C7k6oeaJUyruFfk8+0Eff6GoxPwntribsyrqU7Mi4AiWxg1c0KySxSGQKmSrttOmvIDNimQhim00aybrnI5u+E0Eqli6HX6lhEJQdPLnLgDrngpejOvyflCpJ2iDfNXSyNwAsFCRWmImyU+ql5F4F8dy1kWJ7O7qNvM8zx4+xVEHTxA66GoM16RldJf3Ky/LbI3EHoFXwY70TfhNB5l7pBlsgPbP0tUB32/Kp+HmWgY+4hbMCNBMVbzuKPn/3bL9/rp4ePf+utt9566/ckvOpjO0vowrFIUeenDMvNmdPSgW1SYAVnt3YG0BVV355/NpthKHOfdlBb2nTYmzIvtYBZnAywyN4S2WHWrxwu4Zm7UppW55VRRKUXTp77M7rPChWBPLQd8sABqgyzP/YxCASiFiSaFyFk3SSqs/LzmCzruFUQpkm2+AC85NSZGLVATvntFZ3PFaG7l9YDopWuWTOaAI3q7MdrjYKOtnEuczjYpfQXiIJyXH6UrTrsKJpviTTs6SoCm9qY/3IFfUy3wnoQ1lyggStGwECe1wOYCevNlBJbEOJwhyizalFQ517zrY4AOVA+Z0qOJy4EyxSpoGS2YXXVL4D82povZpS+DOyVboyAH2idqJp7sE+T0Ffr2HxVrFZkb+m2xa31qkKFtYf0eM3z7q0riaigbCIkJd/AJ/oqgOWPpX4O2CYJHac6H+LGX+QN9HKE2+mgw2FMVVW//IT6P3963a633nrrrbd+b8JLx2ak+u4cIi2AIEWZZnMd0ITMEfVDwQmB+iXc3RSpWkegjBIiA8tuxT5XwWD0ONuPnmyZxH8zfr+zeWIG44SYKshAuwYIEaNY+lKBJhUo6I9XVsxRhKLa9OSxz+vm2HKGzojd4YB5pibfLK2h8KJYkePeV5AqGl8IiVah1Kjjz/PSdtpboF4K4G4ziMhL2KE1wa7Ft2TT1UZ/W+dGD3N2wSxrTWb3jkUPN5OUi43upaZNdaHtaJ3aJKuAW8ZNlhslAFu7Ll9g/y302KWfHdivApRFUOV2wNZrIsqIq+KZjQV/72Mvps0itYgDk9Ug44tyh5LbQB2eVoXyIEYFVVzfbJeQJHBCpAdhx+kIa9hh5hdaEN5xPd3zy/0HbflrJzQdBMvry/h0pM/dWteTttFxNm/6eVBrw8r3uxA5ZNxvGvPJ89//8tP1Hn/rrbfeeuut37bwqrCu6cgOdAaI8QWpxTO7Y3UKDpvjqftu/PzrgApI+Be9hsAKFv10TsBboQ8vjE4fTbpQpzi2uQ0r6E4xgQZqILs0RsH42NMg2O4SC+Kn4O3xChFwFGx5d+xKwqTVrtmvTSxDZ7YONOL52Mtu4kOAH4JItxG587xEBKF+MRhykzkt5CEiHSIkNENJM6dgNEQjz8nMjwd7+/XQzVsFDFAJfRILAJ/XsxJX2hasgJ2EmKBWzUpU0VITHm9c0mFdWHzGxJqi8aUDuRiXzEh0H8i5ZTf5XXl75HsXCfCZyrPRAum4ZaMMukljWs97nv0uZKDT593UIsmBbtCzCfsKuIFFgqt/G/FywCTi+cdiqJsgHoXBFfJM7KOeckc3vvSo0DyF25qI9b7yzs3W6o3BCaOOrrm4zN3KzQCFjJCeTF4+z9pOgArb8NngkE2z//2Hb/VvDx//1ltvvfXW71F4kdUCg4phF9cPhDLY+SufOY4kBM88yaoVVwimFjdH7BjkoEWghPu2GKSFv3r9y9ENXfSfn5WOFbDmorqoEBE2wI/qLgepeV4jnNJ4BUlehhYUpM2ATQYrLphvh1ZAhSl8Xk1bPpCOlnXfSgsieY0IFaK4SzA6jl6ATSEv8xjWLfjaxpUZSSpQrVBnKGwot3+LpT40J6SX3kGyEG7yklolyHrAj80FGFGx2WDzPFnVirXUfgRZOMPlXXetwryXPANIDlbfa5Rcu1Rbbv8iVaJR/vCrcOLoeulUJnYHkgqVscfw37emzrpwJOVO7hn5ZAiTI3sTgNeYZNp5v729iaKgNZA2VGYLIGjXUjZqEN2+tCdziSNOtmDmrSGFO9pKCusvlVwfnsHnsHe4QLw6IGnXiwfOh5nXojL2NQENipOYk747v1X9v399+Pi33nrrrbd+p8JL517QmVkidKQ6pBbFWS4pnTt27zX/h86cD5KYendgHZF2eumTEhGKrM0GxcbTENo6zK52PDpazUhbCChCSbAx6Lj7BlXU2J661Ov5BSm4Kflgn51fK0hREv4r75UKl+CEMVeQ1nhgHazJ6ppORWcOcXeFVoZS7cDmwWBLu4wjJn1jf3OwJ+8nunha8NpLmo7NKKxInsPXaAcVwMhidWHsq3SWDRLLDW5u9uC8YTCVZdW6EgFVJE0nZVkpy3ctMDV2pYZR8t8PG1skwNl51A509v4wkBIRtymY5KKv9Ondw7UDKW+g+WxnqwqH/65RARGkzBS+XKCH1ZLjtqAOb0QAQQaw4Yo36HdD7ePTJ9EI+1zJt40duCcbB+6jnBnb0g+JOA4wkNGI2P1+nRQrcJbI3pvDr1bMgKLQs/fWfY3LRS5dxWLVf/78vf708PFvvfXWW2/9XoUXowokRYAR3gApCQAmzNamocsQi5eOSigl0bsH6G7StMdoBR+BS8AyTRbNLAWiitUa+hRBYqpSRdnZOmzsuxYUVLpgz7bJ8YNS4ua9ucVPMqBiB5kiRKHST7oDVLzkAZqc50TWvSFK9LVGULNFNneEAHZOE8opeGSMzF9q8HPsQ9B4byTTnUooeTWY/w60ztiAITYuYqB0N6+vMWo+j1OospRepcTrvBsifBxldjcVCwihuMQM+QUeXI4Q6ADDC2URFpJXYnO0lxS/Mx1dn5mKaL8V0zUE1FuQE7k0lwuB0mveVKxrJ5aBS1bONFLJwn63akcfmAaJnLKcUdMOLuk7TnQW6RdaAiO+vrJDMgQQecWw26v5ZJ5B733658jabfhqwa9D2SLZIn/9jl1IA0vq10i9LfeM5bQRxYKN+ulb1d/+5QE13nrrrbfe+h0LL3z8eOhd6QFI+J/XCvNFVePhlU7OnsGaIfJsaHUHTDtSUlC3MKJGIA/tsOekGFk+OqkDKWSmUu6ZAko3r4Fdn3kb4MyQIYQJKmK5vF5gibWnbLbBwp+1sKylMzpbzStD7SLFoPyZI6HRUj4iT0mPtNkLxTZ7/hNlTuN0HsUOxQwWjgI5467ksYlbvbaJbNRrj7XbPuppkoTr1FdkDa1TiXEWEwWb4dq8Dfn7S6ZQ1qpz3uiQmrC5pY6lJfB6v9U7KUKnhKuZsW7KsBFwDa9OhkH/LiIxj7h33hhmPuhGg3elcGmKqYH2CHjKiYsc3ZFGGg3BLMxBGAAAAd9JREFU+TNYYDQuFlURxW2V5mdu1bugG1QxxFas+1XeD0NEV1l3Ww86Lha/ys8J5lvA3BvLmqqi2C3XcfY3ZEXfLHXTJYT0/9hwym4yO8suYwtU0uFXNmyqfgA1Hj7+rbfeeuut3/P66X99r/rB2NAiHpLzRAkBHqbdWFUocydZgH7zKXOlfAl2WWGJM4aD+c7V7OBAIv+YuVpoAYdb1LeeqemMMcSWMgb4QKuCpL/12Z3+8U98aGjfunAz8Sl6srEkSoKUwpW4INB7sx5XlTePBZ91Aqvq21DH4MUQ8wku8zOk747P+ZfrQf73x3v79lE436TjN8fzm54dqJDwySoVEd+oYkpm1xjZc15zWt6z/wy90MOleAWiGMwg329LaKkbaj2mAFH6UT8bBgCW4Ib1Q06X9xz3b2ZltFL3W3nQMbSc/dwF32ZzpQ/JN79vECeiXw2wG0rn9ztfbTKs+ucxs3+4YOhcZ35b1yz6nO9zjJg9QtxbwXIoaMOnQqhDNpesg67PCw8BbtAJEr53ua70XvXNqwL271H1vmTNYcQ8YvTLIUBxXoViqlZMAH5c4dskiCdBBFrnvXY+q77JG2/7KrF+dmyJn+MoHml97D9/r/qPh49/66233nrrd77+P3oxi4vgem+QAAAAAElFTkSuQmCC;" parent="8" vertex="1">
                    <mxGeometry y="24" width="870" height="199.84" as="geometry"/>
                </mxCell>
                <mxCell id="IKBpOrt1VyznLJv5Aj4V-2" value="&lt;b&gt;&lt;font style=&quot;color: light-dark(rgb(93, 65, 168), rgb(237, 237, 237));&quot;&gt;Azure Pipelines Template&lt;/font&gt;&lt;/b&gt;&lt;div&gt;&lt;b&gt;&lt;font style=&quot;color: light-dark(rgb(93, 65, 168), rgb(237, 237, 237));&quot;&gt;Terragrunt&amp;nbsp; + Terraform&lt;/font&gt;&lt;/b&gt;&lt;/div&gt;" style="text;html=1;align=center;verticalAlign=middle;whiteSpace=wrap;rounded=0;fontSize=43;" parent="8" vertex="1">
                    <mxGeometry x="72" y="21" width="670" height="140" as="geometry"/>
                </mxCell>
                <mxCell id="3" value="" style="shape=image;verticalLabelPosition=bottom;labelBackgroundColor=default;verticalAlign=top;aspect=fixed;imageAspect=0;image=https://images.crunchbase.com/image/upload/c_pad,f_auto,q_auto:eco,dpr_1/v1505556826/tk4mpmtleosuaniydkwi.png;" parent="8" vertex="1">
                    <mxGeometry x="670.71" y="24" width="200" height="200" as="geometry"/>
                </mxCell>
                <mxCell id="4" value="" style="shape=image;verticalLabelPosition=bottom;labelBackgroundColor=default;verticalAlign=top;aspect=fixed;imageAspect=0;image=https://code.benco.io/icon-collection/azure-docs/logo_terraform.svg;" parent="8" vertex="1">
                    <mxGeometry y="24" width="150" height="150" as="geometry"/>
                </mxCell>
                <mxCell id="7" value="" style="shape=image;verticalLabelPosition=bottom;labelBackgroundColor=default;verticalAlign=top;aspect=fixed;imageAspect=0;image=https://code.benco.io/icon-collection/logos/azure-logo.svg;" parent="8" vertex="1">
                    <mxGeometry x="3" y="180" width="300" height="43" as="geometry"/>
                </mxCell>
                <mxCell id="9" value="" style="image;sketch=0;aspect=fixed;html=1;points=[];align=center;fontSize=12;image=img/lib/mscae/Azure_Pipelines.svg;" vertex="1" parent="8">
                    <mxGeometry x="600" y="161" width="50" height="50" as="geometry"/>
                </mxCell>
            </root>
        </mxGraphModel>
    </diagram>
</mxfile>